<svg id="Lava" xmlns="http://www.w3.org/2000/svg" xmlns:xlink="http://www.w3.org/1999/xlink" viewBox="0 0 800 800"><defs><style>.cls-1{fill:none;}.cls-2{fill:#fff;}.cls-3{fill:#ecb423;}.cls-4{clip-path:url(#clip-path);}.cls-5{fill:#f15e22;}</style><clipPath id="clip-path"><rect class="cls-1" width="800" height="800"/></clipPath></defs><title>lava</title><g id="Layer_11" data-name="Layer 11"><rect class="cls-2" width="800" height="800"/><rect class="cls-3" width="800" height="800"/></g><g id="Layer_12" data-name="Layer 12"><g class="cls-4"><path class="cls-5" d="M470.29,0c-6.68,4.47-14.22,9.75-15.79,14.45-3.05,9.16-13,31.29-16.79,42s-19.08,56.47-13,67.92,13.74,16.79,18.32,22.9,6.87,13,13.74,16.79,32.82,11.45,57.24,31.29,30.53,24.42,41.21,24.42,40.45,3.05,57.24,6.87,42.74,4.58,63.34,0,46.55-16.79,54.19-37.4,22.9-55.71,15.26-96.92-29.76-74-33.58-80.13c0,0-44.46-32.45-71.1-54.82s-41-33.56-62.33-33.56S562.81-83.69,546.82-81,519.65-64.51,507.4-63.45,477-60.25,477-38.41,476.25-4,470.29,0Z"/><path class="cls-5" d="M717,4.21s12,22.24,16.46,29.36,27.58,40.51,27.58,40.51l5.78,2.63s1.33-10.23,9.34-12,2.22-27.13,4.45-37.81-4-32.91-8.9-33.8-2.67-6.67-9.34-6.23S712.58-13.14,717,4.21Z"/><path class="cls-5" d="M728.42,207.25s1.45-10.16,15.24-30.48,34.1-39.18,34.1-46.44,8-26.85,8-26.85,13.79,8,19.59,8.71,16.51,11.36,16.51,11.36,28.28,33.8,34.49,39.32,14.49,24.59,3.45,44.37-4.83,26.68-13.11,33.58-33.8,29-60.71,20.7S726.83,225.28,728.42,207.25Z"/><path class="cls-5" d="M276.91-77.47S308.94,27.46,321,45.08s24,40.85,40.85,42.45,38.2,0,38.2,0,14.67-6.07,20.27-13.45S435.7,29.26,445.1,21.85s9.07-14,12.3-16.46,17.52-14.92,0-24.15S429.8-75.27,421-89s-19.79-34-21-43-5.45-21.77-10.28-24.8-50.2-21.77-50.2-21.77S328-172.53,328-168.3s-25.4,36.29-35.08,39.92-16.95,10.28-16,21.77S274.25-86,276.91-77.47Z"/><path class="cls-5" d="M-3,23.19C4.25,17.32,4.76-7.1,13.72-13.16S52.54-40.06,74-45.17s34-3.92,44.2-9.89,22.7-10.75,32.85-11.35,35.24-18.52,53.16-10.75S234.73-73,241.89-73s15.53-4.18,18.52,9,11.28,25.69,15.49,33.45,26.32,56.75,26.32,56.75,9.56,25.69,7.77,35.24,20.31,13.14,24.49,19.71,27.48,6.57,9,28.67-34,20.91-38.83,27.48-1.79,19.71-7.17,32.85-12.92,32.24-29.87,23.2S228,180.9,228,180.9s9.6,5.65,14.12,10.17,9,19.21,3.39,24.29-20.9,13-20.34,18.64-22-4.25-22-4.25-42.37-48.29-61.58-48.29-41.81,4-47.46,2.82-31.07-17.51-40.68-34.46S-3,74.12-4.14,61.13-9.19,28.18-3,23.19Z"/><path class="cls-5" d="M470.29,800c-6.68,4.47-14.22,9.75-15.79,14.45-3.05,9.16-13,31.29-16.79,42s-19.08,56.47-13,67.92,13.74,16.79,18.32,22.9,6.87,13,13.74,16.79,32.82,11.45,57.24,31.29,30.53,24.42,41.21,24.42,40.45,3.05,57.24,6.87,42.74,4.58,63.34,0,46.55-16.79,54.19-37.4,22.9-55.71,15.26-96.92-29.76-74-33.58-80.13c0,0-44.46-32.45-71.1-54.82s-41-33.56-62.33-33.56-15.45-7.46-31.43-4.79-27.17,16.52-39.42,17.58-30.37,3.2-30.37,25S476.25,796,470.29,800Z"/><path class="cls-5" d="M717,804.21s12,22.24,16.46,29.36,27.58,40.51,27.58,40.51l5.78,2.63s1.33-10.23,9.34-12,2.22-27.13,4.45-37.81-4-32.91-8.9-33.8-2.67-6.67-9.34-6.23S712.58,786.86,717,804.21Z"/><path class="cls-5" d="M276.91,722.53s32,104.92,44.05,122.54,24,40.85,40.85,42.45,38.2,0,38.2,0,14.67-6.07,20.27-13.45,15.43-44.82,24.83-52.23,9.07-14,12.3-16.46,17.52-14.92,0-24.15S429.8,724.73,421,711s-19.79-34-21-43-5.45-21.77-10.28-24.8-50.2-21.77-50.2-21.77S328,627.47,328,631.7s-25.4,36.29-35.08,39.92-16.95,10.28-16,21.77S274.25,714,276.91,722.53Z"/><path class="cls-5" d="M-3,823.19c7.26-5.86,7.77-30.29,16.73-36.35s38.83-26.89,60.33-32,34-3.92,44.2-9.89,22.7-10.75,32.85-11.35,35.24-18.52,53.16-10.75S234.73,727,241.89,727s15.53-4.18,18.52,9,11.28,25.69,15.49,33.45,26.32,56.75,26.32,56.75,9.56,25.69,7.77,35.24,20.31,13.14,24.49,19.71,27.48,6.57,9,28.67-34,20.91-38.83,27.48-1.79,19.71-7.17,32.85-12.92,32.24-29.87,23.2S228,980.9,228,980.9s9.6,5.65,14.12,10.17,9,19.21,3.39,24.29-20.9,13-20.34,18.64-22-4.25-22-4.25-42.37-48.29-61.58-48.29-41.81,4-47.46,2.82-31.07-17.51-40.68-34.46S-3,874.12-4.14,861.13-9.19,828.18-3,823.19Z"/><path class="cls-5" d="M797,23.19c7.26-5.86,7.77-30.29,16.73-36.35s38.83-26.89,60.33-32,34-3.92,44.2-9.89,22.7-10.75,32.85-11.35,35.24-18.52,53.16-10.75S1034.73-73,1041.89-73s15.53-4.18,18.52,9,11.28,25.69,15.49,33.45,26.32,56.75,26.32,56.75,9.56,25.69,7.77,35.24,20.31,13.14,24.49,19.71,27.48,6.57,9,28.67-34,20.91-38.83,27.48-1.79,19.71-7.17,32.85-12.92,32.24-29.87,23.2S1028,180.9,1028,180.9s9.6,5.65,14.12,10.17,9,19.21,3.39,24.29-20.9,13-20.34,18.64-22-4.25-22-4.25-42.37-48.29-61.58-48.29-41.81,4-47.46,2.82-31.07-17.51-40.68-34.46S797,74.12,795.86,61.13,790.81,28.18,797,23.19Z"/><path class="cls-5" d="M230,546.84s7.74,11.19,5.16,18.07-5.83,13.77.53,13.77,22.7-6,38.19-6.88,53.34-14.63,65.39-14.63,42.16-5.16,56.79-10.32,29.25-21.51,45.6-18.93,35.28-13.77,52.48-39.58,28.39-39.58,42.16-39.58,38.69-6.88,53.33-31,6.9-29.25,20.66-33.56,26.67-1.72,16.35-31.83-20.65-61.09-31-60.23-37,0-37,0,32.69-4.28,33.56-9.45,2.56-40.55-11.2-46.95-55.91-18.44-63.66-25.33-21.51-17.21-25.81-13.77-23.23,11.19-23.23,11.19l-6,21.92L460.59,201s1.72-11.19-9.46-25.81-29.25-28.39-35.28-39.58-14.63-13.77-38.72-12.91-34.42-4.3-46.46,10.32-22.37,22.37-30.11,48.18S291.09,231,279,234,256.67,281,259.26,299.91s-4.3,53.34,3.44,80,23.23,78.3,5.16,105.83S226.56,505.54,230,546.84Z"/><path class="cls-5" d="M607.84,263.35s13.14-19.88,22.54-20.63,38.35-3.71,42.81,1.49-6.68,19.14-6.68,19.14,1.49,8.33-3,21-4.46,12.62-11.14,21.53S641,322.18,641,322.18s-28.74-17.82-31.71-31.93S601.36,271.92,607.84,263.35Z"/><path class="cls-5" d="M645.73,350.56s.84-12.15,5.88-21.39,26-56.26,31.91-60.46,39.53-21.44,64.09-12.23,67.54,21.56,97.47,45.7,29.16,34.12,45.28,32.58,69.07-12.91,94.4-11.06,31.47-11.83,38.37-1.53,25.33,31.78,29.16,60.18.77,40.68-8.44,79.05-21.49,99-66.77,102.08-75.21,5.37-79.82,7.67-34.54-43-40.68-59.1-20.72-44.51-20.72-44.51,0-6.14-20.72-6.91-40.68-8.44-56-16.12-33-6.14-39.91-25.33S690,393.1,690,393.1,644.4,359.11,645.73,350.56Z"/><path class="cls-5" d="M771.35,505.77,821,524.17s27.42,15.4,28.76,5.6-1.34-21-11.2-35.7-8.46-23.8-31.56-28.7-60.19-9.8-71.39,0-11.09,26.6-6.6,28.7S755.26,505.07,771.35,505.77Z"/><path class="cls-5" d="M525.28,631.87s-53.09-42-45.69-80.26,22.23-92.41,61.74-94.36,55.56-11.83,79-25.41,55.56-20.09,71.62-14.37,28.49,14.37,24.74,34.12-17.13,64.21.67,64.21,27.29-20.28,70.64-1.38,93.36,49,93.36,56.82,7.32,19.4-7.93,44.41S838.68,660.78,832,685.18s-25,100-47,97-99.41-16.47-115.87-29.88-65.25-26.83-65.25-57.33c0,0-12.2-16.47-12.2-23.78s-18.91,21.34-33.54,12.2S530.82,667.6,525.28,631.87Z"/><path class="cls-5" d="M-72.13,207.25s1.45-10.16,15.24-30.48,34.1-39.18,34.1-46.44,8-26.85,8-26.85,13.79,8,19.59,8.71,16.51,11.36,16.51,11.36,28.28,33.8,34.49,39.32,14.49,24.59,3.45,44.37-4.83,26.68-13.11,33.58-33.8,29-60.71,20.7S-73.72,225.28-72.13,207.25Z"/><path class="cls-5" d="M-154.82,350.56s.84-12.15,5.88-21.39,26-56.26,31.91-60.46,39.53-21.44,64.09-12.23,67.54,21.56,97.47,45.7,29.16,34.12,45.28,32.58,69.07-12.91,94.4-11.06,31.47-11.83,38.37-1.53,25.33,31.78,29.16,60.18.77,40.68-8.44,79.05-21.49,99-66.77,102.08-75.21,5.37-79.82,7.67-34.54-43-40.68-59.1-20.72-44.51-20.72-44.51,0-6.14-20.72-6.91-40.68-8.44-56-16.12-33-6.14-39.91-25.33-29.16-26.09-29.16-26.09S-156.15,359.11-154.82,350.56Z"/><path class="cls-5" d="M-29.2,505.77l49.69,18.4s27.42,15.4,28.76,5.6-1.34-21-11.2-35.7-8.46-23.8-31.56-28.7-60.19-9.8-71.39,0S-76,492-71.49,494.07-45.29,505.07-29.2,505.77Z"/><path class="cls-5" d="M-275.27,631.87s-53.09-42-45.69-80.26,22.23-92.41,61.74-94.36,55.56-11.83,79-25.41,55.56-20.09,71.62-14.37,28.49,14.37,24.74,34.12-17.13,64.21.67,64.21,27.29-20.28,70.64-1.38,93.36,49,93.36,56.82,7.32,19.4-7.93,44.41-34.76,45.13-41.47,69.52-25,100-47,97-99.41-16.47-115.87-29.88-65.25-26.83-65.25-57.33c0,0-12.2-16.47-12.2-23.78s-18.91,21.34-33.54,12.2S-269.73,667.6-275.27,631.87Z"/><path class="cls-5" d="M346.3,571.24s3.25-13,21.15-13.79,35.8-9.76,44.75-12.2,18.71-5.7,26.85,0,26,24.54,24.41,33.42-50.34,39.8-58.53,45.5-22,8.14-34.22,4.88-33.36-11.66-39.87-30.24S317,572.83,346.3,571.24Z"/><path class="cls-5" d="M404.47,663.89S425,707,441.62,718.29s30.52,13.93,45.77-6.63a305,305,0,0,1,33.17-37.15s4.64-16.58-4-27.86-9.29-35.16-23.88-43.12-19.9-20.57-35.82-8S373.29,639.34,404.47,663.89Z"/><path class="cls-5" d="M250.57,586.3s14.51-14.48,33.55-11.43,23.57-.15,24.48,11.43,10.68,5.83,11.68,14.9,12.4,19.83.16,30.32-19.3,11.49-27.86,10-17.13-.82-22.67-11S244.33,587,250.57,586.3Z"/><path class="cls-5" d="M47.67,732.89s26.08,13.85,44,11.41,35.86-9,53-11.41,44-16.3,52.15-16.3,37.49,8.15,50.52-8.15,22.82-39.93,20.37-53.78-6.52-53.78-35.86-66.82-53-32.18-86.38-9.16-69.27,67-78.23,77.58-31,39.15-33.41,48.93S27.3,729.63,47.67,732.89Z"/><path class="cls-5" d="M229.66,249.26s-41-24.06-56.32-40-55.16-25.79-71.9-20-34.07,23.1-41,36.38S35,249.26,50.62,272.94,71.41,307,74.3,310.47,76,323.75,96.24,323.75s30.9-1.15,40.86,0,16.31-8.66,26.7-6.93,28.29,4,37.53,0,23.16-24.25,28.33-30.6S247.56,260.35,229.66,249.26Z"/></g></g></svg>