<svg id="Layer_4" data-name="Layer 4" xmlns="http://www.w3.org/2000/svg" xmlns:xlink="http://www.w3.org/1999/xlink" viewBox="0 0 800 800"><defs><style>.cls-1{fill:none;}.cls-2{clip-path:url(#clip-path);}.cls-3{fill:#616161;}.cls-4{fill:#999;}.cls-5{fill:#888989;}.cls-6{fill:#979797;}.cls-7{fill:#8e8e8e;}.cls-8{fill:#8e8f8f;}.cls-9{fill:#ababab;}.cls-10{fill:#8d8e8d;}.cls-11{fill:#878887;}</style><clipPath id="clip-path"><rect class="cls-1" y="-1" width="800" height="802"/></clipPath></defs><title>wall</title><g class="cls-2"><polygon class="cls-3" points="954.89 806.95 -99.06 806.95 -99.06 -31.84 -6.02 -31.91 43.41 -24.28 119.67 -32.01 136.97 -32.02 200.93 -21.13 279.02 -32.14 296.48 -32.15 366.69 -16.82 443.7 -32.27 456.18 -32.28 505.06 -12.41 568.4 -31.84 590.84 -31.84 654.39 -23.55 740.92 -31.84 756.44 -31.84 807.43 -13.22 873.12 -31.84 882.84 -31.84 954.89 -31.84 954.89 806.95"/><path class="cls-4" d="M74.07,276.64s.41,15.31.51,19.63c.16,7.53-.68,19.78-1,32.55a182.34,182.34,0,0,0,.51,19.31,2.36,2.36,0,0,0,2.36,2.36,128.65,128.65,0,0,0,18.44,2.07c9.76.48,23.41,0,28.56,0,10.93,0,27.48-.49,43.42-.35,9.72.09,28.44-.29,36.63.35,7,.54,15.24-1.1,20.32-1.48a3.59,3.59,0,0,0,2.94-2.94s2.4-7.84,1.26-21.84a299.92,299.92,0,0,1-.18-39c.12-2.13-1.08-11.71-1.08-11.71a2.36,2.36,0,0,0-2.36-2.36s-18.88-1.15-32.42-1.08-34.52,1.11-47.45,1.18c-23.52.12-30.56-1.41-43.63-1.17-6.12.11-23.38,1.08-23.38,1.08C76.21,273.21,74.07,275.34,74.07,276.64Z"/><path class="cls-4" d="M580.79,543.45s.41,15.31.51,19.63c.16,7.53-.68,19.78-1,32.55a182.34,182.34,0,0,0,.51,19.31,2.36,2.36,0,0,0,2.36,2.36s15.35,2.07,47,2.07c10.93,0,40.34-2,52.05-1.42,9.7.49,24.66-1.27,32.85-.64,7,.54,24.69,0,24.69,0a2.36,2.36,0,0,0,2.36-2.36s2.4-7.84,1.26-21.84a299.92,299.92,0,0,1-.18-39c.12-2.13-1.08-11.71-1.08-11.71a2.36,2.36,0,0,0-2.36-2.36,225,225,0,0,0-22.59-.89c-5.79,0-14.85,1.93-24.72,1.8-13.2-.17-27.84-2.28-38-1-8.92,1.11-33.71-1.21-46.78-1-6.12.11-23.38,1.08-23.38,1.08C582.93,540,580.79,542.15,580.79,543.45Z"/><path class="cls-5" d="M333.9,276.74s.41,15.31.51,19.63c.16,7.53-.68,19.78-1,32.55a182.34,182.34,0,0,0,.51,19.31,2.36,2.36,0,0,0,2.36,2.36s15.35,2.07,47,2.07c10.93,0,40.34-2,52.05-1.42,9.7.49,24.66-1.27,32.85-.64,7,.54,24.69,0,24.69,0a2.36,2.36,0,0,0,2.36-2.36s2.4-7.84,1.26-21.84a299.92,299.92,0,0,1-.18-39c.12-2.13-1.08-11.71-1.08-11.71a2.36,2.36,0,0,0-2.36-2.36,225,225,0,0,0-22.59-.89c-5.79,0-14.85,1.93-24.72,1.8-13.2-.17-27.84-2.28-38-1-8.92,1.11-33.71-1.21-46.78-1-6.12.11-23.38,1.08-23.38,1.08C336,273.31,333.9,275.44,333.9,276.74Z"/><path class="cls-5" d="M177.93,365.63s.41,15.31.51,19.63c.16,7.53-.68,19.78-1,32.55a182.34,182.34,0,0,0,.51,19.31,2.36,2.36,0,0,0,2.36,2.36s15.35,2.07,47,2.07c10.93,0,40.34-2,52.05-1.42,9.7.49,24.66-1.27,32.85-.64,7,.54,24.69,0,24.69,0a2.36,2.36,0,0,0,2.36-2.36s2.4-7.84,1.26-21.84a299.92,299.92,0,0,1-.18-39c.12-2.13-1.08-11.71-1.08-11.71a2.36,2.36,0,0,0-2.36-2.36,225,225,0,0,0-22.59-.89c-5.79,0-14.85,1.93-24.72,1.8-13.2-.17-27.84-2.28-38-1-8.92,1.11-33.71-1.21-46.78-1-6.12.11-23.38,1.08-23.38,1.08C180.07,362.19,177.93,364.33,177.93,365.63Z"/><path class="cls-4" d="M434.86,453.7s.41,15.31.51,19.63c.16,7.53-.68,19.78-1,32.55a182.34,182.34,0,0,0,.51,19.31,2.36,2.36,0,0,0,2.36,2.36s15.35,2.07,47,2.07c10.93,0,40.34-2,52.05-1.42,9.7.49,24.66-1.27,32.85-.64,7,.54,24.69,0,24.69,0a2.36,2.36,0,0,0,2.36-2.36s2.4-7.84,1.26-21.84a299.92,299.92,0,0,1-.18-39c.12-2.13-1.08-11.71-1.08-11.71a2.36,2.36,0,0,0-2.36-2.36,225,225,0,0,0-22.59-.89c-5.79,0-14.85,1.93-24.72,1.8-13.2-.17-27.84-2.28-38-1-8.92,1.11-33.71-1.21-46.78-1-6.12.11-23.38,1.08-23.38,1.08C437,450.27,434.86,452.4,434.86,453.7Z"/><path class="cls-4" d="M574.94,366.3s.41,15.31.51,19.63c.16,7.53,1.48,14.39,1.14,27.15-.28,10.69-1.65,23.62-1.65,23.62,0,3.42,1.92,3.23,4.59,3.48a33.36,33.36,0,0,1,4.07-.2c3.43.28,15.37,1.71,40.69.07,10.91-.71,40.34.15,52.05.73,9.7.49,11.72-1.27,19.91-.64,7,.54,24.69,0,24.69,0a2.36,2.36,0,0,0,2.36-2.36s2.4-7.84,1.26-21.84a299.92,299.92,0,0,1-.18-39c.12-2.13-1.08-11.71-1.08-11.71a2.36,2.36,0,0,0-2.36-2.36,225,225,0,0,0-22.59-.89c-13.54.07-29.42,2.26-47.38,2.08-23.52-.23-36.14-2.51-49.21-2.27-6.12.11-23.38,1.08-23.38,1.08C577.08,362.86,574.94,365,574.94,366.3Z"/><path class="cls-6" d="M635,277.41s.41,15.31.51,19.63c.16,7.53,1.48,14.39,1.14,27.15-.28,10.69-1.65,23.62-1.65,23.62,0,3.42,1.92,3.23,4.59,3.48a33.36,33.36,0,0,1,4.07-.2c3.43.28,3.51,1.71,28.83.07,10.91-.71,23.08.15,34.79.73,9.7.49,11.72-1.27,19.91-.64,7,.54,32.24,0,32.24,0a2.36,2.36,0,0,0,2.36-2.36s2.4-7.84,1.26-21.84a299.92,299.92,0,0,1-.18-39c.12-2.13-1.08-11.71-1.08-11.71a2.36,2.36,0,0,0-2.36-2.36s-16.6-1-30.14-.89-22.06,2-32.28,2.08c-12.24.05-22.12-2.51-35.19-2.27-6.12.11-23.38,1.08-23.38,1.08C637.16,274,635,276.11,635,277.41Z"/><path class="cls-7" d="M349.8,366.78s.41,15.31.51,19.63c.16,7.53.4,14.39.06,27.15-.28,10.69-.57,23.62-.57,23.62,0,3.42,1.92,3.23,4.59,3.48a33.36,33.36,0,0,1,4.07-.2c3.43.28,13.22,1.71,38.54.07,10.91-.71,17.68.15,29.4.73,9.7.49,6.32-1.27,14.51-.64,7,.54,24.69,0,24.69,0a2.36,2.36,0,0,0,2.36-2.36s2.4-7.84,1.26-21.84a299.92,299.92,0,0,1-.18-39c.12-2.13-1.08-11.71-1.08-11.71a2.36,2.36,0,0,0-2.36-2.36,225,225,0,0,0-22.59-.89c-13.54.07-19.24-1.32-29-1.15-23.52.41-26.44.73-39.5,1-6.12.11-21.22,1.08-21.22,1.08C351.93,363.34,349.8,365.48,349.8,366.78Z"/><path class="cls-8" d="M206.49,454.66s.41,15.31.51,19.63c.16,7.53.4,14.39.06,27.15-.28,10.69-.57,23.62-.57,23.62,0,3.42,1.92,3.23,4.59,3.48a33.36,33.36,0,0,1,4.07-.2c3.43.28,13.22,1.71,38.54.07,10.91-.71,17.68.15,29.4.73,9.7.49,6.32-1.27,14.51-.64,7,.54,24.69,0,24.69,0a2.36,2.36,0,0,0,2.36-2.36s2.4-7.84,1.26-21.84a299.92,299.92,0,0,1-.18-39c.12-2.13-1.08-11.71-1.08-11.71a2.36,2.36,0,0,0-2.36-2.36,225,225,0,0,0-22.59-.89c-13.54.07-19.24-1.32-29-1.15-23.52.41-26.44.73-39.5,1-6.12.11-21.22,1.08-21.22,1.08C208.62,451.23,206.49,453.36,206.49,454.66Z"/><path class="cls-4" d="M50.09,366.59s.41,15.31.51,19.63c.16,7.53.4,14.39.06,27.15-.28,10.69-.57,23.62-.57,23.62,0,3.42,1.92,3.23,4.59,3.48a33.36,33.36,0,0,1,4.07-.2c3.43.28,13.22,1.71,38.54.07,10.91-.71,17.68.15,29.4.73,9.7.49,6.32-1.27,14.51-.64,7,.54,24.69,0,24.69,0a2.36,2.36,0,0,0,2.36-2.36s2.4-7.84,1.26-21.84a299.92,299.92,0,0,1-.18-39c.12-2.13-1.08-11.71-1.08-11.71a2.36,2.36,0,0,0-2.36-2.36,225,225,0,0,0-22.59-.89c-13.54.07-19.24-1.32-29-1.15-23.52.41-26.44.73-39.5,1-6.12.11-21.22,1.08-21.22,1.08C52.22,363.15,50.09,365.29,50.09,366.59Z"/><path class="cls-4" d="M-67.12,366.11s.41,15.31.51,19.63c.16,7.53.4,14.39.06,27.15-.28,10.69-.57,23.62-.57,23.62,0,3.42,1.92,3.23,4.59,3.48a33.36,33.36,0,0,1,4.07-.2c3.43.28,13.22,1.71,38.54.07,10.91-.71,9.68.15,21.4.73,9.7.49,12.32-1.27,20.51-.64a153.8,153.8,0,0,0,16.69,0A2.36,2.36,0,0,0,41,437.59s2.4-7.84,1.26-21.84a299.92,299.92,0,0,1-.18-39C42.23,374.61,41,365,41,365a2.36,2.36,0,0,0-2.36-2.36s-7.06-.46-20.59-.89C9,361.5,2.48,360.61-3,360.63c-23.52.08-26.44.73-39.5,1-6.12.11-21.22,1.08-21.22,1.08C-65,362.67-67.12,364.81-67.12,366.11Z"/><path class="cls-4" d="M732.94,366.11s.41,15.31.51,19.63c.16,7.53.4,14.39.06,27.15-.28,10.69-.57,23.62-.57,23.62,0,3.42,1.92,3.23,4.59,3.48a33.36,33.36,0,0,1,4.07-.2c3.43.28,13.22,1.71,38.54.07,10.91-.71,9.68.15,21.4.73,9.7.49,12.32-1.27,20.51-.64a153.8,153.8,0,0,0,16.69,0,2.36,2.36,0,0,0,2.36-2.36s2.4-7.84,1.26-21.84a299.92,299.92,0,0,1-.18-39c.12-2.13-1.08-11.71-1.08-11.71a2.36,2.36,0,0,0-2.36-2.36s-7.06-.46-20.59-.89c-9.13-.29-15.61-1.17-21-1.15-23.52.08-26.44.73-39.5,1-6.12.11-21.22,1.08-21.22,1.08C735.08,362.67,732.94,364.81,732.94,366.11Z"/><path class="cls-7" d="M608.08,455.15s.41,15.31.51,19.63c.16,7.53.4,14.39.06,27.15-.28,10.69-.57,23.62-.57,23.62,0,3.42,1.92,3.23,4.59,3.48a33.36,33.36,0,0,1,4.07-.2c3.43.28,13.22,1.71,38.54.07,10.91-.71,17.68.15,29.4.73,9.7.49,6.32-1.27,14.51-.64,7,.54,24.69,0,24.69,0a2.36,2.36,0,0,0,2.36-2.36s2.4-7.84,1.26-21.84a299.92,299.92,0,0,1-.18-39c.12-2.13-1.08-11.71-1.08-11.71a2.36,2.36,0,0,0-2.36-2.36,225,225,0,0,0-22.59-.89c-13.54.07-19.24-1.32-29-1.15-23.52.41-26.44.73-39.5,1-6.12.11-21.22,1.08-21.22,1.08C610.22,451.71,608.08,453.84,608.08,455.15Z"/><path class="cls-9" d="M505.54,277.89s.41,15.31.51,19.63c.16,7.53.4,14.39.06,27.15-.28,10.69-.57,23.62-.57,23.62,0,3.42,1.92,3.23,4.59,3.48a33.36,33.36,0,0,1,4.07-.2c3.43.28,13.22,1.71,38.54.07,10.91-.71,17.68.15,29.4.73,9.7.49,6.32-1.27,14.51-.64,7,.54,24.69,0,24.69,0a2.36,2.36,0,0,0,2.36-2.36s2.4-7.84,1.26-21.84a299.92,299.92,0,0,1-.18-39c.12-2.13-1.08-11.71-1.08-11.71a2.36,2.36,0,0,0-2.36-2.36,225,225,0,0,0-22.59-.89c-13.54.07-19.24-1.32-29-1.15-23.52.41-26.44.73-39.5,1-6.12.11-21.22,1.08-21.22,1.08C507.67,274.46,505.54,276.59,505.54,277.89Z"/><path class="cls-5" d="M-23.18,277.89s.41,15.31.51,19.63c.16,7.53.4,14.39.06,27.15-.28,10.69-.57,23.62-.57,23.62,0,3.42,1.92,3.23,4.59,3.48a33.36,33.36,0,0,1,4.07-.2c3.43.28,23.86.21,35.57.8,9.7.49,6.32-1.27,14.51-.64,7,.54,24.69,0,24.69,0a2.36,2.36,0,0,0,2.36-2.36s2.4-7.84,1.26-21.84a299.92,299.92,0,0,1-.18-39c.12-2.13-1.08-11.71-1.08-11.71a2.36,2.36,0,0,0-2.36-2.36,225,225,0,0,0-22.59-.89c-13.54.07-19.24-1.32-29-1.15-23.52.41-28.37,2-28.37,2C-21.05,274.46-23.18,276.59-23.18,277.89Z"/><path class="cls-5" d="M777,277.89s.41,15.31.51,19.63c.16,7.53.4,14.39.06,27.15-.28,10.69-.57,23.62-.57,23.62,0,3.42,1.92,3.23,4.59,3.48a33.36,33.36,0,0,1,4.07-.2c3.43.28,23.86.21,35.57.8,9.7.49,6.32-1.27,14.51-.64,7,.54,24.69,0,24.69,0a2.36,2.36,0,0,0,2.36-2.36s2.4-7.84,1.26-21.84a299.92,299.92,0,0,1-.18-39c.12-2.13-1.08-11.71-1.08-11.71a2.36,2.36,0,0,0-2.36-2.36,225,225,0,0,0-22.59-.89c-13.54.07-19.24-1.32-29-1.15-23.52.41-28.37,2-28.37,2C779.18,274.46,777,276.59,777,277.89Z"/><path class="cls-7" d="M237.64,277.89s.41,15.31.51,19.63c.16,7.53.4,14.39.06,27.15-.28,10.69-.57,23.62-.57,23.62,0,3.42,1.92,3.23,4.59,3.48a33.36,33.36,0,0,1,4.07-.2c3.43.28,23.86.21,35.57.8,9.7.49,6.32-1.27,14.51-.64,7,.54,24.69,0,24.69,0a2.36,2.36,0,0,0,2.36-2.36s2.4-7.84,1.26-21.84a299.92,299.92,0,0,1-.18-39c.12-2.13-1.08-11.71-1.08-11.71a2.36,2.36,0,0,0-2.36-2.36,225,225,0,0,0-22.59-.89c-13.54.07-19.24-1.32-29-1.15-23.52.41-28.37,2-28.37,2C239.78,274.46,237.64,276.59,237.64,277.89Z"/><path class="cls-4" d="M74.07,10.38s.41,15.31.51,19.63c.16,7.53-.68,19.78-1,32.55a182.34,182.34,0,0,0,.51,19.31,2.36,2.36,0,0,0,2.36,2.36,128.65,128.65,0,0,0,18.44,2.07c9.76.48,23.41,0,28.56,0,10.93,0,27.48-.49,43.42-.35,9.72.09,28.44-.29,36.63.35,7,.54,15.24-1.1,20.32-1.48a3.59,3.59,0,0,0,2.94-2.94S229.15,74,228,60a299.92,299.92,0,0,1-.18-39c.12-2.13-1.08-11.71-1.08-11.71a2.36,2.36,0,0,0-2.36-2.36S205.51,5.79,192,5.86,157.45,7,144.52,7C121,7.15,114,5.63,100.89,5.86,94.77,6,77.51,6.94,77.51,6.94,76.21,6.94,74.07,9.08,74.07,10.38Z"/><path class="cls-5" d="M333.9,10.48s.41,15.31.51,19.63c.16,7.53-.68,19.78-1,32.55A182.34,182.34,0,0,0,333.9,82a2.36,2.36,0,0,0,2.36,2.36s15.35,2.07,47,2.07c10.93,0,40.34-2,52.05-1.42,9.7.49,24.66-1.27,32.85-.64,7,.54,24.69,0,24.69,0A2.36,2.36,0,0,0,495.2,82s2.4-7.84,1.26-21.84a299.92,299.92,0,0,1-.18-39C496.4,19,495.2,9.4,495.2,9.4A2.36,2.36,0,0,0,492.85,7a225,225,0,0,0-22.59-.89c-5.79,0-14.85,1.93-24.72,1.8-13.2-.17-27.84-2.28-38-1C398.57,8,373.78,5.73,360.72,6,354.6,6.08,337.34,7,337.34,7,336,7,333.9,9.18,333.9,10.48Z"/><path class="cls-6" d="M635,11.15s.41,15.31.51,19.63c.16,7.53,1.48,14.39,1.14,27.15C636.39,68.62,635,81.55,635,81.55c0,3.42,1.92,3.23,4.59,3.48a33.36,33.36,0,0,1,4.07-.2c3.43.28,3.51,1.71,28.83.07,10.91-.71,23.08.15,34.79.73,9.7.49,11.72-1.27,19.91-.64,7,.54,32.24,0,32.24,0a2.36,2.36,0,0,0,2.36-2.36s2.4-7.84,1.26-21.84a299.92,299.92,0,0,1-.18-39c.12-2.13-1.08-11.71-1.08-11.71a2.36,2.36,0,0,0-2.36-2.36s-16.6-1-30.14-.89-22.06,2-32.28,2.08C684.79,9,674.91,6.4,661.84,6.63c-6.12.11-23.38,1.08-23.38,1.08C637.16,7.71,635,9.85,635,11.15Z"/><path class="cls-9" d="M505.54,11.63s.41,15.31.51,19.63c.16,7.53.4,14.39.06,27.15-.28,10.69-.57,23.62-.57,23.62,0,3.42,1.92,3.23,4.59,3.48a33.36,33.36,0,0,1,4.07-.2c3.43.28,13.22,1.71,38.54.07,10.91-.71,17.68.15,29.4.73,9.7.49,6.32-1.27,14.51-.64,7,.54,24.69,0,24.69,0a2.36,2.36,0,0,0,2.36-2.36s2.4-7.84,1.26-21.84a299.92,299.92,0,0,1-.18-39c.12-2.13-1.08-11.71-1.08-11.71a2.36,2.36,0,0,0-2.36-2.36,225,225,0,0,0-22.59-.89c-13.54.07-19.24-1.32-29-1.15-23.52.41-26.44.73-39.5,1C524.08,7.23,509,8.19,509,8.19,507.67,8.19,505.54,10.33,505.54,11.63Z"/><path class="cls-5" d="M-23.18,11.63s.41,15.31.51,19.63c.16,7.53.4,14.39.06,27.15C-22.9,69.1-23.18,82-23.18,82c0,3.42,1.92,3.23,4.59,3.48a33.36,33.36,0,0,1,4.07-.2c3.43.28,23.86.21,35.57.8,9.7.49,6.32-1.27,14.51-.64,7,.54,24.69,0,24.69,0a2.36,2.36,0,0,0,2.36-2.36s2.4-7.84,1.26-21.84a299.92,299.92,0,0,1-.18-39c.12-2.13-1.08-11.71-1.08-11.71a2.36,2.36,0,0,0-2.36-2.36,225,225,0,0,0-22.59-.89C24.12,7.38,18.42,6,8.62,6.15c-23.52.41-28.37,2-28.37,2C-21.05,8.19-23.18,10.33-23.18,11.63Z"/><path class="cls-5" d="M777,11.63s.41,15.31.51,19.63c.16,7.53.4,14.39.06,27.15C777.33,69.1,777,82,777,82c0,3.42,1.92,3.23,4.59,3.48a33.36,33.36,0,0,1,4.07-.2c3.43.28,23.86.21,35.57.8,9.7.49,6.32-1.27,14.51-.64,7,.54,24.69,0,24.69,0a2.36,2.36,0,0,0,2.36-2.36s2.4-7.84,1.26-21.84a299.92,299.92,0,0,1-.18-39c.12-2.13-1.08-11.71-1.08-11.71a2.36,2.36,0,0,0-2.36-2.36,225,225,0,0,0-22.59-.89c-13.54.07-19.24-1.32-29-1.15-23.52.41-28.37,2-28.37,2C779.18,8.19,777,10.33,777,11.63Z"/><path class="cls-7" d="M237.64,11.63s.41,15.31.51,19.63c.16,7.53.4,14.39.06,27.15-.28,10.69-.57,23.62-.57,23.62,0,3.42,1.92,3.23,4.59,3.48a33.36,33.36,0,0,1,4.07-.2c3.43.28,23.86.21,35.57.8,9.7.49,6.32-1.27,14.51-.64,7,.54,24.69,0,24.69,0a2.36,2.36,0,0,0,2.36-2.36s2.4-7.84,1.26-21.84a299.92,299.92,0,0,1-.18-39c.12-2.13-1.08-11.71-1.08-11.71a2.36,2.36,0,0,0-2.36-2.36,225,225,0,0,0-22.59-.89c-13.54.07-19.24-1.32-29-1.15-23.52.41-28.37,2-28.37,2C239.78,8.19,237.64,10.33,237.64,11.63Z"/><path class="cls-4" d="M478.55,366.78s.41,15.31.51,19.63c.16,7.53.4,14.39.06,27.15-.28,10.69-.57,23.62-.57,23.62,0,3.42,1.92,3.23,4.59,3.48a33.36,33.36,0,0,1,4.07-.2c3.43.28,23.86.21,35.57.8,9.7.49,6.32-1.27,14.51-.64,7,.54,24.69,0,24.69,0a2.36,2.36,0,0,0,2.36-2.36s2.4-7.84,1.26-21.84a299.92,299.92,0,0,1-.18-39c.12-2.13-1.08-11.71-1.08-11.71a2.36,2.36,0,0,0-2.36-2.36,225,225,0,0,0-22.59-.89c-13.54.07-19.24-1.32-29-1.15-23.52.41-28.37,2-28.37,2C480.68,363.34,478.55,365.48,478.55,366.78Z"/><path class="cls-10" d="M705,702.91s-.41-15.31-.51-19.63a311.17,311.17,0,0,1,1-32.55,182.34,182.34,0,0,0-.51-19.31,2.36,2.36,0,0,0-2.36-2.36s-15.35-2.07-47-2.07c-10.93,0-40.34,2-52.05,1.42-9.7-.49-24.66,1.27-32.85.64-7-.54-24.69,0-24.69,0a2.36,2.36,0,0,0-2.36,2.36s-2.4,7.84-1.26,21.84a313.23,313.23,0,0,1,.18,39c-.12,2.13,1.08,11.71,1.08,11.71a2.36,2.36,0,0,0,2.36,2.36,225,225,0,0,0,22.59.89c5.79,0,14.85-1.93,24.72-1.8,13.2.17,27.84,2.28,38,1,8.92-1.11,33.71,1.21,46.78,1,6.12-.11,23.38-1.08,23.38-1.08C702.9,706.34,705,704.21,705,702.91Z"/><path class="cls-9" d="M532.17,701.76s-.41-15.31-.51-19.63c-.4-18.52-.11-25.38-.06-27.15.28-10.69.57-23.62.57-23.62,0-3.42-1.92-3.23-4.59-3.48a33.36,33.36,0,0,1-4.07.2c-3.43-.28-13.22-1.71-38.54-.07-10.91.71-17.68-.15-29.4-.73-9.7-.49-6.32,1.27-14.51.64-7-.54-24.69,0-24.69,0a2.36,2.36,0,0,0-2.36,2.36s-2.4,7.84-1.26,21.84a313.23,313.23,0,0,1,.18,39c-.12,2.13,1.08,11.71,1.08,11.71a2.36,2.36,0,0,0,2.36,2.36,225,225,0,0,0,22.59.89c13.54-.07,19.24,1.32,29,1.15,23.52-.41,26.44-.73,39.5-1,6.12-.11,21.22-1.08,21.22-1.08C530,705.19,532.17,703.06,532.17,701.76Z"/><path class="cls-4" d="M403.42,701.76s-.41-15.31-.51-19.63c-.4-18.52-.11-25.38-.06-27.15.28-10.69.57-23.62.57-23.62,0-3.42-1.92-3.23-4.59-3.48a33.36,33.36,0,0,1-4.07.2c-3.43-.28-23.86-.21-35.57-.8-9.7-.49-6.32,1.27-14.51.64-7-.54-24.69,0-24.69,0a2.36,2.36,0,0,0-2.36,2.36s-2.4,7.84-1.26,21.84a313.23,313.23,0,0,1,.18,39c-.12,2.13,1.08,11.71,1.08,11.71a2.36,2.36,0,0,0,2.36,2.36,225,225,0,0,0,22.59.89c13.54-.07,19.24,1.32,29,1.15,23.52-.41,28.37-2,28.37-2C401.28,705.19,403.42,703.06,403.42,701.76Z"/><path class="cls-9" d="M336.57,454.66s.41,15.31.51,19.63c.16,7.53.4,14.39.06,27.15-.28,10.69-.57,23.62-.57,23.62,0,3.42,1.92,3.23,4.59,3.48a33.36,33.36,0,0,1,4.07-.2c3.43.28,23.86.21,35.57.8,9.7.49,6.32-1.27,14.51-.64,7,.54,24.69,0,24.69,0a2.36,2.36,0,0,0,2.36-2.36s2.4-7.84,1.26-21.84a299.92,299.92,0,0,1-.18-39c.12-2.13-1.08-11.71-1.08-11.71a2.36,2.36,0,0,0-2.36-2.36,225,225,0,0,0-22.59-.89c-13.54.07-19.24-1.32-29-1.15-23.52.41-28.37,2-28.37,2C338.7,451.23,336.57,453.36,336.57,454.66Z"/><path class="cls-4" d="M111,454.29s.41,15.31.51,19.63c.16,7.53.4,14.39.06,27.15-.28,10.69-.57,23.62-.57,23.62,0,3.42,1.92,3.23,4.59,3.48a33.36,33.36,0,0,1,4.07-.2c3.43.28,23.86.21,35.57.8,9.7.49,6.32-1.27,14.51-.64,7,.54,24.69,0,24.69,0a2.36,2.36,0,0,0,2.36-2.36s2.4-7.84,1.26-21.84a299.92,299.92,0,0,1-.18-39c.12-2.13-1.08-11.71-1.08-11.71a2.36,2.36,0,0,0-2.36-2.36,225,225,0,0,0-22.59-.89c-13.54.07-19.24-1.32-29-1.15-23.52.41-28.37,2-28.37,2C113.16,450.85,111,453,111,454.29Z"/><path class="cls-4" d="M187.26,631.38s.41,15.31.51,19.63c.16,7.53.4,14.39.06,27.15,0-.3,0-.3-.57,23.62,0,3.42,1.92,3.23,4.59,3.48a33.36,33.36,0,0,1,4.07-.2c3.43.28,13.22,1.71,38.54.07,10.91-.71,17.68.15,29.4.73,9.7.49,6.32-1.27,14.51-.64,7,.54,24.69,0,24.69,0a2.36,2.36,0,0,0,2.36-2.36s2.4-7.84,1.26-21.84c-2.12-25.94,0-41.45-.18-39,.12-2.13-1.08-11.71-1.08-11.71a2.36,2.36,0,0,0-2.36-2.36,225,225,0,0,0-22.59-.89c-13.54.07-19.24-1.32-29-1.15-23.52.41-26.44.73-39.5,1-6.12.11-21.22,1.08-21.22,1.08C189.4,627.95,187.26,630.08,187.26,631.38Z"/><path class="cls-5" d="M91.81,631s.41,15.31.51,19.63c.16,7.53.4,14.39.06,27.15,0-.3,0-.3-.57,23.62,0,3.42,1.92,3.23,4.59,3.48a33.36,33.36,0,0,1,4.07-.2c3.43.28,23.86.21,35.57.8,9.7.49,6.32-1.27,14.51-.64,7,.54,24.69,0,24.69,0a2.36,2.36,0,0,0,2.36-2.36s2.4-7.84,1.26-21.84c-2.12-25.94,0-41.45-.18-39,.12-2.13-1.08-11.71-1.08-11.71a2.36,2.36,0,0,0-2.36-2.36,225,225,0,0,0-22.59-.89c-13.54.07-19.24-1.32-29-1.15-23.52.41-28.37,2-28.37,2C93.94,627.57,91.81,629.7,91.81,631Z"/><path class="cls-7" d="M106.63,542.93s.41,15.31.51,19.63c.16,7.53-.68,19.78-1,32.55a182.34,182.34,0,0,0,.51,19.31,2.36,2.36,0,0,0,2.36,2.36s15.35,2.07,47,2.07c10.93,0,40.34-2,52.05-1.42,9.7.49,24.66-1.27,32.85-.64,7,.54,24.69,0,24.69,0a2.36,2.36,0,0,0,2.36-2.36s2.4-7.84,1.26-21.84a299.92,299.92,0,0,1-.18-39c.12-2.13-1.08-11.71-1.08-11.71a2.36,2.36,0,0,0-2.36-2.36,225,225,0,0,0-22.59-.89c-13.54.07-31.57,1.18-49.54,1-23.52-.23-46.93-1.43-60-1.19-6.12.11-23.38,1.08-23.38,1.08C108.76,539.5,106.63,541.63,106.63,542.93Z"/><path class="cls-4" d="M406.84,542.93s.41,15.31.51,19.63c.16,7.53-.68,19.78-1,32.55a182.34,182.34,0,0,0,.51,19.31,2.36,2.36,0,0,0,2.36,2.36s15.35,2.07,47,2.07c10.93,0,40.34-2,52.05-1.42,9.7.49,24.66-1.27,32.85-.64,7,.54,24.69,0,24.69,0a2.36,2.36,0,0,0,2.36-2.36s2.4-7.84,1.26-21.84a299.92,299.92,0,0,1-.18-39c.12-2.13-1.08-11.71-1.08-11.71a2.36,2.36,0,0,0-2.36-2.36,225,225,0,0,0-22.59-.89c-5.79,0-14.85,1.93-24.72,1.8-13.2-.17-27.84-2.28-38-1-8.92,1.11-33.71-1.21-46.78-1-6.12.11-23.38,1.08-23.38,1.08C409,539.5,406.84,541.63,406.84,542.93Z"/><path class="cls-9" d="M898.59,502.68a299.91,299.91,0,0,1-.18-39c.12-2.13-1.08-11.71-1.08-11.71A2.36,2.36,0,0,0,895,449.6s-18.88-1.15-32.42-1.08S828,449.63,815.1,449.7c-23.52.12-30.56-1.41-43.63-1.17a116,116,0,0,0-11.57,1.23c-7.39.32-16.81.85-16.81.85-1.3,0-3.43,2.13-3.43,3.43,0,0,.41,15.31.51,19.63.16,7.53-.68,19.78-1,32.55a182.35,182.35,0,0,0,.51,19.31,2.36,2.36,0,0,0,2.36,2.36,128.65,128.65,0,0,0,18.44,2.07c9.76.48,23.41,0,28.56,0,10.93,0,27.48-.49,43.42-.35,9.72.09,28.44-.29,36.63.35a46.08,46.08,0,0,0,11.53-1c5.15-.32,10.24-1.2,13.79-1.47a3.59,3.59,0,0,0,2.94-2.94S899.73,516.68,898.59,502.68Z"/><path class="cls-4" d="M879.37,668.4c-1.23-15-.65-19.49-.18-28,.12-2.13-1.08-11.71-1.08-11.71a2.36,2.36,0,0,0-2.36-2.36s-18.88-1.15-32.42-1.08-34.51,1.11-47.45,1.18c-23.52.12-30.56-1.41-43.63-1.17-3.2.06-9.45.62-14.68,1.15-7.55.3-18.7.93-18.7.93-1.3,0-3.43,2.13-3.43,3.43,0,0,.41,15.31.51,19.63-.07-3.47-.39,8.79-1,32.55a182.35,182.35,0,0,0,.51,19.31,2.36,2.36,0,0,0,2.36,2.36,128.66,128.66,0,0,0,18.44,2.07c9.76.48,23.41,0,28.56,0,10.93,0,27.48-.49,43.42-.35,9.72.09,28.44-.29,36.63.35,5.11.4,10.85-.36,15.55-1,5.47-.26,11-1.24,14.77-1.52a3.59,3.59,0,0,0,2.94-2.94S880.51,682.4,879.37,668.4Z"/><path class="cls-7" d="M896.19,592.58a299.92,299.92,0,0,1-.18-39c.12-2.13-1.08-11.71-1.08-11.71a2.36,2.36,0,0,0-2.36-2.36,225,225,0,0,0-22.59-.89c-13.54.07-19.24-1.32-29-1.15-23.52.41-26.44.73-39.5,1-4.68.08-14.62.67-19,.94l-3,.06c-6.12.11-21.22,1.08-21.22,1.08-1.3,0-3.43,2.13-3.43,3.43,0,0,.41,15.31.51,19.63.16,7.53.4,14.39.06,27.15-.28,10.69-.57,23.62-.57,23.62,0,3.42,1.92,3.23,4.59,3.48a33.35,33.35,0,0,1,4.07-.2c3.43.28,13.22,1.71,38.54.07l4.13-.25c3.29,0,7.06-.16,11.35-.38,4.18,0,8.53.09,13.92.36,8.64.43,6.91-.12,12.21.2,3,.31,6.14.62,9.79.8,9.7.49,13.32-1.27,21.51-.64,7,.54,17.68-1,17.68-1a2.36,2.36,0,0,0,2.36-2.36S897.33,606.58,896.19,592.58Z"/><path class="cls-9" d="M98.34,502.68a299.91,299.91,0,0,1-.18-39c.12-2.13-1.08-11.71-1.08-11.71a2.36,2.36,0,0,0-2.36-2.36s-18.88-1.15-32.42-1.08-34.51,1.11-47.45,1.18c-23.52.12-30.56-1.41-43.63-1.17a116,116,0,0,0-11.57,1.23c-7.39.32-16.81.85-16.81.85-1.3,0-3.43,2.13-3.43,3.43,0,0,.41,15.31.51,19.63.16,7.53-.68,19.78-1,32.55a182.35,182.35,0,0,0,.51,19.31,2.36,2.36,0,0,0,2.36,2.36,128.65,128.65,0,0,0,18.44,2.07c9.76.48,23.41,0,28.56,0,10.93,0,27.48-.49,43.42-.35,9.72.09,28.44-.29,36.63.35a46.08,46.08,0,0,0,11.53-1c5.15-.32,10.24-1.2,13.79-1.47a3.59,3.59,0,0,0,2.94-2.94S99.49,516.68,98.34,502.68Z"/><path class="cls-4" d="M434.86,100.07s.41,15.31.51,19.63c.16,7.53-.68,19.78-1,32.55a182.34,182.34,0,0,0,.51,19.31,2.36,2.36,0,0,0,2.36,2.36s15.35,2.07,47,2.07c10.93,0,40.34-2,52.05-1.42,9.7.49,24.66-1.27,32.85-.64,7,.54,24.69,0,24.69,0a2.36,2.36,0,0,0,2.36-2.36s2.4-7.84,1.26-21.84a299.92,299.92,0,0,1-.18-39c.12-2.13-1.08-11.71-1.08-11.71a2.36,2.36,0,0,0-2.36-2.36,225,225,0,0,0-22.59-.89c-5.79,0-14.85,1.93-24.72,1.8-13.2-.17-27.84-2.28-38-1-8.92,1.11-33.71-1.21-46.78-1-6.12.11-23.38,1.08-23.38,1.08C437,96.63,434.86,98.77,434.86,100.07Z"/><path class="cls-8" d="M206.49,101s.41,15.31.51,19.63c.16,7.53.4,14.39.06,27.15-.28,10.69-.57,23.62-.57,23.62,0,3.42,1.92,3.23,4.59,3.48a33.36,33.36,0,0,1,4.07-.2c3.43.28,13.22,1.71,38.54.07,10.91-.71,17.68.15,29.4.73,9.7.49,6.32-1.27,14.51-.64,7,.54,24.69,0,24.69,0a2.36,2.36,0,0,0,2.36-2.36s2.4-7.84,1.26-21.84a299.92,299.92,0,0,1-.18-39c.12-2.13-1.08-11.71-1.08-11.71a2.36,2.36,0,0,0-2.36-2.36,225,225,0,0,0-22.59-.89c-13.54.07-19.24-1.32-29-1.15-23.52.41-26.44.73-39.5,1-6.12.11-21.22,1.08-21.22,1.08C208.62,97.59,206.49,99.73,206.49,101Z"/><path class="cls-7" d="M608.08,101.51s.41,15.31.51,19.63c.16,7.53.4,14.39.06,27.15-.28,10.69-.57,23.62-.57,23.62,0,3.42,1.92,3.23,4.59,3.48a33.36,33.36,0,0,1,4.07-.2c3.43.28,13.22,1.71,38.54.07,10.91-.71,17.68.15,29.4.73,9.7.49,6.32-1.27,14.51-.64,7,.54,24.69,0,24.69,0a2.36,2.36,0,0,0,2.36-2.36s2.4-7.84,1.26-21.84a299.92,299.92,0,0,1-.18-39c.12-2.13-1.08-11.71-1.08-11.71a2.36,2.36,0,0,0-2.36-2.36,225,225,0,0,0-22.59-.89c-13.54.07-19.24-1.32-29-1.15-23.52.41-26.44.73-39.5,1-6.12.11-21.22,1.08-21.22,1.08C610.22,98.08,608.08,100.21,608.08,101.51Z"/><path class="cls-9" d="M336.57,101s.41,15.31.51,19.63c.16,7.53.4,14.39.06,27.15-.28,10.69-.57,23.62-.57,23.62,0,3.42,1.92,3.23,4.59,3.48a33.36,33.36,0,0,1,4.07-.2c3.43.28,23.86.21,35.57.8,9.7.49,6.32-1.27,14.51-.64,7,.54,24.69,0,24.69,0a2.36,2.36,0,0,0,2.36-2.36s2.4-7.84,1.26-21.84a299.92,299.92,0,0,1-.18-39c.12-2.13-1.08-11.71-1.08-11.71A2.36,2.36,0,0,0,420,97.59a225,225,0,0,0-22.59-.89c-13.54.07-19.24-1.32-29-1.15-23.52.41-28.37,2-28.37,2C338.7,97.59,336.57,99.73,336.57,101Z"/><path class="cls-4" d="M111,100.65s.41,15.31.51,19.63c.16,7.53.4,14.39.06,27.15-.28,10.69-.57,23.62-.57,23.62,0,3.42,1.92,3.23,4.59,3.48a33.36,33.36,0,0,1,4.07-.2c3.43.28,23.86.21,35.57.8,9.7.49,6.32-1.27,14.51-.64,7,.54,24.69,0,24.69,0a2.36,2.36,0,0,0,2.36-2.36s2.4-7.84,1.26-21.84a299.92,299.92,0,0,1-.18-39c.12-2.13-1.08-11.71-1.08-11.71a2.36,2.36,0,0,0-2.36-2.36,225,225,0,0,0-22.59-.89c-13.54.07-19.24-1.32-29-1.15-23.52.41-28.37,2-28.37,2C113.16,97.22,111,99.35,111,100.65Z"/><path class="cls-9" d="M898.59,149a299.91,299.91,0,0,1-.18-39c.12-2.13-1.08-11.71-1.08-11.71A2.36,2.36,0,0,0,895,96s-18.88-1.15-32.42-1.08S828,96,815.1,96.06c-23.52.12-30.56-1.41-43.63-1.17a116,116,0,0,0-11.57,1.23c-7.39.32-16.81.85-16.81.85-1.3,0-3.43,2.13-3.43,3.43,0,0,.41,15.31.51,19.63.16,7.53-.68,19.78-1,32.55a182.35,182.35,0,0,0,.51,19.31,2.36,2.36,0,0,0,2.36,2.36,128.65,128.65,0,0,0,18.44,2.07c9.76.48,23.41,0,28.56,0,10.93,0,27.48-.49,43.42-.35,9.72.09,28.44-.29,36.63.35a46.08,46.08,0,0,0,11.53-1c5.15-.32,10.24-1.2,13.79-1.47a3.59,3.59,0,0,0,2.94-2.94S899.73,163,898.59,149Z"/><path class="cls-9" d="M98.34,149a299.91,299.91,0,0,1-.18-39c.12-2.13-1.08-11.71-1.08-11.71A2.36,2.36,0,0,0,94.73,96S75.85,94.81,62.3,94.88,27.79,96,14.85,96.06c-23.52.12-30.56-1.41-43.63-1.17a116,116,0,0,0-11.57,1.23c-7.39.32-16.81.85-16.81.85-1.3,0-3.43,2.13-3.43,3.43,0,0,.41,15.31.51,19.63.16,7.53-.68,19.78-1,32.55a182.35,182.35,0,0,0,.51,19.31,2.36,2.36,0,0,0,2.36,2.36,128.65,128.65,0,0,0,18.44,2.07c9.76.48,23.41,0,28.56,0,10.93,0,27.48-.49,43.42-.35,9.72.09,28.44-.29,36.63.35a46.08,46.08,0,0,0,11.53-1c5.15-.32,10.24-1.2,13.79-1.47a3.59,3.59,0,0,0,2.94-2.94S99.49,163,98.34,149Z"/><path class="cls-4" d="M79.12,668.4c-1.23-15-.65-19.49-.18-28,.12-2.13-1.08-11.71-1.08-11.71a2.36,2.36,0,0,0-2.36-2.36s-18.88-1.15-32.42-1.08-34.51,1.11-47.45,1.18c-23.52.12-30.56-1.41-43.63-1.17-3.2.06-9.45.62-14.68,1.15-7.55.3-18.7.93-18.7.93-1.3,0-3.43,2.13-3.43,3.43,0,0,.41,15.31.51,19.63-.07-3.47-.39,8.79-1,32.55a182.35,182.35,0,0,0,.51,19.31,2.36,2.36,0,0,0,2.36,2.36A128.66,128.66,0,0,0-64,706.65c9.76.48,23.41,0,28.56,0,10.93,0,27.48-.49,43.42-.35,9.72.09,28.44-.29,36.63.35,5.11.4,10.85-.36,15.55-1,5.47-.26,11-1.24,14.77-1.52a3.59,3.59,0,0,0,2.94-2.94S80.26,682.4,79.12,668.4Z"/><path class="cls-7" d="M95.94,592.58a299.92,299.92,0,0,1-.18-39c.12-2.13-1.08-11.71-1.08-11.71a2.36,2.36,0,0,0-2.36-2.36,225,225,0,0,0-22.59-.89c-13.54.07-19.24-1.32-29-1.15-23.52.41-26.44.73-39.5,1-4.68.08-14.62.67-19,.94l-3,.06c-6.12.11-21.22,1.08-21.22,1.08-1.3,0-3.43,2.13-3.43,3.43,0,0,.41,15.31.51,19.63.16,7.53.4,14.39.06,27.15-.28,10.69-.57,23.62-.57,23.62,0,3.42,1.92,3.23,4.59,3.48a33.35,33.35,0,0,1,4.07-.2c3.43.28,13.22,1.71,38.54.07l4.13-.25c3.29,0,7.06-.16,11.35-.38,4.18,0,8.53.09,13.92.36,8.64.43,6.91-.12,12.21.2,3,.31,6.14.62,9.79.8,9.7.49,13.32-1.27,21.51-.64,7,.54,17.68-1,17.68-1a2.36,2.36,0,0,0,2.36-2.36S97.09,606.58,95.94,592.58Z"/><path class="cls-5" d="M278.06,542.93s.41,15.31.51,19.63c.16,7.53.4,14.39.06,27.15-.28,10.69-.57,23.62-.57,23.62,0,3.42,1.92,3.23,4.59,3.48a33.36,33.36,0,0,1,4.07-.2c3.43.28,13.22,1.71,38.54.07,10.91-.71,17.68.15,29.4.73,9.7.49,6.32-1.27,14.51-.64,7,.54,24.69,0,24.69,0a2.36,2.36,0,0,0,2.36-2.36s2.4-7.84,1.26-21.84a299.92,299.92,0,0,1-.18-39c.12-2.13-1.08-11.71-1.08-11.71a2.36,2.36,0,0,0-2.36-2.36,225,225,0,0,0-22.59-.89c-13.54.07-19.24,1.91-29,2.08-23.52.41-26.44-2.51-39.5-2.27-6.12.11-21.22,1.08-21.22,1.08C280.19,539.5,278.06,541.63,278.06,542.93Z"/><path class="cls-9" d="M566,189.19s.41,15.31.51,19.63c.16,7.53-.68,19.78-1,32.55a182.34,182.34,0,0,0,.51,19.31,2.36,2.36,0,0,0,2.36,2.36s15.35,2.07,47,2.07c10.93,0,40.34-2,52.05-1.42,9.7.49,24.66-1.27,32.85-.64,7,.54,24.69,0,24.69,0a2.36,2.36,0,0,0,2.36-2.36s2.4-7.84,1.26-21.84a299.92,299.92,0,0,1-.18-39c.12-2.13-1.08-11.71-1.08-11.71a2.36,2.36,0,0,0-2.36-2.36,225,225,0,0,0-22.59-.89c-13.54.07-31.57,1.18-49.54,1-23.52-.23-46.93-1.43-60-1.19-6.12.11-23.38,1.08-23.38,1.08C568.1,185.76,566,187.89,566,189.19Z"/><path class="cls-7" d="M274.32,189.19s.41,15.31.51,19.63c.16,7.53-.68,19.78-1,32.55a182.34,182.34,0,0,0,.51,19.31,2.36,2.36,0,0,0,2.36,2.36,128.65,128.65,0,0,0,18.44,2.07c9.76.48,23.41,0,28.56,0,10.93,0,27.48-.49,43.42-.35,9.72.09,28.44-.29,36.63.35,7,.54,15.24-1.1,20.32-1.48a3.59,3.59,0,0,0,2.94-2.94s2.4-7.84,1.26-21.84a299.92,299.92,0,0,1-.18-39c.12-2.13-1.08-11.71-1.08-11.71a2.36,2.36,0,0,0-2.36-2.36s-18.88-1.15-32.42-1.08-34.52,1.11-47.45,1.18c-23.52.12-30.56-1.41-43.63-1.17-6.12.11-23.38,1.08-23.38,1.08C276.45,185.76,274.32,187.89,274.32,189.19Z"/><path class="cls-11" d="M116.42,190.19s.41,14.31.51,18.63c.16,7.53,1.48,14.39,1.14,27.15-.28,10.69-1.65,23.62-1.65,23.62,0,3.42,1.92,3.23,4.59,3.48a33.36,33.36,0,0,1,4.07-.2c3.43.28,15.37,1.71,40.69.07,10.91-.71,40.34.15,52.05.73,9.7.49,11.72-1.27,19.91-.64,7,.54,24.69,0,24.69,0a2.36,2.36,0,0,0,2.36-2.36s2.4-7.84,1.26-21.84a299.92,299.92,0,0,1-.18-39c.12-2.13-1.08-11.71-1.08-11.71a2.36,2.36,0,0,0-2.36-2.36,225,225,0,0,0-22.59-.89c-13.54.07-29.42,2.26-47.38,2.08-23.52-.23-36.14-2.51-49.21-2.27-6.12.11-20.38,1.08-20.38,1.08C121.56,185.76,116.42,185.66,116.42,190.19Z"/><path class="cls-4" d="M437.12,189.19s.41,15.31.51,19.63c.16,7.53.4,14.39.06,27.15-.28,10.69-.57,23.62-.57,23.62,0,3.42,1.92,3.23,4.59,3.48a33.36,33.36,0,0,1,4.07-.2c3.43.28,13.22,1.71,38.54.07,10.91-.71,17.68.15,29.4.73,9.7.49,6.32-1.27,14.51-.64,7,.54,24.69,0,24.69,0a2.36,2.36,0,0,0,2.36-2.36s2.4-7.84,1.26-21.84a299.92,299.92,0,0,1-.18-39c.12-2.13-1.08-11.71-1.08-11.71a2.36,2.36,0,0,0-2.36-2.36,225,225,0,0,0-22.59-.89c-13.54.07-19.24-1.32-29-1.15-23.52.41-26.44.73-39.5,1-6.12.11-12.08,1.59-17.21.83C442.47,185.2,437.94,184,437.12,189.19Z"/><path class="cls-4" d="M737.4,189.19s.41,15.31.51,19.63c.16,7.53.4,14.39.06,27.15-.28,10.69-.57,23.62-.57,23.62,0,3.42,1.92,3.23,4.59,3.48a33.36,33.36,0,0,1,4.07-.2c3.43.28,13.22,1.71,38.54.07,10.91-.71,17.68.15,29.4.73,9.7.49,6.32-1.27,14.51-.64,7,.54,24.69,0,24.69,0a2.36,2.36,0,0,0,2.36-2.36s2.4-7.84,1.26-21.84a299.92,299.92,0,0,1-.18-39c.12-2.13-1.08-11.71-1.08-11.71a2.36,2.36,0,0,0-2.36-2.36,225,225,0,0,0-22.59-.89c-13.54.07-19.24,1.91-29,2.08-23.52.41-26.44-2.51-39.5-2.27-6.12.11-21.22,1.08-21.22,1.08C739.53,185.76,737.4,187.89,737.4,189.19Z"/><path class="cls-4" d="M109.54,240.09a299.91,299.91,0,0,1-.18-39c.12-2.13-1.08-11.71-1.08-11.71a2.36,2.36,0,0,0-2.36-2.36,225,225,0,0,0-22.59-.89c-13.54.07-19.24-1.32-29-1.15-3.47.06-6.53.15-9.24.25-3.87-.21-9.07-.39-15.21-.35-13.54.07-19.24,1.91-29,2.08-23.52.41-26.44-2.51-39.5-2.27-6.12.11-21.22,1.08-21.22,1.08-1.3,0-3.43,2.13-3.43,3.43,0,0,.41,15.31.51,19.63.16,7.53.4,14.39.06,27.15-.28,10.69-.57,23.62-.57,23.62,0,3.42,1.92,3.23,4.59,3.48a33.35,33.35,0,0,1,4.07-.2c3.43.28,13.22,1.71,38.54.07,10.91-.71,17.68.15,29.4.73,9.7.49,14.32.73,22.51,1.36a45,45,0,0,0,9.93-.62c7,.09,15.15.22,21,.52,9.7.49,6.32-1.27,14.51-.64,7,.54,24.68,0,24.68,0a2.36,2.36,0,0,0,2.36-2.36S110.69,254.09,109.54,240.09Z"/><path class="cls-9" d="M566,721s.41,15.31.51,19.63c.16,7.53-.68,19.78-1,32.55a182.34,182.34,0,0,0,.51,19.31,2.36,2.36,0,0,0,2.36,2.36s15.35,2.07,47,2.07c10.93,0,40.34-2,52.05-1.42,9.7.49,24.66-1.27,32.85-.64,7,.54,24.69,0,24.69,0a2.36,2.36,0,0,0,2.36-2.36s2.4-7.84,1.26-21.84a299.92,299.92,0,0,1-.18-39c.12-2.13-1.08-11.71-1.08-11.71a2.36,2.36,0,0,0-2.36-2.36,225,225,0,0,0-22.59-.89c-13.54.07-31.57,1.18-49.54,1-23.52-.23-46.93-1.43-60-1.19-6.12.11-23.38,1.08-23.38,1.08C568.1,717.61,566,719.75,566,721Z"/><path class="cls-7" d="M274.32,721s.41,15.31.51,19.63c.16,7.53-.68,19.78-1,32.55a182.34,182.34,0,0,0,.51,19.31,2.36,2.36,0,0,0,2.36,2.36A128.65,128.65,0,0,0,295.12,797c9.76.48,23.41,0,28.56,0,10.93,0,27.48-.49,43.42-.35,9.72.09,28.44-.29,36.63.35,7,.54,15.24-1.1,20.32-1.48a3.59,3.59,0,0,0,2.94-2.94s2.4-7.84,1.26-21.84a299.92,299.92,0,0,1-.18-39C428.18,729.55,427,720,427,720a2.36,2.36,0,0,0-2.36-2.36s-18.88-1.15-32.42-1.08-34.52,1.11-47.45,1.18c-23.52.12-30.56-1.41-43.63-1.17-6.12.11-23.38,1.08-23.38,1.08C276.45,717.61,274.32,719.75,274.32,721Z"/><path class="cls-11" d="M116.42,722s.41,14.31.51,18.63c.16,7.53,1.48,14.39,1.14,27.15-.28,10.69-1.65,23.62-1.65,23.62,0,3.42,1.92,3.23,4.59,3.48a33.36,33.36,0,0,1,4.07-.2c3.43.28,15.37,1.71,40.69.07,10.91-.71,40.34.15,52.05.73,9.7.49,11.72-1.27,19.91-.64,7,.54,24.69,0,24.69,0a2.36,2.36,0,0,0,2.36-2.36s2.4-7.84,1.26-21.84a299.92,299.92,0,0,1-.18-39c.12-2.13-1.08-11.71-1.08-11.71a2.36,2.36,0,0,0-2.36-2.36,225,225,0,0,0-22.59-.89c-13.54.07-29.42,2.26-47.38,2.08-23.52-.23-36.14-2.51-49.21-2.27-6.12.11-20.38,1.08-20.38,1.08C121.56,717.61,116.42,717.52,116.42,722Z"/><path class="cls-4" d="M437.12,721s.41,15.31.51,19.63c.16,7.53.4,14.39.06,27.15-.28,10.69-.57,23.62-.57,23.62,0,3.42,1.92,3.23,4.59,3.48a33.36,33.36,0,0,1,4.07-.2c3.43.28,13.22,1.71,38.54.07,10.91-.71,17.68.15,29.4.73,9.7.49,6.32-1.27,14.51-.64,7,.54,24.69,0,24.69,0a2.36,2.36,0,0,0,2.36-2.36s2.4-7.84,1.26-21.84a299.92,299.92,0,0,1-.18-39c.12-2.13-1.08-11.71-1.08-11.71a2.36,2.36,0,0,0-2.36-2.36,225,225,0,0,0-22.59-.89c-13.54.07-19.24-1.32-29-1.15-23.52.41-26.44.73-39.5,1-6.12.11-12.08,1.59-17.21.83C442.47,717.06,437.94,715.88,437.12,721Z"/><path class="cls-4" d="M737.4,721s.41,15.31.51,19.63c.16,7.53.4,14.39.06,27.15-.28,10.69-.57,23.62-.57,23.62,0,3.42,1.92,3.23,4.59,3.48a33.36,33.36,0,0,1,4.07-.2c3.43.28,13.22,1.71,38.54.07,10.91-.71,17.68.15,29.4.73,9.7.49,6.32-1.27,14.51-.64,7,.54,24.69,0,24.69,0a2.36,2.36,0,0,0,2.36-2.36s2.4-7.84,1.26-21.84a299.92,299.92,0,0,1-.18-39c.12-2.13-1.08-11.71-1.08-11.71a2.36,2.36,0,0,0-2.36-2.36,225,225,0,0,0-22.59-.89c-13.54.07-19.24,1.91-29,2.08-23.52.41-26.44-2.51-39.5-2.27-6.12.11-21.22,1.08-21.22,1.08C739.53,717.61,737.4,719.75,737.4,721Z"/><path class="cls-4" d="M109.54,771.95a299.91,299.91,0,0,1-.18-39c.12-2.13-1.08-11.71-1.08-11.71a2.36,2.36,0,0,0-2.36-2.36A225,225,0,0,0,83.34,718c-13.54.07-19.24-1.32-29-1.15-3.47.06-6.53.15-9.24.25-3.87-.21-9.07-.39-15.21-.35-13.54.07-19.24,1.91-29,2.08-23.52.41-26.44-2.51-39.5-2.27-6.12.11-21.22,1.08-21.22,1.08-1.3,0-3.43,2.13-3.43,3.43,0,0,.41,15.31.51,19.63.16,7.53.4,14.39.06,27.15-.28,10.69-.57,23.62-.57,23.62,0,3.42,1.92,3.23,4.59,3.48a33.35,33.35,0,0,1,4.07-.2c3.43.28,13.22,1.71,38.54.07,10.91-.71,17.68.15,29.4.73,9.7.49,14.32.73,22.51,1.36a45,45,0,0,0,9.93-.62c7,.09,15.15.22,21,.52,9.7.49,6.32-1.27,14.51-.64,7,.54,24.68,0,24.68,0a2.36,2.36,0,0,0,2.36-2.36S110.69,785.95,109.54,771.95Z"/></g></svg>