<svg id="Layer_34_copy" data-name="Layer 34 copy" xmlns="http://www.w3.org/2000/svg" xmlns:xlink="http://www.w3.org/1999/xlink" viewBox="0 0 800 800"><defs><style>.cls-1{fill:none;}.cls-2{clip-path:url(#clip-path);}.cls-3{fill:#d7b677;}.cls-4{fill:#d3be8a;}.cls-5{fill:#caaf71;}.cls-6{fill:#dec28e;}.cls-7{fill:#e2c9a1;}</style><clipPath id="clip-path"><rect class="cls-1" width="800" height="800"/></clipPath></defs><title>sand</title><g class="cls-2"><rect class="cls-3" width="800" height="800"/><path class="cls-4" d="M-24.88,771.58s12.5-3.59,16.77-3.34c17.31,1,41.95,10.45,69,10.45s49.77,2.35,91.72-3.8,101.18,1.2,123,8.78,88.16-1.21,107.36-7.71,69.72-16,108.78-10.17,162.11-.16,184.86-1.8,141.22,3.33,159.84,11.15S832.86,832,832.86,832H-18.59Z"/><path class="cls-4" d="M-10.12,720.73s31.27,1.83,59.15,3.19,77.5,6.12,100.62,5.44,58.47,1.49,78.86-4,56.43-10.86,75.47-10.22,72.07,8.85,87.7,5.76,64.59-6.49,95.86-14,86.31-16.28,112.89-5.57,96.39,19.37,110.43,18.13,75.86-.83,107.93,4.13S829,745.49,829,745.49l-69.37-7L599.78,726.91l-132.56-.83L337.56,745.49l-103.65-4.13-99.52,12L-10.12,735.58Z"/><path class="cls-4" d="M-8,672.38c16.72,4.49,36.5,4,64.53,2.71s67.1-.55,92.6.36,93.13-1,129.15-8.16S367.75,652.12,398,653s60,7,76.55,5.71,64.57-2.46,83.26-7.05S636,636,668.26,637.29s51.4,8.92,65.42,16.57,70.52,22.83,81.14,22.46,0,19.06,0,19.06L699.7,681,558.24,666.28,396.39,686.14l-126.59,5.1-162.27,4.13L-7.17,681.89S-10,671.84-8,672.38Z"/><path class="cls-4" d="M-7.54,592.54c13.88-.68,29,3.46,48.31,17.16s67.48,18.79,78.91,18.79,61.62-2.79,99.54-3.49,75.56-3.43,106.23-12.8S420,588.63,444,586.12s63.64-2,91.47,7.6,59.65,11.64,80.56,7.46,80.46-10.86,128.9-10,69.07,2.5,69.07,2.5v16.06l-125.47,7.64-111,7.66-116.27-8.22L356.4,618.46,196.91,651.64l-85-9.6-122-27.2S-13.15,592.82-7.54,592.54Z"/><path class="cls-4" d="M-7,556.58s.34-9.48,2.66-11.19c7.23,5.09,25.09,1.77,40.15.3s63.17-9.45,93,2.36,47.82,23.62,65.83,25.68,49,2.36,75,0,107.75-14.17,147-26.27,92.54-24.1,120.81-26.66,66.06-5.4,87.31,5.17,39.26,23.26,65.83,23.26,69.63-3,98-3.14,21.57,15.84,21.57,15.84l-77,7.38L576.32,540.37,419.14,561,246.28,595.58,114.62,579.64Z"/><path class="cls-4" d="M-10.12,511.88-7,504.33s21.86,7.55,65.78,1.35,103.31-15.78,143.37-14.13,74.33,18.06,110.05,17.58,102.38-8.84,139.23-12.07S569,470.39,599.9,465.86s88.34-13.36,132.15,13,76.87,29.78,98.1,29.78,2.71,24.14,2.71,24.14l-71.74-15.36L562.73,487.88l-193.57,42L180.9,514.43Z"/><path class="cls-4" d="M-7,434l-.56-10.49,4.41-5.16s48,32.42,78.55,36.16,79,5.74,123.68-5.24,80.57-25.08,131.19-19,103.61,10.33,146,7.6,138.41-10.21,185.16-16.45S780.52,394.92,822.29,435s-16.21,33.85-16.21,33.85L651.47,440,400,460.77l-209.26,5.09L14.93,473.22Z"/><path class="cls-4" d="M-15.2,381.84s3.52-18.18,8.52-18.12c18,.24,25.49-5.17,89.34,10.1s95.28,32.23,135.38,27,111-29.48,164.5-34.16,132.4,1.77,160.48,5.07S729.59,365,729.59,365l98.63-2-3,27.33-245,7.73-189.06-7.73L235.46,414.86,136.1,422,53.29,390.27Z"/><path class="cls-4" d="M-32.55,323.05s18.83-4.74,29-4.83C21.17,318,56.47,316.55,98,315.72c58.65-1.17,109.59,12.59,144.77,15.31,28.9,2.23,70.61,2.91,98.69-2.44,31.1-5.93,80.43-22.34,114.32-20.51s118.9-9.36,158.28,2.13,82.67,13,128.26,9.85,90.51-1.44,90.51-1.44l-14.17,25.29L584.52,332.37,393.14,343.92l-128.34,19-106.19-19L32.8,339.3Z"/><path class="cls-4" d="M-12,277.32l5-8.38s35.46,4.57,56.67,3.64,114.24-10.72,147.42-10.72,70.72,4.9,115.87,3.81,109.34-12.51,156.67-16.32S579,250.3,604,251.73s77.79-.2,101.72,3.61S784,270,807.44,270s13.6,18.5,13.6,18.5H780.78l-151.23-12-182.78,3.81h-186L-10.12,290.7-12,275.32"/><path class="cls-4" d="M-15.83,208.58C2.23,211.64,62.66,223.24,103.42,223S290,195.74,333.35,199.24,453.12,200,482,190.36s76.06-22,132.21-9.43c0,0,80.77,29.75,117,28.34s86.13,2.29,91.84,6-19.42,19.21-19.42,19.21L565,207.06,391.18,216,222.83,234.48H-10.12S-22.36,207.48-15.83,208.58Z"/><path class="cls-4" d="M-5.72,159.57c18.68,7,77.88,7.28,101.84,7.58,25,.32,76.24,6.51,96.91,2s156.8-28.89,205.17-33,74.09.92,112.21-2.76,147.44-16.08,175.91-12.86,57.63,13.41,86.81,29.85,53.32,13.32,53.32,13.32l-11.52,12-99.67-9.47L543.48,147.77,382.72,157,222.88,189.82H100.25L-7.69,183.56S-11.36,157.46-5.72,159.57Z"/><path class="cls-4" d="M-7.69,71.61S8.83,72.18,45,89.7s61,33.11,101.48,29.2,90.26-11.51,126.91-9.66S403.92,84.1,449.18,79.84s114.26-16.1,153.67-7.33S706.56,65.2,752.2,68.83s66.49,5.59,66.49,5.59l-11,27.53L633.44,93.9l-238,12.27L258.48,137.81H93.55L-12,119.94Z"/><path class="cls-4" d="M-3.62,29.77c21.93,4.08,77-7.57,105.72-1.33s62,15.81,82.36,26.2,66.55,6.24,90.26-1.25S334.2,41.85,356.24,41.8s81.52-1.3,108.15-8,65.33-11.58,109-13.69S681.93,18.4,718.95,23s95.67,7.93,95.67,7.93L812.53,41.8,663.21,37.58,501,46.32,352.08,65.87,194.86,83.75l-95.25-27L-7.69,41.8S-6.31,29.27-3.62,29.77Z"/><path class="cls-5" d="M0,19.76C38.44,24.19,107.16,4.4,149.74,20s40.51,22.85,80,21.81,99.71-21.68,135-18.11,85.17,3.79,132.94-9.9C525.11,5.92,572.05,3.47,617.09,2.24c33.4-.91,65.75-2.49,88.31,2,53,10.54,118.4,23,126.71,11.58s0-82.05,0-82.05l-848.55,27S-22.18,17.21,0,19.76Z"/><path class="cls-5" d="M-6.19,34.24c26.26-.64,85-5.88,109.13-1.77s48.19,12.34,71.69,22.92,63.47,11.17,92.26,3.53,84.62-14.85,122.23-13,78.74-9.91,134-17.55,120.47-9.4,164-3.53,131.63,10,131.63,10V56.57s-65.23,2.35-87-2.35S635.93,41.29,583,47.16,419.09,76,381.48,78.9,306.85,91.24,261.6,89.47s-79.33,14.1-104,12.34S101.17,73,67.09,67.14,11.26,56.57-21.06,58.33-13,34.48-6.19,34.24Z"/><path class="cls-5" d="M-26.91,80A56,56,0,0,1-10.14,78C7,78.46,23.38,83.67,38.75,92.81c26.4,15.7,57.81,34.26,111.33,29.26s87.78-9.28,107.76-8.56,65.66-.71,132-16.41,120.61-25,189.12-20.7,119.18,2.91,148.44-1,91.27,6,91.27,6v69.94s-50.6-34.08-93.41-38.45-99.91,2.05-134.88-1.51-82.07-6.42-119.18-2.14-122,19.27-151.29,30-111.33,15-142.73,9.28S88.7,152.75,40.89,147,1.67,140.52-15.2,131.83C-24.92,126.83-26.91,80-26.91,80Z"/><path class="cls-5" d="M-9.34,164c40.62,12.67,91.56,8.16,126.76,9.87s105.58,2.58,151.94-10.3,131.34-26.61,170.82-24,88.27-3.14,161.31-10.59,116.81-4.87,150.29,18.31,74.68,21.46,74.68,21.46v37.77s-51.5-8.58-74.68-14.59-61.8,0-91.85-13.73S582.67,157,539.75,165.84s-94.42,18.31-138.63,9.73-88.84-1.72-115.45,10.3-121,24-155.37,20.6S60.93,215-17.18,198.67-15.18,162.15-9.34,164Z"/><path class="cls-5" d="M-7.74,216.65s8.5-2.22,53.22,7.37,97.42,7,146.93-3.29,117.39-18.27,160.51-18.27,91,4,133.36-7.19,104.61-19.17,153.32-.8,105.41,24,135.75,20.76S840,230,840,230l-21.34,30s-61.7-8.78-100-12.78-152.52-15.71-174.08-22.23S471.11,220.82,432,239.19,335.35,256.76,293,244.78s-89.44-4-131.76,9.58S39.46,266.24-13.48,255C-23,252.94-7.74,216.65-7.74,216.65Z"/><path class="cls-5" d="M-4.29,275.45s69.73,1.27,105.67-1.93,96.62-6.39,134.16-5.59,87,5.47,115.79,1.93S469.51,252,511,252.77s111,7.19,147.73,5.59,72.67,7.19,95,12.78,63.88,4.79,86.24,3.19-13.58,34.34-13.58,34.34-39.12.8-75.85-5.59-55.1-18.37-111-14.37-96.62-4.79-144.54,1.6-107.8,17.57-146.13,24.75-75.86,3.19-111-8.78-98.22-11.18-139.75-3.19-185.26,5.59-185.26,5.59Z"/><path class="cls-5" d="M-8.72,323.7c24.3,4.57,129.71-5.71,185,4s125.69,17.34,186.37,2.17,114.86-18.42,145.2-16.25,63.93-2.17,84.52,0,100.77,15.56,132.19,12.12,115.51,0,115.51,0l-4.23,32.31H710.44c-29.26,0-74.77,6.5-107.27,4.33s-84.52-14.09-131.11-14.09-138.7,14.09-179.87,28.17-89.94,26-115.94,2.17S96,328.74,47.3,349.41c-31.54,13.38-69.57,7.12-69.57,7.12S-19.22,321.73-8.72,323.7Z"/><path class="cls-5" d="M-22.35,376.57s11.35-10.18,50.06-2.79c40.48,7.72,76.59,10.53,97.66,22s66.06,16.28,95.74,10.53,79.46-22,138.82-29.68,106.27-8.17,142.65-.25,125.09-2.11,211.25-3.8S840,370.68,840,370.68l-13.58,46.18s-52-11.69-82.6-14-113.93,9.2-180,11.11S426,397.71,358,408.24,237.38,436,179.94,436,77.37,421.46,50.7,417.1c-25.43-4.16-52.43-3.25-67.85-9.88C-24.29,404.15-22.35,376.57-22.35,376.57Z"/><path class="cls-5" d="M-7.56,424.51c20.3,10.18,52.84,36.58,120.93,40.65S248.53,433.27,308.49,436s96.93,13.13,135.88,11.36S560.34,435,625,429.66s114.2-22.68,165.55-5.14,41.61,70.65,41.61,70.65-46-21.65-86.76-26.76-79.15-23.76-156.58-7.23c-48.4,10.34-120.51,23.36-182.48,24.25s-130.13-9.74-177.94-6.2-101,17.71-164.66,11.51S-.49,484.56-28.19,469C-38.88,463-28.28,414.12-7.56,424.51Z"/><path class="cls-5" d="M-8.87,510.24a431.41,431.41,0,0,0,81.94-1.45c43.7-5.14,114.39-18,156.17-9.64s64.27,21.41,106,14.88,91.26-5.89,130.46-14.24,75.83-18,115-25.06,93.83-12.85,126.61-1.29,65.7,39.09,92.62,37.22,17,27.86,17,27.86-61.67,3.3-99.11-5.51-79.29-27.36-133.25-26.35S437.07,532,413.95,539.14s-89.2,21.42-137.66,19.22-92.51-33-132.15-29.73S22.47,540.14-37.3,539.87C-100.71,539.57-8.87,510.24-8.87,510.24Z"/><path class="cls-5" d="M-5.56,551.18c25.21,2.54,81.37-5.41,120.21.45s37.37,25.65,93.06,29.31S351.53,569.22,403.82,556s127-36.64,187.12-32.24,55,43.21,156.07,30.4,123.83,20.9,123.83,20.9l-45.43,11s-46.16-9.53-90.86-9.53-103.32,13.19-129,1.47-75.47-22.74-111.38-19.43S377,589,319.82,600.73s-125.3,15.39-177.32,4.4S33.85,588.77-5.71,580.68C-65.4,568.47-13.36,553.62-5.56,551.18Z"/><path class="cls-5" d="M-7.54,598c12,.94,15-.08,39.25,12.45s57.66,25.9,110.3,23.4,120.33-4,158.77-11.18,107-29.76,161.28-33.11,97.77,25.9,154.59,16.71,184.67-15.88,224.78,0,0,57.66,0,57.66-100.27-29.25-148.74-32.59-119.49,14.21-178.82,10.86-96.1-23.4-154.59-9.19S223.9,669,170.42,664s-158,2-186.84-18.14C-25.35,639.58-20.86,597-7.54,598Z"/><path class="cls-5" d="M-9.24,677.33c19.53,7.88,67.69,6.68,109.47,5.85s134.54.84,198-12.53,112-13.57,149.58-5.95,117.82-8.26,163.78-15.78,89.41-7.52,112.81,8.36,88.15,26,108.42,26,4.39,34.19,4.39,34.19-42.62-10-82.73-10-93.59-10.86-112-19.22-76.88-8.36-114.48,1.67-94.95,16.71-136.88,9.19-105.45,0-143,5.85-92.75,15-135.37,7.52S9.55,714.09-14.11,709.19C-20.84,703.43-16.21,682.8-9.24,677.33Z"/><path class="cls-5" d="M-12.45,726.2c22.75,4.51,67.74,4.41,102.9,7.76s115.54,4.19,139,0,63.63-15.07,100.47-10a409.15,409.15,0,0,0,149.87-8.15c58.61-14.46,103.82-17,129.78-6.09s91.26,16.75,128.94,15.07,80.3,5.86,80.3,5.86l-4.94,29.3s-65.31-11.72-86.24-13.4-114.7.84-142.33-3.35-77-7.54-117.22,2.51-101.31,27.63-149,22.61-84.56-14.23-113.87-8.37-71.17,11.82-95.45,9.26S0,759.54-26.53,753.07C-30.77,746.79-20.1,729.06-12.45,726.2Z"/><path class="cls-5" d="M-8.8,778.1c18.34.19,58.13,13.59,80,12.83s103.92-10,138.4-8.73,80,18.22,117.76,12.36,104.75-23.42,153.55-20.82,116.46,3.38,145.09-.26,87.18,1.69,141.19,3.25,75.94,10,75.94,10l-17.38,33.18L-32.4,839.13S-23.26,785.74-8.8,778.1Z"/><path class="cls-5" d="M112.76,712.43c-42.62-7.52-102.32,2.69-126.87-3.24-6.73-5.76-2.1-26.39,4.87-31.86"/></g><g class="cls-2"><rect class="cls-6" width="800" height="800"/><path class="cls-7" d="M-24.88,771.58s12.5-3.59,16.77-3.34c17.31,1,41.95,10.45,69,10.45s49.77,2.35,91.72-3.8,101.18,1.2,123,8.78,88.16-1.21,107.36-7.71,69.72-16,108.78-10.17,162.11-.16,184.86-1.8,141.22,3.33,159.84,11.15S832.86,832,832.86,832H-18.59Z"/><path class="cls-7" d="M-10.12,720.73s31.27,1.83,59.15,3.19,77.5,6.12,100.62,5.44,58.47,1.49,78.86-4,56.43-10.86,75.47-10.22,72.07,8.85,87.7,5.76,64.59-6.49,95.86-14,86.31-16.28,112.89-5.57,96.39,19.37,110.43,18.13,75.86-.83,107.93,4.13S829,745.49,829,745.49l-69.37-7L599.78,726.91l-132.56-.83L337.56,745.49l-103.65-4.13-99.52,12L-10.12,735.58Z"/><path class="cls-7" d="M-8,672.38c16.72,4.49,36.5,4,64.53,2.71s67.1-.55,92.6.36,93.13-1,129.15-8.16S367.75,652.12,398,653s60,7,76.55,5.71,64.57-2.46,83.26-7.05S636,636,668.26,637.29s51.4,8.92,65.42,16.57,70.52,22.83,81.14,22.46,0,19.06,0,19.06L699.7,681,558.24,666.28,396.39,686.14l-126.59,5.1-162.27,4.13L-7.17,681.89S-10,671.84-8,672.38Z"/><path class="cls-7" d="M-7.54,592.54c13.88-.68,29,3.46,48.31,17.16s67.48,18.79,78.91,18.79,61.62-2.79,99.54-3.49,75.56-3.43,106.23-12.8S420,588.63,444,586.12s63.64-2,91.47,7.6,59.65,11.64,80.56,7.46,80.46-10.86,128.9-10,69.07,2.5,69.07,2.5v16.06l-125.47,7.64-111,7.66-116.27-8.22L356.4,618.46,196.91,651.64l-85-9.6-122-27.2S-13.15,592.82-7.54,592.54Z"/><path class="cls-7" d="M-7,556.58s.34-9.48,2.66-11.19c7.23,5.09,25.09,1.77,40.15.3s63.17-9.45,93,2.36,47.82,23.62,65.83,25.68,49,2.36,75,0,107.75-14.17,147-26.27,92.54-24.1,120.81-26.66,66.06-5.4,87.31,5.17,39.26,23.26,65.83,23.26,69.63-3,98-3.14,21.57,15.84,21.57,15.84l-77,7.38L576.32,540.37,419.14,561,246.28,595.58,114.62,579.64Z"/><path class="cls-7" d="M-10.12,511.88-7,504.33s21.86,7.55,65.78,1.35,103.31-15.78,143.37-14.13,74.33,18.06,110.05,17.58,102.38-8.84,139.23-12.07S569,470.39,599.9,465.86s88.34-13.36,132.15,13,76.87,29.78,98.1,29.78,2.71,24.14,2.71,24.14l-71.74-15.36L562.73,487.88l-193.57,42L180.9,514.43Z"/><path class="cls-7" d="M-7,434l-.56-10.49,4.41-5.16s48,32.42,78.55,36.16,79,5.74,123.68-5.24,80.57-25.08,131.19-19,103.61,10.33,146,7.6,138.41-10.21,185.16-16.45S780.52,394.92,822.29,435s-16.21,33.85-16.21,33.85L651.47,440,400,460.77l-209.26,5.09L14.93,473.22Z"/><path class="cls-7" d="M-15.2,381.84s3.52-18.18,8.52-18.12c18,.24,25.49-5.17,89.34,10.1s95.28,32.23,135.38,27,111-29.48,164.5-34.16,132.4,1.77,160.48,5.07S729.59,365,729.59,365l98.63-2-3,27.33-245,7.73-189.06-7.73L235.46,414.86,136.1,422,53.29,390.27Z"/><path class="cls-7" d="M-32.55,323.05s18.83-4.74,29-4.83C21.17,318,56.47,316.55,98,315.72c58.65-1.17,109.59,12.59,144.77,15.31,28.9,2.23,70.61,2.91,98.69-2.44,31.1-5.93,80.43-22.34,114.32-20.51s118.9-9.36,158.28,2.13,82.67,13,128.26,9.85,90.51-1.44,90.51-1.44l-14.17,25.29L584.52,332.37,393.14,343.92l-128.34,19-106.19-19L32.8,339.3Z"/><path class="cls-7" d="M-12,277.32l5-8.38s35.46,4.57,56.67,3.64,114.24-10.72,147.42-10.72,70.72,4.9,115.87,3.81,109.34-12.51,156.67-16.32S579,250.3,604,251.73s77.79-.2,101.72,3.61S784,270,807.44,270s13.6,18.5,13.6,18.5H780.78l-151.23-12-182.78,3.81h-186L-10.12,290.7-12,275.32"/><path class="cls-7" d="M-15.83,208.58C2.23,211.64,62.66,223.24,103.42,223S290,195.74,333.35,199.24,453.12,200,482,190.36s76.06-22,132.21-9.43c0,0,80.77,29.75,117,28.34s86.13,2.29,91.84,6-19.42,19.21-19.42,19.21L565,207.06,391.18,216,222.83,234.48H-10.12S-22.36,207.48-15.83,208.58Z"/><path class="cls-7" d="M-5.72,159.57c18.68,7,77.88,7.28,101.84,7.58,25,.32,76.24,6.51,96.91,2s156.8-28.89,205.17-33,74.09.92,112.21-2.76,147.44-16.08,175.91-12.86,57.63,13.41,86.81,29.85,53.32,13.32,53.32,13.32l-11.52,12-99.67-9.47L543.48,147.77,382.72,157,222.88,189.82H100.25L-7.69,183.56S-11.36,157.46-5.72,159.57Z"/><path class="cls-7" d="M-7.69,71.61S8.83,72.18,45,89.7s61,33.11,101.48,29.2,90.26-11.51,126.91-9.66S403.92,84.1,449.18,79.84s114.26-16.1,153.67-7.33S706.56,65.2,752.2,68.83s66.49,5.59,66.49,5.59l-11,27.53L633.44,93.9l-238,12.27L258.48,137.81H93.55L-12,119.94Z"/><path class="cls-7" d="M-3.62,29.77c21.93,4.08,77-7.57,105.72-1.33s62,15.81,82.36,26.2,66.55,6.24,90.26-1.25S334.2,41.85,356.24,41.8s81.52-1.3,108.15-8,65.33-11.58,109-13.69S681.93,18.4,718.95,23s95.67,7.93,95.67,7.93L812.53,41.8,663.21,37.58,501,46.32,352.08,65.87,194.86,83.75l-95.25-27L-7.69,41.8S-6.31,29.27-3.62,29.77Z"/><path class="cls-3" d="M0,19.76C38.44,24.19,107.16,4.4,149.74,20s40.51,22.85,80,21.81,99.71-21.68,135-18.11,85.17,3.79,132.94-9.9C525.11,5.92,572.05,3.47,617.09,2.24c33.4-.91,65.75-2.49,88.31,2,53,10.54,118.4,23,126.71,11.58s0-82.05,0-82.05l-848.55,27S-22.18,17.21,0,19.76Z"/><path class="cls-3" d="M-6.19,34.24c26.26-.64,85-5.88,109.13-1.77s48.19,12.34,71.69,22.92,63.47,11.17,92.26,3.53,84.62-14.85,122.23-13,78.74-9.91,134-17.55,120.47-9.4,164-3.53,131.63,10,131.63,10V56.57s-65.23,2.35-87-2.35S635.93,41.29,583,47.16,419.09,76,381.48,78.9,306.85,91.24,261.6,89.47s-79.33,14.1-104,12.34S101.17,73,67.09,67.14,11.26,56.57-21.06,58.33-13,34.48-6.19,34.24Z"/><path class="cls-3" d="M-26.91,80A56,56,0,0,1-10.14,78C7,78.46,23.38,83.67,38.75,92.81c26.4,15.7,57.81,34.26,111.33,29.26s87.78-9.28,107.76-8.56,65.66-.71,132-16.41,120.61-25,189.12-20.7,119.18,2.91,148.44-1,91.27,6,91.27,6v69.94s-50.6-34.08-93.41-38.45-99.91,2.05-134.88-1.51-82.07-6.42-119.18-2.14-122,19.27-151.29,30-111.33,15-142.73,9.28S88.7,152.75,40.89,147,1.67,140.52-15.2,131.83C-24.92,126.83-26.91,80-26.91,80Z"/><path class="cls-3" d="M-9.34,164c40.62,12.67,91.56,8.16,126.76,9.87s105.58,2.58,151.94-10.3,131.34-26.61,170.82-24,88.27-3.14,161.31-10.59,116.81-4.87,150.29,18.31,74.68,21.46,74.68,21.46v37.77s-51.5-8.58-74.68-14.59-61.8,0-91.85-13.73S582.67,157,539.75,165.84s-94.42,18.31-138.63,9.73-88.84-1.72-115.45,10.3-121,24-155.37,20.6S60.93,215-17.18,198.67-15.18,162.15-9.34,164Z"/><path class="cls-3" d="M-7.74,216.65s8.5-2.22,53.22,7.37,97.42,7,146.93-3.29,117.39-18.27,160.51-18.27,91,4,133.36-7.19,104.61-19.17,153.32-.8,105.41,24,135.75,20.76S840,230,840,230l-21.34,30s-61.7-8.78-100-12.78-152.52-15.71-174.08-22.23S471.11,220.82,432,239.19,335.35,256.76,293,244.78s-89.44-4-131.76,9.58S39.46,266.24-13.48,255C-23,252.94-7.74,216.65-7.74,216.65Z"/><path class="cls-3" d="M-4.29,275.45s69.73,1.27,105.67-1.93,96.62-6.39,134.16-5.59,87,5.47,115.79,1.93S469.51,252,511,252.77s111,7.19,147.73,5.59,72.67,7.19,95,12.78,63.88,4.79,86.24,3.19-13.58,34.34-13.58,34.34-39.12.8-75.85-5.59-55.1-18.37-111-14.37-96.62-4.79-144.54,1.6-107.8,17.57-146.13,24.75-75.86,3.19-111-8.78-98.22-11.18-139.75-3.19-185.26,5.59-185.26,5.59Z"/><path class="cls-3" d="M-8.72,323.7c24.3,4.57,129.71-5.71,185,4s125.69,17.34,186.37,2.17,114.86-18.42,145.2-16.25,63.93-2.17,84.52,0,100.77,15.56,132.19,12.12,115.51,0,115.51,0l-4.23,32.31H710.44c-29.26,0-74.77,6.5-107.27,4.33s-84.52-14.09-131.11-14.09-138.7,14.09-179.87,28.17-89.94,26-115.94,2.17S96,328.74,47.3,349.41c-31.54,13.38-69.57,7.12-69.57,7.12S-19.22,321.73-8.72,323.7Z"/><path class="cls-3" d="M-22.35,376.57s11.35-10.18,50.06-2.79c40.48,7.72,76.59,10.53,97.66,22s66.06,16.28,95.74,10.53,79.46-22,138.82-29.68,106.27-8.17,142.65-.25,125.09-2.11,211.25-3.8S840,370.68,840,370.68l-13.58,46.18s-52-11.69-82.6-14-113.93,9.2-180,11.11S426,397.71,358,408.24,237.38,436,179.94,436,77.37,421.46,50.7,417.1c-25.43-4.16-52.43-3.25-67.85-9.88C-24.29,404.15-22.35,376.57-22.35,376.57Z"/><path class="cls-3" d="M-7.56,424.51c20.3,10.18,52.84,36.58,120.93,40.65S248.53,433.27,308.49,436s96.93,13.13,135.88,11.36S560.34,435,625,429.66s114.2-22.68,165.55-5.14,41.61,70.65,41.61,70.65-46-21.65-86.76-26.76-79.15-23.76-156.58-7.23c-48.4,10.34-120.51,23.36-182.48,24.25s-130.13-9.74-177.94-6.2-101,17.71-164.66,11.51S-.49,484.56-28.19,469C-38.88,463-28.28,414.12-7.56,424.51Z"/><path class="cls-3" d="M-8.87,510.24a431.41,431.41,0,0,0,81.94-1.45c43.7-5.14,114.39-18,156.17-9.64s64.27,21.41,106,14.88,91.26-5.89,130.46-14.24,75.83-18,115-25.06,93.83-12.85,126.61-1.29,65.7,39.09,92.62,37.22,17,27.86,17,27.86-61.67,3.3-99.11-5.51-79.29-27.36-133.25-26.35S437.07,532,413.95,539.14s-89.2,21.42-137.66,19.22-92.51-33-132.15-29.73S22.47,540.14-37.3,539.87C-100.71,539.57-8.87,510.24-8.87,510.24Z"/><path class="cls-3" d="M-5.56,551.18c25.21,2.54,81.37-5.41,120.21.45s37.37,25.65,93.06,29.31S351.53,569.22,403.82,556s127-36.64,187.12-32.24,55,43.21,156.07,30.4,123.83,20.9,123.83,20.9l-45.43,11s-46.16-9.53-90.86-9.53-103.32,13.19-129,1.47-75.47-22.74-111.38-19.43S377,589,319.82,600.73s-125.3,15.39-177.32,4.4S33.85,588.77-5.71,580.68C-65.4,568.47-13.36,553.62-5.56,551.18Z"/><path class="cls-3" d="M-7.54,598c12,.94,15-.08,39.25,12.45s57.66,25.9,110.3,23.4,120.33-4,158.77-11.18,107-29.76,161.28-33.11,97.77,25.9,154.59,16.71,184.67-15.88,224.78,0,0,57.66,0,57.66-100.27-29.25-148.74-32.59-119.49,14.21-178.82,10.86-96.1-23.4-154.59-9.19S223.9,669,170.42,664s-158,2-186.84-18.14C-25.35,639.58-20.86,597-7.54,598Z"/><path class="cls-3" d="M-9.24,677.33c19.53,7.88,67.69,6.68,109.47,5.85s134.54.84,198-12.53,112-13.57,149.58-5.95,117.82-8.26,163.78-15.78,89.41-7.52,112.81,8.36,88.15,26,108.42,26,4.39,34.19,4.39,34.19-42.62-10-82.73-10-93.59-10.86-112-19.22-76.88-8.36-114.48,1.67-94.95,16.71-136.88,9.19-105.45,0-143,5.85-92.75,15-135.37,7.52S9.55,714.09-14.11,709.19C-20.84,703.43-16.21,682.8-9.24,677.33Z"/><path class="cls-3" d="M-12.45,726.2c22.75,4.51,67.74,4.41,102.9,7.76s115.54,4.19,139,0,63.63-15.07,100.47-10a409.15,409.15,0,0,0,149.87-8.15c58.61-14.46,103.82-17,129.78-6.09s91.26,16.75,128.94,15.07,80.3,5.86,80.3,5.86l-4.94,29.3s-65.31-11.72-86.24-13.4-114.7.84-142.33-3.35-77-7.54-117.22,2.51-101.31,27.63-149,22.61-84.56-14.23-113.87-8.37-71.17,11.82-95.45,9.26S0,759.54-26.53,753.07C-30.77,746.79-20.1,729.06-12.45,726.2Z"/><path class="cls-3" d="M-8.8,778.1c18.34.19,58.13,13.59,80,12.83s103.92-10,138.4-8.73,80,18.22,117.76,12.36,104.75-23.42,153.55-20.82,116.46,3.38,145.09-.26,87.18,1.69,141.19,3.25,75.94,10,75.94,10l-17.38,33.18L-32.4,839.13S-23.26,785.74-8.8,778.1Z"/><path class="cls-3" d="M112.76,712.43c-42.62-7.52-102.32,2.69-126.87-3.24-6.73-5.76-2.1-26.39,4.87-31.86"/></g></svg>