<svg id="Layer_7" data-name="Layer 7" xmlns="http://www.w3.org/2000/svg" viewBox="0 0 800 800"><defs><style>.cls-1{fill:#134928;}.cls-2{fill:#10af4b;}.cls-3{fill:#138341;}</style></defs><title>lava</title><g id="Layer_12" data-name="Layer 12"><polygon class="cls-1" points="426.53 654.97 426.53 657.37 436.55 656.17 426.53 654.97"/><polygon class="cls-1" points="426.53 648.15 426.53 649.89 432.94 649.02 426.53 648.15"/><polygon class="cls-1" points="426.53 631.48 426.53 633.69 432.94 632.59 426.53 631.48"/><polygon class="cls-1" points="426.53 624.49 426.53 626.82 431.49 626.3 426.53 624.49"/><polygon class="cls-1" points="426.53 608.29 426.53 610.47 432.94 609.85 426.53 608.29"/><polygon class="cls-1" points="426.53 601.87 426.53 603.11 431.49 602.49 426.53 601.87"/><polygon class="cls-1" points="426.53 585.39 426.53 587.67 433.69 586.53 426.53 585.39"/><polygon class="cls-1" points="426.53 573.85 426.53 576.53 434.63 575.19 426.53 573.85"/><polygon class="cls-1" points="426.53 562.71 426.53 564.32 432.94 563.52 426.53 562.71"/><polygon class="cls-1" points="426.53 557.03 426.53 559.13 433.69 558.63 426.53 557.03"/><polygon class="cls-1" points="426.01 539.61 426.01 541.59 434.63 540.6 426.01 539.61"/><polygon class="cls-1" points="426.01 533.81 426.01 535.17 434.63 534.49 426.01 533.81"/><polygon class="cls-1" points="427.49 516.52 427.49 518.62 435.15 517.57 427.49 516.52"/><polygon class="cls-1" points="427.49 510.09 427.49 512.19 435.15 511.19 427.49 510.09"/><polygon class="cls-1" points="427.49 489.54 427.49 492.92 437.48 491.87 427.49 489.54"/><polygon class="cls-1" points="449.85 470.15 453.36 470.15 451.77 478.38 449.85 470.15"/><polygon class="cls-1" points="466.32 470.85 468.78 470.85 467.55 479.96 466.32 470.85"/><polygon class="cls-1" points="471.47 470.85 473.51 470.85 472.49 477.33 471.47 470.85"/><polygon class="cls-1" points="483.14 470.85 486 470.85 486 479.96 483.14 470.85"/><polygon class="cls-1" points="488.75 470.85 491.03 470.15 492.4 478.38 488.75 470.85"/><polygon class="cls-1" points="505.57 466.12 508.2 465.24 510.65 471.9 505.57 466.12"/><polygon class="cls-1" points="510.65 464.19 512.4 463.49 515.9 470.85 510.65 464.19"/><polygon class="cls-1" points="528.15 452.79 529.77 450.62 535.56 457.85 528.15 452.79"/><polygon class="cls-1" points="531.85 448.63 533.75 447.09 540.51 454.24 531.85 448.63"/><polygon class="cls-1" points="541.71 433.45 543.15 431.76 550.02 436.88 541.71 433.45"/><polygon class="cls-1" points="544.42 428.39 545.86 426.04 552.91 431.76 544.42 428.39"/><polygon class="cls-1" points="551.47 408.5 550.72 411.32 559.43 412.5 551.47 408.5"/><polygon class="cls-1" points="556.06 386.12 556.06 389.32 564.77 390.22 556.06 386.12"/><polygon class="cls-1" points="559.43 366.28 558.62 370.12 568.99 370.89 559.43 366.28"/><polygon class="cls-1" points="559.9 347.85 559.9 351.18 573.98 349.51 559.9 347.85"/><polygon class="cls-1" points="559.9 329.48 559.9 334.44 573.98 333.12 559.9 329.48"/><polygon class="cls-1" points="558.84 312.03 558.84 317.31 573.98 314.67 558.84 312.03"/><polygon class="cls-1" points="557.08 295.21 557.72 298.9 572.77 297.06 557.08 295.21"/><polygon class="cls-1" points="557.08 278.88 557.08 283.04 566.94 280.96 557.08 278.88"/><polygon class="cls-1" points="554.68 260.95 554.68 264.79 570.85 261.91 554.68 260.95"/><polygon class="cls-1" points="551.96 245.9 553.24 248.94 562.01 243.97 551.96 245.9"/><polygon class="cls-1" points="542.19 234.48 545.07 236.77 550.84 228.6 542.19 234.48"/><polygon class="cls-1" points="532.1 230.63 534.63 231.21 535.91 223.48 532.1 230.63"/><polygon class="cls-1" points="527.21 230.23 529.92 230.23 528.57 218.95 527.21 230.23"/><polygon class="cls-1" points="523.01 230.23 525.2 230.23 524.1 218.16 523.01 230.23"/><polygon class="cls-1" points="517.68 231.21 520.39 230.63 517.68 223.48 517.68 231.21"/><polygon class="cls-1" points="504.72 239.3 507.24 237.39 501.08 230.63 504.72 239.3"/><polygon class="cls-1" points="498.13 251.02 499.52 247.98 489.27 246.33 498.13 251.02"/><polygon class="cls-1" points="495.61 265.95 495.61 263.52 487.88 264.12 495.61 265.95"/><polygon class="cls-1" points="497.05 281.44 497.05 284.32 486 283.3 497.05 281.44"/><polygon class="cls-1" points="499.37 297.49 500.12 300.27 488.71 300.27 499.37 297.49"/><polygon class="cls-1" points="501.69 313.72 501.69 315.95 489.73 315.48 501.69 313.72"/><polygon class="cls-1" points="502.95 329.87 502.95 331.94 492.66 330.91 502.95 329.87"/><polygon class="cls-1" points="503.3 350.52 503.3 348.37 494.72 348.97 503.3 350.52"/><polygon class="cls-1" points="502.57 369.26 502.57 366.22 491.47 367.21 502.57 369.26"/><polygon class="cls-1" points="501.83 383.07 501.5 385.21 493.12 384.14 501.83 383.07"/><polygon class="cls-1" points="500.24 395.97 489.41 395.97 500.24 398.38 500.24 395.97"/><polygon class="cls-1" points="480.54 422.34 483.6 421.06 478.12 408.5 480.54 422.34"/><polygon class="cls-1" points="466.52 425.27 470.09 424.51 466.52 411.89 466.52 425.27"/><polygon class="cls-1" points="449.31 425.27 453.39 425.65 451.35 411.89 449.31 425.27"/><polygon class="cls-1" points="435.42 403.35 435.42 407.68 446.38 405.52 435.42 403.35"/><polygon class="cls-1" points="436.95 383.07 436.95 386.53 447.53 384.8 436.95 383.07"/><polygon class="cls-1" points="438.23 361.17 438.23 364.35 451.77 363.46 438.23 361.17"/><polygon class="cls-1" points="439.5 341.67 439.5 345.49 452.24 343.58 439.5 341.67"/><polygon class="cls-1" points="441.16 320.51 441.16 323.19 452.24 321.85 441.16 320.51"/><polygon class="cls-1" points="442.3 294.39 442.3 297.96 451.77 296.81 442.3 294.39"/><polygon class="cls-1" points="444.6 270.17 444.6 273.87 456.19 273.23 444.6 270.17"/><polygon class="cls-1" points="447.04 244.56 446.25 248.67 460.53 247.74 447.04 244.56"/><polygon class="cls-1" points="449.37 217.84 449.37 221.3 462.98 220.15 449.37 217.84"/><polygon class="cls-1" points="449.99 190.81 449.99 193.62 462.98 192.22 449.99 190.81"/><polygon class="cls-1" points="448.49 167.35 448.49 171.07 462.98 169.93 448.49 167.35"/><polygon class="cls-1" points="448.49 163.64 448.49 167.35 460.53 165.5 448.49 163.64"/><polygon class="cls-1" points="446.76 143.34 447.84 145.88 458.12 139.95 446.76 143.34"/><polygon class="cls-1" points="445.42 139.95 446.19 141.34 452.44 138.17 445.42 139.95"/><polygon class="cls-1" points="431.49 124.75 434.92 127.3 443.27 111.94 431.49 124.75"/><polygon class="cls-1" points="425.91 122.57 428.21 123.55 430.15 115.29 425.91 122.57"/><polygon class="cls-1" points="416.88 120.31 420.75 121.31 420.75 106.92 416.88 120.31"/><polygon class="cls-1" points="411.41 119.4 414.7 119.62 413.81 106.52 411.41 119.4"/><polygon class="cls-1" points="404.51 119.62 408.36 119.62 406.43 102.55 404.51 119.62"/><polygon class="cls-1" points="399.53 120.46 403.29 120.46 400.71 106.52 399.53 120.46"/><polygon class="cls-1" points="394.06 121.31 397.04 120.46 394.46 109.6 394.06 121.31"/><polygon class="cls-1" points="384.44 124.78 386.93 123.55 381.66 114.11 384.44 124.78"/><polygon class="cls-1" points="378.79 128.28 381.19 126.52 374.8 120.46 378.79 128.28"/><polygon class="cls-1" points="368.71 146.65 369.79 143.76 358.95 141.14 368.71 146.65"/><polygon class="cls-1" points="366.81 167.34 366.81 170.5 355.43 168.92 366.81 167.34"/><polygon class="cls-1" points="365.91 194.07 365.91 198.22 350.82 197.05 365.91 194.07"/><polygon class="cls-1" points="365.91 221.15 365.91 223.2 356.78 222.21 365.91 221.15"/><polygon class="cls-1" points="365.64 245.91 365.64 247.92 358.33 247.08 365.64 245.91"/><polygon class="cls-1" points="365.74 275.09 365.74 271.5 353.3 273.29 365.74 275.09"/><polygon class="cls-1" points="365.58 298.66 365.58 295.48 355.18 297.07 365.58 298.66"/><polygon class="cls-1" points="364.99 323.25 365.32 320.2 352.99 319.54 364.99 323.25"/><polygon class="cls-1" points="363.66 340.95 363.33 344.06 352.39 342.5 363.66 340.95"/><polygon class="cls-1" points="362.79 364.35 362.79 360.18 348.2 361.17 362.79 364.35"/><polygon class="cls-1" points="363.79 651.17 352.01 650.02 363.79 648.89 363.79 651.17"/><polygon class="cls-1" points="362.2 647.44 362.2 645.59 355.44 646.51 362.2 647.44"/><polygon class="cls-1" points="361.69 631.26 361.69 629.41 355.44 630.33 361.69 631.26"/><polygon class="cls-1" points="361.17 627.96 361.17 626.09 352.82 627.02 361.17 627.96"/><polygon class="cls-1" points="361.17 608.29 361.17 604.09 348.19 606.19 361.17 608.29"/><polygon class="cls-1" points="360.07 601.87 360.07 599.78 354.68 600.82 360.07 601.87"/><polygon class="cls-1" points="360.07 586 360.07 582.81 349.02 584.4 360.07 586"/><polygon class="cls-1" points="359.49 562.71 359.49 559.13 349.02 560.05 359.49 562.71"/><polygon class="cls-1" points="359.07 557.41 359.49 555.43 353.12 556.41 359.07 557.41"/><polygon class="cls-1" points="360.07 539.61 360.07 535.8 348.21 537.06 360.07 539.61"/><polygon class="cls-1" points="360.07 516.78 360.63 511.98 348.21 512.86 360.07 516.78"/><polygon class="cls-1" points="361.42 493.06 361.81 488.06 345.25 489.93 361.42 493.06"/><polygon class="cls-1" points="362.79 471.8 348.09 469.64 362.79 469.05 362.79 471.8"/><polygon class="cls-1" points="362.79 464.55 353.53 465.13 362.79 467.19 362.79 464.55"/><polygon class="cls-1" points="363.38 448.28 363.38 444.55 351.71 445.63 363.38 448.28"/><polygon class="cls-1" points="339.81 416.81 341.5 425.56 343.69 416.81 339.81 416.81"/><polygon class="cls-1" points="322.64 415.63 325.84 415.63 324.24 427.58 322.64 415.63"/><polygon class="cls-1" points="305.3 413.27 309.08 414.79 305.3 426.57 305.3 413.27"/><polygon class="cls-1" points="300.54 412.64 303.5 413.27 300.54 422.35 300.54 412.64"/><polygon class="cls-1" points="286.69 406.64 288.84 408.35 283.65 413.75 286.69 406.64"/><polygon class="cls-1" points="282.99 403.98 285.06 405.46 278.99 412.2 282.99 403.98"/><polygon class="cls-1" points="270.18 389.98 272.03 392.79 262.32 397.46 270.18 389.98"/><polygon class="cls-1" points="261.61 373.33 262.32 376.4 251.62 378.06 261.61 373.33"/><polygon class="cls-1" points="256.5 356.37 247.59 355.5 256.5 354.05 256.5 356.37"/><polygon class="cls-1" points="255.08 336.67 255.08 333.77 242.73 335.22 255.08 336.67"/><polygon class="cls-1" points="255.08 315.45 255.08 318.86 240.94 317.15 255.08 315.45"/><polygon class="cls-1" points="254.69 300.62 254.27 297.22 241.62 298.33 254.69 300.62"/><polygon class="cls-1" points="255.19 281.37 255.26 278.95 244.47 279.46 255.19 281.37"/><polygon class="cls-1" points="256.66 258.37 256.23 261.92 240.66 259.32 256.66 258.37"/><polygon class="cls-1" points="257.5 242.26 257.84 239.55 245.03 240.19 257.5 242.26"/><polygon class="cls-1" points="258.07 224.32 258.07 220.57 244.86 222.45 258.07 224.32"/><polygon class="cls-1" points="258.51 203.04 258.51 200.51 251.38 201.78 258.51 203.04"/><polygon class="cls-1" points="259.62 187.51 260.92 184.21 251.38 182.83 259.62 187.51"/><polygon class="cls-1" points="266.14 176.85 267.75 175.53 262.3 168.4 266.14 176.85"/><polygon class="cls-1" points="268.83 174.12 270.97 173.22 265.58 163.01 268.83 174.12"/><polygon class="cls-1" points="276.3 172.19 278.26 172.03 276.3 163.36 276.3 172.19"/><polygon class="cls-1" points="279.52 171.38 281.43 171.05 279.2 160.57 279.52 171.38"/><polygon class="cls-1" points="282.64 171.05 284.75 171.05 283.48 157.7 282.64 171.05"/><polygon class="cls-1" points="285.96 170.59 287.53 170.83 287.71 162.15 285.96 170.59"/><polygon class="cls-1" points="288.65 170.77 290.37 171.05 290.37 165.68 288.65 170.77"/><polygon class="cls-1" points="301.03 173.86 303.5 175.57 309.86 166.49 301.03 173.86"/><polygon class="cls-1" points="310.46 184.66 312.32 187.05 320.83 181.06 310.46 184.66"/><polygon class="cls-1" points="314.92 199.88 314.92 202.57 323.83 201.2 314.92 199.88"/><polygon class="cls-1" points="314.22 219.2 313.73 222.75 324.66 222.14 314.22 219.2"/><polygon class="cls-1" points="312.61 239.87 312.34 242.62 321.91 241.25 312.61 239.87"/><polygon class="cls-1" points="310.81 259.08 310.81 262.29 322.18 260.68 310.81 259.08"/><polygon class="cls-1" points="309.67 279.12 309.67 281.16 320.24 280.49 309.67 279.12"/><polygon class="cls-1" points="308.4 297.22 308.4 299.89 320.24 298.56 308.4 297.22"/><polygon class="cls-1" points="307.66 315.95 307.66 318.36 322.51 317.16 307.66 315.95"/><polygon class="cls-1" points="307.33 331.81 307.33 334.08 316.69 332.95 307.33 331.81"/><polygon class="cls-1" points="308 345.94 308.14 348.13 316.69 347.26 308 345.94"/><polygon class="cls-1" points="309.08 358.97 310.14 360.88 316.69 357.07 309.08 358.97"/><polygon class="cls-1" points="335.47 372 338.24 372 338.24 363.63 335.47 372"/><polygon class="cls-1" points="339.73 372.3 342.29 372.78 342.29 366.56 339.73 372.3"/></g><g id="Layer_8" data-name="Layer 8"><path class="cls-2" d="M362.95,671.34S356.81,581.16,358.7,542s4.25-123.23,4.25-123.23-38.11-.52-53.42-2.26-31.2-11.27-39.29-24.27-15.31-26-15.89-52.58,2-95,2.89-119,1.44-43.33,14.16-47.67,27.15-3.47,34.09,3.18,11.84,22.24,10.4,35-6.75,89.55-7.28,106.31-3.41,43.91,7,48,23.4,7.22,31.2,8.09,14.16,1.16,14.16,1.16,4.62-56.62,4-100-.58-105.15,1.44-120.17,7.51-27.73,21.38-32.07,30.33-5.2,41.89,1.16,21.67,20.51,21.67,33.51-.58,76.55-4,100.82S435.48,424,435.48,424s16.9,2.47,28.81.56,28.73-.48,33-16.2,7.48-42.4,6.05-65.75-10-69.56-8.1-83.86,11.44-27.63,27.16-29.06,31.45,6.67,32.88,22.87,7,50.33,7.15,82.9c.16,30.2-5.72,64.8-14.29,86.72s-21,42.88-53.84,48.6-63.37-3.34-63.37-3.34-3.34,55.75-3.34,89.1V676.12s-8.94,10-31,10.29A42.71,42.71,0,0,1,362.95,671.34Z"/></g><g id="Layer_11" data-name="Layer 11"><path class="cls-3" d="M362.79,373.19s-24.71-.94-31.21-2.76c-10.32-2.89-19.27-4.7-21.24-10.9-3.38-10.66-2.05-52.46.24-83.73s6.31-68.85,5.16-77.75-3.43-13.48-7.45-17.5c1.43,7.17,4.3,18.07,3.15,32.7s-4.59,49.63-5.45,70.57-3.16,54.22-2.3,64.84,4,18.65,9.47,21.52,18.07,5.31,27.83,6.75,21.8.43,21.8.43Z"/><path class="cls-3" d="M292.25,172.19a21.94,21.94,0,0,1,9.26,10.19c2.78,6.84,3.9,24.55,3,35.57s-4.25,42.1-5,58-2.85,59.21-1.61,72.91,3.35,25.71,16.69,28.64c12.43,2.73,28,4.5,38.68,4.45,9.47,0,9.39-1.21,9.39-1.21l.13,5.48s-19.31,1.74-38-1.25-28.89-9-31.13-23.66-2.07-38-1-64.11,6.23-69.38,6.52-80.72c.31-12,.07-21.83-1.28-31A29.87,29.87,0,0,0,292.25,172.19Z"/><path class="cls-3" d="M282.47,172a22.39,22.39,0,0,1,5.65,9.22c1.91,5.92,1.14,16.33-.08,46.79s-5.92,78.5-5.57,98.87,2.61,39.86,8.78,47.87,21.68,12,34.56,14.62,37,1,37,1v4.74H343.73a177.37,177.37,0,0,1-36.38-4.44c-12.18-3-18.84-10.92-23.72-17s-6.92-33.42-6.74-53.61.87-33.42,2.44-55.7,4-52.39,4.35-64.05S282.47,172,282.47,172Z"/><path class="cls-3" d="M364.14,416.37s-25.66,1.74-40.67,1.3-37-5-48.94-20.66S256,367,254.74,338.73s-.87-52.63,1.74-88.74-.43-61.11,4.13-67.2,8-9.13,9.79-9.57c-4.13,6.31-7.83,12-8,20.44s-.22,43.72-2.17,63.94-2.17,58.51.43,83.52,8.34,45,26.46,58.82,28.7,11.64,40.27,12.08,36.79-1.09,36.79-1.09Z"/><path class="cls-3" d="M276.88,173.21a22.63,22.63,0,0,0-7.26,15.26c-.64,9.88-.21,44.46-1.29,60.56s-6.66,64.86-4.51,82.68,4,46,16.28,56.7,24.1,16.32,41.49,16.54,42.54,0,42.54,0v-3.22s-12.26-.14-24.29-.82-31.14,0-41.66-6.69-21.26-11.38-25.34-31.57-4.94-53.26-2.15-84.62,3.44-54.76,3.22-68.08-1.5-19.54-.21-24.91S276.88,173.21,276.88,173.21Z"/></g><g id="stalk"><path class="cls-3" d="M380.11,134.34c-2,5.31-2,8.74-3.38,14.66s-2.26,76.69-3.95,135.89-4.51,82.89-3.38,99-2,78.38-2,78.38-.85,78.38-1.69,119.26,4.59,95.11,3,94.88-5.76-5-5.76-5S356.81,581.16,358.7,542s4.51-92.41,4.25-123.23c-.09-11-2.13-33.1-2-44.14.3-25,4.62-56.62,4-100s-.58-105.15,1.44-120.17,7.51-27.73,21.38-32.07C387.82,122.4,381.63,130.29,380.11,134.34Z"/><path class="cls-3" d="M400,119.4s-10.3,7.61-11.71,20.3-3.67,89.09-3.67,89.09-2,68.79-3.1,95-4.23,93.89-5.36,128.28-2.52,77.81-3.09,99.52,2,103.75,2.53,127.72l8.46,3.1s1.41-10.15.28-65.69-.28-137.87.56-162.68,1.69-58.64,5.64-152.53,4.51-151.12,5.64-160.7S397.33,125,400,119.4Z"/><path class="cls-3" d="M405.77,119.4a226.78,226.78,0,0,1,1.79,31.3c-.38,15.22-1.51,73.59-3.2,110s-5.62,81.76-5.77,120.11-4.38,98.4-4.94,135.33,1.69,166.34,1.69,166.34,1.47,1.41,5,1.13,3.78-2.26,3.78-2.26-3-116.16-3.5-150.55,6.8-95.86,6.42-145.2,6.1-117.29,7.79-177.9,0-72.74-3.1-79.22S405.77,119.4,405.77,119.4Z"/><path class="cls-3" d="M411.41,119.4a47.66,47.66,0,0,1,13,25.94c2.54,16.35-1.41,79.79-2.54,109.67s-3.38,82.61-5.07,117-4.23,76.41-5.36,108-2.54,119.26-2.54,128.28S410,682.43,410,682.43s6.76,1.13,7,0-1.47-37.15-1.58-58.79-.13-82.79,0-90.08,1.77-57.39,3.18-87.73,6.17-58.09,6.41-93.61,3.35-58.09,4.06-93.84,3.64-101.13,1.76-110.77S427.69,123.17,411.41,119.4Z"/><path class="cls-3" d="M429.7,123.55s17.9,11.06,20.13,24.38c3.52,21,.8,63.68-.48,86.84-1.27,23-8.81,100.26-11.33,147.64s-7,83.89-7.46,91.62-3,61.48-3,87.91V676.12l-3.41,2.8s-1-88.84-1-125.67,7.66-146.84,8.11-153.86c3.6-56.81,5.68-90,10.62-170,0,0,4.08-52.07,2-66.46S447.12,143,429.7,123.55Z"/></g><g id="right_arm" data-name="right arm"><path class="cls-3" d="M435.24,424s26.44,2.25,40-1.57,20.75-7.5,23.26-21.22,6.27-52.29,2.82-78.16c-4.35-32.62-10.28-59.22-4.08-72.95,5.79-12.82,11.89-15.57,11.89-15.57s-6.43,13.69-5.49,26.89,6.49,57.53,5.86,75.14c0,0,3.77,67.28-11.32,81.11S456,431.4,446.58,431.71s-13.52-.89-13.52-.89Z"/><path class="cls-3" d="M433.06,439.43s20.27,3.14,35.46,1.57,28.81-7.86,34.57-17.29,18.33-32.48,15.19-63.91-6.29-84.86-5.76-96.39-.42-17.6,2.54-23.53a38.48,38.48,0,0,1,6.3-9.26,162.38,162.38,0,0,0-2.59,34.09c.74,17.42,7,62.63,7,79.67s2.22,44.39-6.67,65.37-25.2,34.32-41.13,35.8-24.94,2.53-45,0Z"/><path class="cls-3" d="M431.49,451.11s24.94,4.81,42.77,1.42,33.41-7.64,44.73-22.65,12.74-32.27,13.87-61.44,1.7-56.34,0-75.87-3.4-41.05-4.81-46.43-3.4-15.51-3.4-15.51a66.55,66.55,0,0,1,9.28,22.3c2.61,12.74,6,34,6.29,63.7s.85,52.66-1.42,74.18-9.91,42.75-21.52,51.53-28,17-45.83,17-40-3.11-40-3.11Z"/><path class="cls-3" d="M430.13,460.44s28.94,6.21,46.75,3.51,40.5-6.73,49.95-21.19,17.83-29.16,19.18-48.82,5.67-48,2.7-79.08-4-54.83-7.11-64.55-11-18.1-11-18.1,12.66,5.18,15.32,17.56a299,299,0,0,1,6.48,41.06c2.16,23.77,3,48.08,1.62,64.82s-1,54.29-13.69,74.55-20,35.38-63.47,37.54-46.73-3.51-46.73-3.51Z"/></g></svg>