<svg xmlns="http://www.w3.org/2000/svg" xmlns:xlink="http://www.w3.org/1999/xlink" viewBox="0 0 800 800"><defs><style>.cls-1{fill:none;}.cls-2{clip-path:url(#clip-path);}.cls-3{fill:#48484a;}.cls-4{fill:#58585a;}.cls-5{fill:#6b6b6d;}.cls-6{fill:#215c2e;}.cls-7{fill:#fff;opacity:0.11;}.cls-8{clip-path:url(#clip-path-2);}.cls-9{fill:#44456e;}.cls-10{fill:#575a91;}.cls-11{fill:#7474b0;}</style><clipPath id="clip-path"><rect class="cls-1" width="800" height="800"/></clipPath><clipPath id="clip-path-2"/></defs><title>blue_stone</title><g id="Stone_Floor" data-name="Stone Floor"><g class="cls-2"><rect class="cls-3" width="800" height="800"/><polygon class="cls-4" points="626.25 536.05 626.25 447.15 630.88 442.06 725.8 442.06 792.93 442.06 795.25 543.92 775.8 546.24 632.27 546.24 626.25 536.05"/><polygon class="cls-4" points="626.94 553.57 648.47 549.28 784.18 549.28 789.42 553.57 789.42 655.47 791.8 706.42 630.85 706.42 626.25 699.76 626.94 553.57"/><polygon class="cls-4" points="693.12 715.56 700.65 709.48 782.04 710.64 790.44 715.56 790.44 783.34 780.02 790.29 699.2 792.9 693.12 785.65 693.12 715.56"/><polygon class="cls-4" points="546.68 788.45 546.68 719.54 556.1 709.48 684.52 709.48 687.88 792.9 556.77 794.5 546.68 788.45"/><polygon class="cls-4" points="537.61 794.5 542.31 723.24 528.53 709.48 369.52 709.48 362.8 723.91 362.8 791.14 394.39 794.5 537.61 794.5"/><polygon class="cls-4" points="362.8 702.39 371.87 706.09 465.67 706.09 470.37 695 470.37 556.83 469.03 551.11 462.3 549.43 368.85 549.43 358.76 557.16 362.8 702.39"/><polygon class="cls-4" points="10.01 786.75 10.01 637.05 10.01 557.45 13.17 549.02 147.59 549.43 321.01 549.43 349.91 551.08 355.22 560.3 356.62 751.99 349.35 765.28 303.77 791.57 48.45 789.89 10.01 786.75"/><polygon class="cls-4" points="479.18 693.04 478.3 572.86 476.25 452.68 478.71 444.07 611.2 442.06 620.63 453.09 620.63 693.04 612.43 706.42 488.97 703.3 479.18 693.04"/><polygon class="cls-4" points="8.45 544.05 77.56 542.86 85.04 534.48 86.23 445.02 77.86 440.53 8.45 440.53 5.45 450.4 3.06 537.17 8.45 544.05"/><polygon class="cls-4" points="5.15 433.65 72.77 434.85 86.23 415.1 85.34 190.71 74.57 183.23 7.25 184.72 5.15 208.06 5.15 433.65"/><polygon class="cls-4" points="88.03 192.5 96.11 184.72 174.79 182.03 181.98 192.5 181.98 268.2 170.01 278.67 94.61 278.67 88.03 267.6 88.03 192.5"/><polygon class="cls-4" points="92.28 535.73 92.28 484.94 92.28 318.13 92.28 284.65 158.08 281.19 261.98 281.19 266.6 292.73 266.6 528.8 253.32 541.5 200.22 541.5 147.69 544.05 109.6 540.92 92.28 535.73"/><polygon class="cls-4" points="272.37 530.54 272.37 434.85 276.41 386.24 350.87 386.24 428.79 386.24 467.46 386.24 470.37 426.64 466.31 541.5 368.18 544.05 283.33 544.05 272.37 530.54"/><polygon class="cls-4" points="272.37 325.49 269.86 284.48 280.21 278.67 463.67 281.19 470.37 284.97 470.37 373.25 455.78 382.62 287.61 382.62 272.37 374.73 272.37 325.49"/><polygon class="cls-4" points="186.77 272.48 186.77 174.8 190.16 104.68 188.47 11.36 201.76 6.52 349.25 6.52 356.99 16.68 356.99 171.41 356.99 269.09 343.93 275.86 186.77 272.48"/><polygon class="cls-4" points="5.15 177.53 86.23 180 170.99 177.53 181.98 157.28 181.98 14.55 174.94 8.62 9.98 6.52 5.15 25.91 5.15 177.53"/><polygon class="cls-4" points="363.91 193.49 372.6 185.76 454.68 185.76 470.37 189.62 470.37 268.32 462.41 275.86 370.11 275.86 361.5 270.74 363.91 193.49"/><polygon class="cls-4" points="361.5 168.38 361.5 6.52 380.33 3.25 533.38 3.25 542.07 9.53 542.07 87.75 542.07 168.38 531.93 179.97 373.08 179.97 361.5 168.38"/><polygon class="cls-4" points="548.35 72.3 576.83 77.61 676.29 77.61 689.81 72.3 689.81 8.56 682.57 3.25 553.66 3.25 550.76 10.5 548.35 72.3"/><polygon class="cls-4" points="545.93 86.78 545.93 162.58 552.21 179.97 672.91 179.97 683.74 178.18 689.81 169.21 689.81 86.78 684.09 79.52 557.84 81.24 545.93 86.78"/><polygon class="cls-4" points="694.43 29.52 694.43 8.75 721.89 3.25 793.86 6.15 796.09 16.39 796.09 171.99 788.3 179.97 702.22 181.64 694.43 173.85 694.43 29.52"/><polygon class="cls-4" points="476.25 425.18 494.65 437.99 752.21 437.99 795.25 431.59 796.09 185.76 788.08 185.76 498.49 185.76 483.12 204.78 476.25 218.24 476.25 425.18"/><polygon class="cls-4" points="626.25 536.05 626.25 447.15 630.88 442.06 725.8 442.06 792.93 442.06 795.25 543.92 775.8 546.24 632.27 546.24 626.25 536.05"/><polygon class="cls-4" points="626.94 553.57 648.47 549.28 784.18 549.28 789.42 553.57 789.42 655.47 791.8 706.42 630.85 706.42 626.25 699.76 626.94 553.57"/><polygon class="cls-4" points="693.12 715.56 700.65 709.48 782.04 710.64 790.44 715.56 790.44 783.34 780.02 790.29 699.2 792.9 693.12 785.65 693.12 715.56"/><polygon class="cls-4" points="546.68 788.45 546.68 719.54 556.1 709.48 684.52 709.48 687.88 792.9 556.77 794.5 546.68 788.45"/><polygon class="cls-4" points="537.61 794.5 542.31 723.24 528.53 709.48 369.52 709.48 362.8 723.91 362.8 791.14 394.39 794.5 537.61 794.5"/><polygon class="cls-4" points="362.8 702.39 371.87 706.09 465.67 706.09 470.37 695 470.37 556.83 469.03 551.11 462.3 549.43 368.85 549.43 358.76 557.16 362.8 702.39"/><polygon class="cls-4" points="10.01 786.75 10.01 637.05 10.01 557.45 13.17 549.02 147.59 549.43 321.01 549.43 349.91 551.08 355.22 560.3 356.62 751.99 349.35 765.28 303.77 791.57 48.45 789.89 10.01 786.75"/><polygon class="cls-4" points="479.18 693.04 478.3 572.86 476.25 452.68 478.71 444.07 611.2 442.06 620.63 453.09 620.63 693.04 612.43 706.42 488.97 703.3 479.18 693.04"/><polygon class="cls-4" points="8.45 544.05 77.56 542.86 85.04 534.48 86.23 445.02 77.86 440.53 8.45 440.53 5.45 450.4 3.06 537.17 8.45 544.05"/><polygon class="cls-4" points="5.15 433.65 72.77 434.85 86.23 415.1 85.34 190.71 74.57 183.23 7.25 184.72 5.15 208.06 5.15 433.65"/><polygon class="cls-4" points="88.03 192.5 96.11 184.72 174.79 182.03 181.98 192.5 181.98 268.2 170.01 278.67 94.61 278.67 88.03 267.6 88.03 192.5"/><polygon class="cls-4" points="92.28 535.73 92.28 484.94 92.28 318.13 92.28 284.65 158.08 281.19 261.98 281.19 266.6 292.73 266.6 528.8 253.32 541.5 200.22 541.5 147.69 544.05 109.6 540.92 92.28 535.73"/><polygon class="cls-4" points="272.37 530.54 272.37 434.85 276.41 386.24 350.87 386.24 428.79 386.24 467.46 386.24 470.37 426.64 466.31 541.5 368.18 544.05 283.33 544.05 272.37 530.54"/><polygon class="cls-4" points="272.37 325.49 269.86 284.48 280.21 278.67 463.67 281.19 470.37 284.97 470.37 373.25 455.78 382.62 287.61 382.62 272.37 374.73 272.37 325.49"/><polygon class="cls-4" points="186.77 272.48 186.77 174.8 190.16 104.68 188.47 11.36 201.76 6.52 349.25 6.52 356.99 16.68 356.99 171.41 356.99 269.09 343.93 275.86 186.77 272.48"/><polygon class="cls-4" points="5.15 177.53 86.23 180 170.99 177.53 181.98 157.28 181.98 14.55 174.94 8.62 9.98 6.52 5.15 25.91 5.15 177.53"/><polygon class="cls-4" points="363.91 193.49 372.6 185.76 454.68 185.76 470.37 189.62 470.37 268.32 462.41 275.86 370.11 275.86 361.5 270.74 363.91 193.49"/><polygon class="cls-4" points="361.5 168.38 361.5 6.52 380.33 3.25 533.38 3.25 542.07 9.53 542.07 87.75 542.07 168.38 531.93 179.97 373.08 179.97 361.5 168.38"/><polygon class="cls-4" points="548.35 72.3 576.83 77.61 676.29 77.61 689.81 72.3 689.81 8.56 682.57 3.25 553.66 3.25 550.76 10.5 548.35 72.3"/><polygon class="cls-4" points="545.93 86.78 545.93 162.58 552.21 179.97 672.91 179.97 683.74 178.18 689.81 169.21 689.81 86.78 684.09 79.52 557.84 81.24 545.93 86.78"/><polygon class="cls-4" points="694.43 29.52 694.43 8.75 721.89 3.25 793.86 6.15 796.09 16.39 796.09 171.99 788.3 179.97 702.22 181.64 694.43 173.85 694.43 29.52"/><polygon class="cls-4" points="476.25 425.18 494.65 437.99 752.21 437.99 795.25 431.59 796.09 185.76 788.08 185.76 498.49 185.76 483.12 204.78 476.25 218.24 476.25 425.18"/><polygon class="cls-5" points="695.57 717.63 702.22 712.5 781.17 713.1 787.26 718.67 787.26 780.51 777.31 785.94 702.12 787.89 696.69 781.16 695.57 717.63"/><polygon class="cls-5" points="683.22 789.4 681.35 757.95 670.11 722.75 644.65 718.63 635.29 712.5 559.65 712.5 550.29 722.37 552.16 780.41 560.77 784.91 683.22 789.4"/><polygon class="cls-5" points="638.66 560.61 649.52 552.75 735.27 552.75 773.46 556.68 783.95 563.23 787.26 611.91 782.82 623.14 787.26 645.61 787.26 685.3 782.82 696.91 748 703.28 722.91 703.28 635.29 703.28 629.3 697.96 631.39 574.24 638.66 560.61"/><polygon class="cls-5" points="634.15 536.41 639.9 541.25 667.43 541.25 743.65 538.83 779.35 541.25 785.7 536.41 789.33 446.56 743.65 444.14 711.74 447.47 648.07 447.47 634.15 451.4 632.03 486.19 634.15 536.41"/><polygon class="cls-5" points="486.31 420.8 496.23 427.62 689.02 431.34 726.83 426.07 754.11 426.07 778.91 420.8 791.8 420.8 790.07 259.01 791.8 200.74 775.19 200.74 760.93 196.4 689.81 199.5 665.46 190.82 623.31 190.82 592.32 203.22 532.8 198.26 498.09 190.82 486.31 212.51 486.31 420.8"/><polygon class="cls-5" points="491.5 447.78 561.83 452.17 603.14 447.78 612.81 457.45 612.81 615.67 604.02 628.01 612.81 670.29 612.81 692.15 609.78 700.08 554.67 700.08 490.48 700.08 481.84 692.6 480.3 568.87 487.09 549.43 480.3 527.22 480.3 480.32 483.38 453.17 491.5 447.78"/><polygon class="cls-5" points="368.14 789.4 368.14 731.69 376.36 722.5 407.78 718.15 486.09 721.05 525.25 718.15 535.4 728.3 535.4 753.78 532.98 791.57 448.03 791.57 368.14 789.4"/><polygon class="cls-5" points="364.37 696.44 372.44 703.32 459.8 701.82 467.57 694.64 464.58 559.43 455.91 553.45 371.37 553.45 364.37 560.33 364.37 696.44"/><polygon class="cls-5" points="233.61 786.76 258.17 786.76 317.73 775.71 344.75 754.86 347.82 684.83 335.54 654.13 347.82 624.66 336.15 561.41 314.05 553.45 247.12 557.73 227.47 558.34 186.32 553.45 147.64 559.57 19.3 553.45 12.55 570.01 15.62 592.73 15.01 618.52 17.46 635.71 12.55 649.22 15.01 751.99 12.55 775.71 44.65 782.47 76.41 786.76 115.71 786.76 175.27 770.18 210.27 770.8 233.61 786.76"/><polygon class="cls-5" points="281.92 534.59 276.25 507.5 279.09 494.15 276.25 396 281.92 389.7 325.39 392.85 414.57 392.85 436.89 396.63 458.3 406.08 464.6 422.46 464.6 534.59 449.65 539.67 314.05 539.67 281.92 534.59"/><polygon class="cls-5" points="107.16 301.93 142.38 289.98 248.7 286.2 258.14 291.24 261.28 323.32 262.16 530.01 253.32 541.5 215.97 539.67 194.4 532.81 174.6 530.97 151.5 541.5 139.03 539.67 101.1 536.84 92.28 482.08 98.5 465.14 95.65 334.69 107.16 301.93"/><polygon class="cls-5" points="281.74 296.76 313.77 284.89 335.5 284.89 340.42 288.48 367.07 284.89 400 286.01 462.93 287.58 465.39 352.53 465.39 367.98 454.19 378.29 387.68 378.29 354.98 375.82 342.89 369.55 324.07 370.67 317.35 378.29 286 378.29 277.49 371.12 281.74 296.76"/><polygon class="cls-5" points="14.72 535.66 24.88 541.5 69.34 538.58 77.39 529.36 77.39 475.8 78.79 467.05 49.38 452.35 31.53 452.35 18.93 449.2 10.01 449.2 7.02 454.1 7.02 526.21 14.72 535.66"/><polygon class="cls-5" points="12.5 422.07 51.9 422.07 70.81 403.16 76.33 400 76.33 362.58 73.17 260.53 74.36 208.13 66.47 204.58 40.08 195.91 10.13 199.07 6.98 213.65 8.95 384.25 12.5 422.07"/><polygon class="cls-5" points="96.81 268.41 124 273.14 155.91 270.77 171.67 273.14 177.22 268.41 177.22 191.58 172.07 189.22 101.15 191.19 96.81 194.34 96.81 268.41"/><polygon class="cls-5" points="16.25 174.4 67.76 176.14 118.39 169.16 135 169.16 164.66 163.05 177.22 145.59 177.22 21.63 172.95 12.9 73.43 12.9 52.48 15.52 35.9 15.96 24.11 22.94 9.71 20.32 11.45 60.91 9.71 75.75 16.25 174.4"/><polygon class="cls-5" points="191.72 265.62 200.01 270.42 240.17 270.42 344.48 270.42 352.34 260.38 352.34 213.68 352.34 195.91 345.79 179.97 347.98 136.42 352.34 124.2 354.09 38.22 342.3 18.14 283.81 19.88 265.05 15.52 204.38 15.52 193.46 22.5 191.72 86.23 191.72 199.71 191.72 265.62"/><polygon class="cls-5" points="361.67 265.25 370.11 275.86 458.5 275.86 465.39 270.42 465.39 197.33 456.4 190.82 371.44 190.82 363.73 199.4 361.67 265.25"/><polygon class="cls-5" points="365.61 172.49 376.51 176.31 479.52 176.31 512.46 176.31 527.17 172.49 536.28 146.88 536.28 116.05 528.57 106.23 530.67 87.31 536.28 77.61 536.28 19.34 529.97 6.52 413.53 11.64 373.71 6.52 369.51 15.52 370.91 36.16 367.56 40.43 368.44 112.05 365.61 172.49"/><polygon class="cls-5" points="551.09 154.16 556.75 168.73 604.51 171.56 625.55 173.99 672.91 179.97 684.24 169.95 682.21 104.38 665.62 92.45 658.33 85.36 582.65 85.36 575.37 88.2 552.3 85.36 551.09 154.16"/><polygon class="cls-5" points="551.09 15.44 564.78 6.52 647.2 8.34 678.92 6.52 678.92 40.43 678.92 66.88 671.77 71.35 599.83 71.35 584.18 71.35 577.48 65.54 553.8 63.76 551.09 40.43 551.09 15.44"/><polygon class="cls-5" points="699.75 171.72 705.56 178.01 745.26 178.01 791.8 176.38 791.8 57.96 796.09 16.39 782.05 16.39 740.9 16.39 697.33 26.49 702.17 129.74 699.75 171.72"/><path class="cls-6" d="M616.75,526.6s-7.68,6.28-1.9,26.92-.92,31.89,2.43,42.63,9.4,12.14,9.48-3.4-2.37-33.94,5.28-36,12.77-7,25-4,16.37-2.07,21-2.77,16.75-1.57,3.07-5.15-24-6.09-28.69-4.47-12,1.08-13.65-.9-8.17,1.62-9.47-.54-1.3-4.85-.76-9.88-1.08-21.2-4.49-14.91S619.51,522,616.75,526.6Z"/><path class="cls-6" d="M69.79,193.42c4.36,3.88,13.56,6.78,12.11,18.89s-1.15,24.22.15,28.58.32,16.22,0,19.12,2.2,15.54,4.18,13.13,4.44-10.45,4.44-15.59S86.73,238.34,88,232.31s2.86-23.9,2.64-30.38,3.13-17,9.83-14.52,14.29-2.46,18.09-2.23,13.2.2,13.18-3.16-5.58-4.22-15-4-26.52-3.12-30.57-1.9-5.87,3.59-11,2.41-19.53,2-12.49,8.42Z"/><path class="cls-6" d="M226.46,270.42c12.66,1,23.46,3.8,35.7,0s27.64.1,22.84,4.17-9.69,9.32-8.75,16-4.79,13.74-3.88,21,4.92,20.11,3.88,25.19-.62,19.62-2.25,22.77,0,14.77-6.32,1.21-2.4-28.34-3.86-33.91,2.36-27.84-1.67-31.74-12.14-15.5-17-13.32-23,0-21.8-3.14S220.09,269.94,226.46,270.42Z"/><path class="cls-6" d="M354.09,160.57A100.85,100.85,0,0,1,352,137.31a223.92,223.92,0,0,1,2.07-24.68s4.57-30.38,6.47-23.26,6.79,7.12,5.06,16.61-4.26,14.71-3.94,20.88-3.28,29.9,1.13,33.7,12.18,3.25,12.95,9.49,15.19,6.17,15.19,6.17a35,35,0,0,1,13.76-3.32c7.12,0,17.56,6.07,18,8.73s-18.18,1.31-21.67,4.12-14.88,4.71-19.15,3.76-13.31,4.27-13.78,7.12-5.48,14.71-5.34,20.88-4,13.28-4,13.28-6.57-22.33-6.42-34.9-6-18.73-6-25.85S352.36,167.21,354.09,160.57Z"/><path class="cls-6" d="M661,77.61c9.55.88,15-.91,15.81-4.24s9.71-2.22,9.71-6.66-1.11-10.26,0-16.92,2.07-20.24,5-15.53,6.32,17.43,5.82,21.18-2.14,14.39-1.48,22.16-1.32,41.46-4.59,31.31-2-17.66-4.25-19-13.08-5.9-18-4.59S651.36,76.72,661,77.61Z"/><path class="cls-6" d="M291.36,539.67c25.35-5.11,40.9,4.09,54.86,2s43.89-2.95,39.9,7.31-15.54,3.27-14.75,17.73-7,21.94-7,31.92,7.54,65.07,3.77,71.44-15.43,23.43-15.43.19,2-51.18-8-55.66-4-40.92-6-44.42-30.47-24-47.42-19.46-46.21-.15-55.77.7-26.52-1.17-19-7.39,14.67-1.77,27.43-4.39,14.81-20.3,22.61-18.8S282.65,541.42,291.36,539.67Z"/><path class="cls-6" d="M533.6,781.84c.6-9.4,1.81-20.22,6.39-23.53s2.08-17.46,6.56-15.15-1.49,17.67,1.89,22.25,3.05,14.65,7.69,17.07,1.19,8.93,6.22,10.41,18.23,4.48,22.33,4,23.69,5.92,10,6.38-31.89,6.38-41,4.1-37.82-2.28-37.82-2.28-32.81-7.69-25.06-10.62S533,791.24,533.6,781.84Z"/><path class="cls-6" d="M534.3-16.56c.6-9.4,1.81-20.22,6.39-23.53s2.08-17.46,6.56-15.15S545.76-37.58,549.14-33s3.05,14.65,7.69,17.07S558-7,563-5.51s18.23,4.48,22.33,4,23.69,5.92,10,6.38a255.47,255.47,0,0,0-36.1,3.84c-2,.36-5,22.6-10.25,22.28-4.5-.28-2.52-10.65-6.28-17.58-.58-1.06-5.81-2.2-11.31-.74-2.78.74-8.46-3.54-14.88-6S483.77-1,491.51-3.9,533.7-7.17,534.3-16.56Z"/><path class="cls-6" d="M750.26,433.68a86,86,0,0,0,15.18-2.34c7.06-1.9,10.95-7.55,15.18-6.84s11.38-1.07,11.17-12,5.78-15.18,6.13-17,6-12.91,5.65,4.67S805.7,416,806.76,421s-4.24,12.36.71,15.18,24,1.23,28.25,5.91,15.89,9.22,0,5.72-31.78-2.48-30,1.24-2.83,10.08-3.18,15-2.12,23.31-5.48,17-4.65-18.36-7.71-22.6,2.35-8.48,0-11.83-18.46,1.72-26.3-1.39-31.85-1.61-25.14-5.14S744.2,434.28,750.26,433.68Z"/><path class="cls-6" d="M-48.91,433.68a86,86,0,0,0,15.18-2.34c7.06-1.9,10.95-7.55,15.18-6.84s11.38-1.07,11.17-12,5.78-15.18,6.13-17,6-12.91,5.65,4.67S6.53,416,7.59,421s2.49,13.46,8.16,12.87,21.67-5.65,25.91-1,18.89,14.76,3,11.26-32.61-3-30.84.73S3.7,459.1,3.35,464s-2.12,23.31-5.48,17-4.65-18.36-7.71-22.6,2.35-8.48,0-11.83-18.46,1.72-26.3-1.39S-68,443.57-61.27,440-55,434.28-48.91,433.68Z"/><rect class="cls-7" width="800" height="800"/></g></g><g id="Stone_blue" data-name="Stone blue"><g class="cls-8"><rect class="cls-9" width="800" height="800"/><polygon class="cls-10" points="626.25 536.05 626.25 447.15 630.88 442.06 725.8 442.06 792.93 442.06 795.25 543.92 775.8 546.24 632.27 546.24 626.25 536.05"/><polygon class="cls-10" points="626.94 553.57 648.47 549.28 784.18 549.28 789.42 553.57 789.42 655.47 791.8 706.42 630.85 706.42 626.25 699.76 626.94 553.57"/><polygon class="cls-10" points="693.12 715.56 700.65 709.48 782.04 710.64 790.44 715.56 790.44 783.34 780.02 790.29 699.2 792.9 693.12 785.65 693.12 715.56"/><polygon class="cls-10" points="546.68 788.45 546.68 719.54 556.1 709.48 684.52 709.48 687.88 792.9 556.77 794.5 546.68 788.45"/><polygon class="cls-10" points="537.61 794.5 542.31 723.24 528.53 709.48 369.52 709.48 362.8 723.91 362.8 791.14 394.39 794.5 537.61 794.5"/><polygon class="cls-10" points="362.8 702.39 371.87 706.09 465.67 706.09 470.37 695 470.37 556.83 469.03 551.11 462.3 549.43 368.85 549.43 358.76 557.16 362.8 702.39"/><polygon class="cls-10" points="10.01 786.75 10.01 637.05 10.01 557.45 13.17 549.02 147.59 549.43 321.01 549.43 349.91 551.08 355.22 560.3 356.62 751.99 349.35 765.28 303.77 791.57 48.45 789.89 10.01 786.75"/><polygon class="cls-10" points="479.18 693.04 478.3 572.86 476.25 452.68 478.71 444.07 611.2 442.06 620.63 453.09 620.63 693.04 612.43 706.42 488.97 703.3 479.18 693.04"/><polygon class="cls-10" points="8.45 544.05 77.56 542.86 85.04 534.48 86.23 445.02 77.86 440.53 8.45 440.53 5.45 450.4 3.06 537.17 8.45 544.05"/><polygon class="cls-10" points="5.15 433.65 72.77 434.85 86.23 415.1 85.34 190.71 74.57 183.23 7.25 184.72 5.15 208.06 5.15 433.65"/><polygon class="cls-10" points="88.03 192.5 96.11 184.72 174.79 182.03 181.98 192.5 181.98 268.2 170.01 278.67 94.61 278.67 88.03 267.6 88.03 192.5"/><polygon class="cls-10" points="92.28 535.73 92.28 484.94 92.28 318.13 92.28 284.65 158.08 281.19 261.98 281.19 266.6 292.73 266.6 528.8 253.32 541.5 200.22 541.5 147.69 544.05 109.6 540.92 92.28 535.73"/><polygon class="cls-10" points="272.37 530.54 272.37 434.85 276.41 386.24 350.87 386.24 428.79 386.24 467.46 386.24 470.37 426.64 466.31 541.5 368.18 544.05 283.33 544.05 272.37 530.54"/><polygon class="cls-10" points="272.37 325.49 269.86 284.48 280.21 278.67 463.67 281.19 470.37 284.97 470.37 373.25 455.78 382.62 287.61 382.62 272.37 374.73 272.37 325.49"/><polygon class="cls-10" points="186.77 272.48 186.77 174.8 190.16 104.68 188.47 11.36 201.76 6.52 349.25 6.52 356.99 16.68 356.99 171.41 356.99 269.09 343.93 275.86 186.77 272.48"/><polygon class="cls-10" points="5.15 177.53 86.23 180 170.99 177.53 181.98 157.28 181.98 14.55 174.94 8.62 9.98 6.52 5.15 25.91 5.15 177.53"/><polygon class="cls-10" points="363.91 193.49 372.6 185.76 454.68 185.76 470.37 189.62 470.37 268.32 462.41 275.86 370.11 275.86 361.5 270.74 363.91 193.49"/><polygon class="cls-10" points="361.5 168.38 361.5 6.52 380.33 3.25 533.38 3.25 542.07 9.53 542.07 87.75 542.07 168.38 531.93 179.97 373.08 179.97 361.5 168.38"/><polygon class="cls-10" points="548.35 72.3 576.83 77.61 676.29 77.61 689.81 72.3 689.81 8.56 682.57 3.25 553.66 3.25 550.76 10.5 548.35 72.3"/><polygon class="cls-10" points="545.93 86.78 545.93 162.58 552.21 179.97 672.91 179.97 683.74 178.18 689.81 169.21 689.81 86.78 684.09 79.52 557.84 81.24 545.93 86.78"/><polygon class="cls-10" points="694.43 29.52 694.43 8.75 721.89 3.25 793.86 6.15 796.09 16.39 796.09 171.99 788.3 179.97 702.22 181.64 694.43 173.85 694.43 29.52"/><polygon class="cls-10" points="476.25 425.18 494.65 437.99 752.21 437.99 795.25 431.59 796.09 185.76 788.08 185.76 498.49 185.76 483.12 204.78 476.25 218.24 476.25 425.18"/><polygon class="cls-10" points="626.25 536.05 626.25 447.15 630.88 442.06 725.8 442.06 792.93 442.06 795.25 543.92 775.8 546.24 632.27 546.24 626.25 536.05"/><polygon class="cls-10" points="626.94 553.57 648.47 549.28 784.18 549.28 789.42 553.57 789.42 655.47 791.8 706.42 630.85 706.42 626.25 699.76 626.94 553.57"/><polygon class="cls-10" points="693.12 715.56 700.65 709.48 782.04 710.64 790.44 715.56 790.44 783.34 780.02 790.29 699.2 792.9 693.12 785.65 693.12 715.56"/><polygon class="cls-10" points="546.68 788.45 546.68 719.54 556.1 709.48 684.52 709.48 687.88 792.9 556.77 794.5 546.68 788.45"/><polygon class="cls-10" points="537.61 794.5 542.31 723.24 528.53 709.48 369.52 709.48 362.8 723.91 362.8 791.14 394.39 794.5 537.61 794.5"/><polygon class="cls-10" points="362.8 702.39 371.87 706.09 465.67 706.09 470.37 695 470.37 556.83 469.03 551.11 462.3 549.43 368.85 549.43 358.76 557.16 362.8 702.39"/><polygon class="cls-10" points="10.01 786.75 10.01 637.05 10.01 557.45 13.17 549.02 147.59 549.43 321.01 549.43 349.91 551.08 355.22 560.3 356.62 751.99 349.35 765.28 303.77 791.57 48.45 789.89 10.01 786.75"/><polygon class="cls-10" points="479.18 693.04 478.3 572.86 476.25 452.68 478.71 444.07 611.2 442.06 620.63 453.09 620.63 693.04 612.43 706.42 488.97 703.3 479.18 693.04"/><polygon class="cls-10" points="8.45 544.05 77.56 542.86 85.04 534.48 86.23 445.02 77.86 440.53 8.45 440.53 5.45 450.4 3.06 537.17 8.45 544.05"/><polygon class="cls-10" points="5.15 433.65 72.77 434.85 86.23 415.1 85.34 190.71 74.57 183.23 7.25 184.72 5.15 208.06 5.15 433.65"/><polygon class="cls-10" points="88.03 192.5 96.11 184.72 174.79 182.03 181.98 192.5 181.98 268.2 170.01 278.67 94.61 278.67 88.03 267.6 88.03 192.5"/><polygon class="cls-10" points="92.28 535.73 92.28 484.94 92.28 318.13 92.28 284.65 158.08 281.19 261.98 281.19 266.6 292.73 266.6 528.8 253.32 541.5 200.22 541.5 147.69 544.05 109.6 540.92 92.28 535.73"/><polygon class="cls-10" points="272.37 530.54 272.37 434.85 276.41 386.24 350.87 386.24 428.79 386.24 467.46 386.24 470.37 426.64 466.31 541.5 368.18 544.05 283.33 544.05 272.37 530.54"/><polygon class="cls-10" points="272.37 325.49 269.86 284.48 280.21 278.67 463.67 281.19 470.37 284.97 470.37 373.25 455.78 382.62 287.61 382.62 272.37 374.73 272.37 325.49"/><polygon class="cls-10" points="186.77 272.48 186.77 174.8 190.16 104.68 188.47 11.36 201.76 6.52 349.25 6.52 356.99 16.68 356.99 171.41 356.99 269.09 343.93 275.86 186.77 272.48"/><polygon class="cls-10" points="5.15 177.53 86.23 180 170.99 177.53 181.98 157.28 181.98 14.55 174.94 8.62 9.98 6.52 5.15 25.91 5.15 177.53"/><polygon class="cls-10" points="363.91 193.49 372.6 185.76 454.68 185.76 470.37 189.62 470.37 268.32 462.41 275.86 370.11 275.86 361.5 270.74 363.91 193.49"/><polygon class="cls-10" points="361.5 168.38 361.5 6.52 380.33 3.25 533.38 3.25 542.07 9.53 542.07 87.75 542.07 168.38 531.93 179.97 373.08 179.97 361.5 168.38"/><polygon class="cls-10" points="548.35 72.3 576.83 77.61 676.29 77.61 689.81 72.3 689.81 8.56 682.57 3.25 553.66 3.25 550.76 10.5 548.35 72.3"/><polygon class="cls-10" points="545.93 86.78 545.93 162.58 552.21 179.97 672.91 179.97 683.74 178.18 689.81 169.21 689.81 86.78 684.09 79.52 557.84 81.24 545.93 86.78"/><polygon class="cls-10" points="694.43 29.52 694.43 8.75 721.89 3.25 793.86 6.15 796.09 16.39 796.09 171.99 788.3 179.97 702.22 181.64 694.43 173.85 694.43 29.52"/><polygon class="cls-10" points="476.25 425.18 494.65 437.99 752.21 437.99 795.25 431.59 796.09 185.76 788.08 185.76 498.49 185.76 483.12 204.78 476.25 218.24 476.25 425.18"/><g id="tops"><polygon class="cls-11" points="695.57 717.63 702.22 712.5 781.17 713.1 787.26 718.67 787.26 780.51 777.31 785.94 702.12 787.89 696.69 781.16 695.57 717.63"/><polygon class="cls-11" points="683.22 789.4 681.35 757.95 670.11 722.75 644.65 718.63 635.29 712.5 559.65 712.5 550.29 722.37 552.16 780.41 560.77 784.91 683.22 789.4"/><polygon class="cls-11" points="638.66 560.61 649.52 552.75 735.27 552.75 773.46 556.68 783.95 563.23 787.26 611.91 782.82 623.14 787.26 645.61 787.26 685.3 782.82 696.91 748 703.28 722.91 703.28 635.29 703.28 629.3 697.96 631.39 574.24 638.66 560.61"/><polygon class="cls-11" points="634.15 536.41 639.9 541.25 667.43 541.25 743.65 538.83 779.35 541.25 785.7 536.41 789.33 446.56 743.65 444.14 711.74 447.47 648.07 447.47 634.15 451.4 632.03 486.19 634.15 536.41"/><polygon class="cls-11" points="486.31 420.8 496.23 427.62 689.02 431.34 726.83 426.07 754.11 426.07 778.91 420.8 791.8 420.8 790.07 259.01 791.8 200.74 775.19 200.74 760.93 196.4 689.81 199.5 665.46 190.82 623.31 190.82 592.32 203.22 532.8 198.26 498.09 190.82 486.31 212.51 486.31 420.8"/><polygon class="cls-11" points="491.5 447.78 561.83 452.17 603.14 447.78 612.81 457.45 612.81 615.67 604.02 628.01 612.81 670.29 612.81 692.15 609.78 700.08 554.67 700.08 490.48 700.08 481.84 692.6 480.3 568.87 487.09 549.43 480.3 527.22 480.3 480.32 483.38 453.17 491.5 447.78"/><polygon class="cls-11" points="368.14 789.4 368.14 731.69 376.36 722.5 407.78 718.15 486.09 721.05 525.25 718.15 535.4 728.3 535.4 753.78 532.98 791.57 448.03 791.57 368.14 789.4"/><polygon class="cls-11" points="364.37 696.44 372.44 703.32 459.8 701.82 467.57 694.64 464.58 559.43 455.91 553.45 371.37 553.45 364.37 560.33 364.37 696.44"/><polygon class="cls-11" points="233.61 786.76 258.17 786.76 317.73 775.71 344.75 754.86 347.82 684.83 335.54 654.13 347.82 624.66 336.15 561.41 314.05 553.45 247.12 557.73 227.47 558.34 186.32 553.45 147.64 559.57 19.3 553.45 12.55 570.01 15.62 592.73 15.01 618.52 17.46 635.71 12.55 649.22 15.01 751.99 12.55 775.71 44.65 782.47 76.41 786.76 115.71 786.76 175.27 770.18 210.27 770.8 233.61 786.76"/><polygon class="cls-11" points="281.92 534.59 276.25 507.5 279.09 494.15 276.25 396 281.92 389.7 325.39 392.85 414.57 392.85 436.89 396.63 458.3 406.08 464.6 422.46 464.6 534.59 449.65 539.67 314.05 539.67 281.92 534.59"/><polygon class="cls-11" points="107.16 301.93 142.38 289.98 248.7 286.2 258.14 291.24 261.28 323.32 262.16 530.01 253.32 541.5 215.97 539.67 194.4 532.81 174.6 530.97 151.5 541.5 139.03 539.67 101.1 536.84 92.28 482.08 98.5 465.14 95.65 334.69 107.16 301.93"/><polygon class="cls-11" points="281.74 296.76 313.77 284.89 335.5 284.89 340.42 288.48 367.07 284.89 400 286.01 462.93 287.58 465.39 352.53 465.39 367.98 454.19 378.29 387.68 378.29 354.98 375.82 342.89 369.55 324.07 370.67 317.35 378.29 286 378.29 277.49 371.12 281.74 296.76"/><polygon class="cls-11" points="14.72 535.66 24.88 541.5 69.34 538.58 77.39 529.36 77.39 475.8 78.79 467.05 49.38 452.35 31.53 452.35 18.93 449.2 10.01 449.2 7.02 454.1 7.02 526.21 14.72 535.66"/><polygon class="cls-11" points="12.5 422.07 51.9 422.07 70.81 403.16 76.33 400 76.33 362.58 73.17 260.53 74.36 208.13 66.47 204.58 40.08 195.91 10.13 199.07 6.98 213.65 8.95 384.25 12.5 422.07"/><polygon class="cls-11" points="96.81 268.41 124 273.14 155.91 270.77 171.67 273.14 177.22 268.41 177.22 191.58 172.07 189.22 101.15 191.19 96.81 194.34 96.81 268.41"/><polygon class="cls-11" points="16.25 174.4 67.76 176.14 118.39 169.16 135 169.16 164.66 163.05 177.22 145.59 177.22 21.63 172.95 12.9 73.43 12.9 52.48 15.52 35.9 15.96 24.11 22.94 9.71 20.32 11.45 60.91 9.71 75.75 16.25 174.4"/><polygon class="cls-11" points="191.72 265.62 200.01 270.42 240.17 270.42 344.48 270.42 352.34 260.38 352.34 213.68 352.34 195.91 345.79 179.97 347.98 136.42 352.34 124.2 354.09 38.22 342.3 18.14 283.81 19.88 265.05 15.52 204.38 15.52 193.46 22.5 191.72 86.23 191.72 199.71 191.72 265.62"/><polygon class="cls-11" points="361.67 265.25 370.11 275.86 458.5 275.86 465.39 270.42 465.39 197.33 456.4 190.82 371.44 190.82 363.73 199.4 361.67 265.25"/><polygon class="cls-11" points="365.61 172.49 376.51 176.31 479.52 176.31 512.46 176.31 527.17 172.49 536.28 146.88 536.28 116.05 528.57 106.23 530.67 87.31 536.28 77.61 536.28 19.34 529.97 6.52 413.53 11.64 373.71 6.52 369.51 15.52 370.91 36.16 367.56 40.43 368.44 112.05 365.61 172.49"/><polygon class="cls-11" points="551.09 154.16 556.75 168.73 604.51 171.56 625.55 173.99 672.91 179.97 684.24 169.95 682.21 104.38 665.62 92.45 658.33 85.36 582.65 85.36 575.37 88.2 552.3 85.36 551.09 154.16"/><polygon class="cls-11" points="551.09 15.44 564.78 6.52 647.2 8.34 678.92 6.52 678.92 40.43 678.92 66.88 671.77 71.35 599.83 71.35 584.18 71.35 577.48 65.54 553.8 63.76 551.09 40.43 551.09 15.44"/><polygon class="cls-11" points="699.75 171.72 705.56 178.01 745.26 178.01 791.8 176.38 791.8 57.96 796.09 16.39 782.05 16.39 740.9 16.39 697.33 26.49 702.17 129.74 699.75 171.72"/></g></g></g></svg>