<svg id="Wall" xmlns="http://www.w3.org/2000/svg" xmlns:xlink="http://www.w3.org/1999/xlink" viewBox="0 0 800 800"><defs><style>.cls-1{fill:none;}.cls-2{clip-path:url(#clip-path);}.cls-3{fill:#383838;}.cls-4{fill:#757575;}.cls-5{fill:#6a6b6b;}.cls-6{fill:#5e5f5f;}.cls-7{fill:#595a5a;}</style><clipPath id="clip-path"><rect class="cls-1" y="-2" width="800" height="802"/></clipPath></defs><title>wall</title><g id="Horizontal"><g class="cls-2"><polygon class="cls-3" points="954.89 805.95 -99.06 805.95 -99.06 -32.84 -6.02 -32.91 43.41 -25.28 119.67 -33.01 136.97 -33.02 200.93 -22.13 279.02 -33.14 296.48 -33.15 366.69 -17.82 443.7 -33.27 456.18 -33.28 505.06 -13.41 568.4 -32.84 590.84 -32.84 654.39 -24.55 740.92 -32.84 756.44 -32.84 807.43 -14.22 873.12 -32.84 882.84 -32.84 954.89 -32.84 954.89 805.95"/><path class="cls-4" d="M74.07,275.64s.41,15.31.51,19.63c.16,7.53-.68,19.78-1,32.55a182.34,182.34,0,0,0,.51,19.31,2.36,2.36,0,0,0,2.36,2.36,128.65,128.65,0,0,0,18.44,2.07c9.76.48,23.41,0,28.56,0,10.93,0,27.48-.49,43.42-.35,9.72.09,28.44-.29,36.63.35,7,.54,15.24-1.1,20.32-1.48a3.59,3.59,0,0,0,2.94-2.94s2.4-7.84,1.26-21.84a299.92,299.92,0,0,1-.18-39c.12-2.13-1.08-11.71-1.08-11.71a2.36,2.36,0,0,0-2.36-2.36s-18.88-1.15-32.42-1.08-34.52,1.11-47.45,1.18c-23.52.12-30.56-1.41-43.63-1.17-6.12.11-23.38,1.08-23.38,1.08C76.21,272.21,74.07,274.34,74.07,275.64Z"/><path class="cls-4" d="M580.79,542.45s.41,15.31.51,19.63c.16,7.53-.68,19.78-1,32.55a182.34,182.34,0,0,0,.51,19.31,2.36,2.36,0,0,0,2.36,2.36s15.35,2.07,47,2.07c10.93,0,40.34-2,52.05-1.42,9.7.49,24.66-1.27,32.85-.64,7,.54,24.69,0,24.69,0a2.36,2.36,0,0,0,2.36-2.36s2.4-7.84,1.26-21.84a299.92,299.92,0,0,1-.18-39c.12-2.13-1.08-11.71-1.08-11.71a2.36,2.36,0,0,0-2.36-2.36,225,225,0,0,0-22.59-.89c-5.79,0-14.85,1.93-24.72,1.8-13.2-.17-27.84-2.28-38-1-8.92,1.11-33.71-1.21-46.78-1-6.12.11-23.38,1.08-23.38,1.08C582.93,539,580.79,541.15,580.79,542.45Z"/><path class="cls-5" d="M333.9,275.74s.41,15.31.51,19.63c.16,7.53-.68,19.78-1,32.55a182.34,182.34,0,0,0,.51,19.31,2.36,2.36,0,0,0,2.36,2.36s15.35,2.07,47,2.07c10.93,0,40.34-2,52.05-1.42,9.7.49,24.66-1.27,32.85-.64,7,.54,24.69,0,24.69,0a2.36,2.36,0,0,0,2.36-2.36s2.4-7.84,1.26-21.84a299.92,299.92,0,0,1-.18-39c.12-2.13-1.08-11.71-1.08-11.71a2.36,2.36,0,0,0-2.36-2.36,225,225,0,0,0-22.59-.89c-5.79,0-14.85,1.93-24.72,1.8-13.2-.17-27.84-2.28-38-1-8.92,1.11-33.71-1.21-46.78-1-6.12.11-23.38,1.08-23.38,1.08C336,272.31,333.9,274.44,333.9,275.74Z"/><path class="cls-5" d="M177.93,364.63s.41,15.31.51,19.63c.16,7.53-.68,19.78-1,32.55a182.34,182.34,0,0,0,.51,19.31,2.36,2.36,0,0,0,2.36,2.36s15.35,2.07,47,2.07c10.93,0,40.34-2,52.05-1.42,9.7.49,24.66-1.27,32.85-.64,7,.54,24.69,0,24.69,0a2.36,2.36,0,0,0,2.36-2.36s2.4-7.84,1.26-21.84a299.92,299.92,0,0,1-.18-39c.12-2.13-1.08-11.71-1.08-11.71a2.36,2.36,0,0,0-2.36-2.36,225,225,0,0,0-22.59-.89c-5.79,0-14.85,1.93-24.72,1.8-13.2-.17-27.84-2.28-38-1-8.92,1.11-33.71-1.21-46.78-1-6.12.11-23.38,1.08-23.38,1.08C180.07,361.19,177.93,363.33,177.93,364.63Z"/><path class="cls-4" d="M434.86,452.7s.41,15.31.51,19.63c.16,7.53-.68,19.78-1,32.55a182.34,182.34,0,0,0,.51,19.31,2.36,2.36,0,0,0,2.36,2.36s15.35,2.07,47,2.07c10.93,0,40.34-2,52.05-1.42,9.7.49,24.66-1.27,32.85-.64,7,.54,24.69,0,24.69,0a2.36,2.36,0,0,0,2.36-2.36s2.4-7.84,1.26-21.84a299.92,299.92,0,0,1-.18-39c.12-2.13-1.08-11.71-1.08-11.71a2.36,2.36,0,0,0-2.36-2.36,225,225,0,0,0-22.59-.89c-5.79,0-14.85,1.93-24.72,1.8-13.2-.17-27.84-2.28-38-1-8.92,1.11-33.71-1.21-46.78-1-6.12.11-23.38,1.08-23.38,1.08C437,449.27,434.86,451.4,434.86,452.7Z"/><path class="cls-4" d="M574.94,365.3s.41,15.31.51,19.63c.16,7.53,1.48,14.39,1.14,27.15-.28,10.69-1.65,23.62-1.65,23.62,0,3.42,1.92,3.23,4.59,3.48a33.36,33.36,0,0,1,4.07-.2c3.43.28,15.37,1.71,40.69.07,10.91-.71,40.34.15,52.05.73,9.7.49,11.72-1.27,19.91-.64,7,.54,24.69,0,24.69,0a2.36,2.36,0,0,0,2.36-2.36s2.4-7.84,1.26-21.84a299.92,299.92,0,0,1-.18-39c.12-2.13-1.08-11.71-1.08-11.71a2.36,2.36,0,0,0-2.36-2.36,225,225,0,0,0-22.59-.89c-13.54.07-29.42,2.26-47.38,2.08-23.52-.23-36.14-2.51-49.21-2.27-6.12.11-23.38,1.08-23.38,1.08C577.08,361.86,574.94,364,574.94,365.3Z"/><path class="cls-6" d="M635,276.41s.41,15.31.51,19.63c.16,7.53,1.48,14.39,1.14,27.15-.28,10.69-1.65,23.62-1.65,23.62,0,3.42,1.92,3.23,4.59,3.48a33.36,33.36,0,0,1,4.07-.2c3.43.28,3.51,1.71,28.83.07,10.91-.71,23.08.15,34.79.73,9.7.49,11.72-1.27,19.91-.64,7,.54,32.24,0,32.24,0a2.36,2.36,0,0,0,2.36-2.36s2.4-7.84,1.26-21.84a299.92,299.92,0,0,1-.18-39c.12-2.13-1.08-11.71-1.08-11.71a2.36,2.36,0,0,0-2.36-2.36s-16.6-1-30.14-.89-22.06,2-32.28,2.08c-12.24.05-22.12-2.51-35.19-2.27-6.12.11-23.38,1.08-23.38,1.08C637.16,273,635,275.11,635,276.41Z"/><path class="cls-6" d="M349.8,365.78s.41,15.31.51,19.63c.16,7.53.4,14.39.06,27.15-.28,10.69-.57,23.62-.57,23.62,0,3.42,1.92,3.23,4.59,3.48a33.36,33.36,0,0,1,4.07-.2c3.43.28,13.22,1.71,38.54.07,10.91-.71,17.68.15,29.4.73,9.7.49,6.32-1.27,14.51-.64,7,.54,24.69,0,24.69,0a2.36,2.36,0,0,0,2.36-2.36s2.4-7.84,1.26-21.84a299.92,299.92,0,0,1-.18-39c.12-2.13-1.08-11.71-1.08-11.71a2.36,2.36,0,0,0-2.36-2.36,225,225,0,0,0-22.59-.89c-13.54.07-19.24-1.32-29-1.15-23.52.41-26.44.73-39.5,1-6.12.11-21.22,1.08-21.22,1.08C351.93,362.34,349.8,364.48,349.8,365.78Z"/><path class="cls-4" d="M206.49,453.66s.41,15.31.51,19.63c.16,7.53.4,14.39.06,27.15-.28,10.69-.57,23.62-.57,23.62,0,3.42,1.92,3.23,4.59,3.48a33.36,33.36,0,0,1,4.07-.2c3.43.28,13.22,1.71,38.54.07,10.91-.71,17.68.15,29.4.73,9.7.49,6.32-1.27,14.51-.64,7,.54,24.69,0,24.69,0a2.36,2.36,0,0,0,2.36-2.36s2.4-7.84,1.26-21.84a299.92,299.92,0,0,1-.18-39c.12-2.13-1.08-11.71-1.08-11.71a2.36,2.36,0,0,0-2.36-2.36,225,225,0,0,0-22.59-.89c-13.54.07-19.24-1.32-29-1.15-23.52.41-26.44.73-39.5,1-6.12.11-21.22,1.08-21.22,1.08C208.62,450.23,206.49,452.36,206.49,453.66Z"/><path class="cls-4" d="M50.09,365.59s.41,15.31.51,19.63c.16,7.53.4,14.39.06,27.15-.28,10.69-.57,23.62-.57,23.62,0,3.42,1.92,3.23,4.59,3.48a33.36,33.36,0,0,1,4.07-.2c3.43.28,13.22,1.71,38.54.07,10.91-.71,17.68.15,29.4.73,9.7.49,6.32-1.27,14.51-.64,7,.54,24.69,0,24.69,0a2.36,2.36,0,0,0,2.36-2.36s2.4-7.84,1.26-21.84a299.92,299.92,0,0,1-.18-39c.12-2.13-1.08-11.71-1.08-11.71a2.36,2.36,0,0,0-2.36-2.36,225,225,0,0,0-22.59-.89c-13.54.07-19.24-1.32-29-1.15-23.52.41-26.44.73-39.5,1-6.12.11-21.22,1.08-21.22,1.08C52.22,362.15,50.09,364.29,50.09,365.59Z"/><path class="cls-4" d="M-67.12,365.11s.41,15.31.51,19.63c.16,7.53.4,14.39.06,27.15-.28,10.69-.57,23.62-.57,23.62,0,3.42,1.92,3.23,4.59,3.48a33.36,33.36,0,0,1,4.07-.2c3.43.28,13.22,1.71,38.54.07,10.91-.71,9.68.15,21.4.73,9.7.49,12.32-1.27,20.51-.64a153.8,153.8,0,0,0,16.69,0A2.36,2.36,0,0,0,41,436.59s2.4-7.84,1.26-21.84a299.92,299.92,0,0,1-.18-39C42.23,373.61,41,364,41,364a2.36,2.36,0,0,0-2.36-2.36s-7.06-.46-20.59-.89C9,360.5,2.48,359.61-3,359.63c-23.52.08-26.44.73-39.5,1-6.12.11-21.22,1.08-21.22,1.08C-65,361.67-67.12,363.81-67.12,365.11Z"/><path class="cls-4" d="M732.94,365.11s.41,15.31.51,19.63c.16,7.53.4,14.39.06,27.15-.28,10.69-.57,23.62-.57,23.62,0,3.42,1.92,3.23,4.59,3.48a33.36,33.36,0,0,1,4.07-.2c3.43.28,13.22,1.71,38.54.07,10.91-.71,9.68.15,21.4.73,9.7.49,12.32-1.27,20.51-.64a153.8,153.8,0,0,0,16.69,0,2.36,2.36,0,0,0,2.36-2.36s2.4-7.84,1.26-21.84a299.92,299.92,0,0,1-.18-39c.12-2.13-1.08-11.71-1.08-11.71a2.36,2.36,0,0,0-2.36-2.36s-7.06-.46-20.59-.89c-9.13-.29-15.61-1.17-21-1.15-23.52.08-26.44.73-39.5,1-6.12.11-21.22,1.08-21.22,1.08C735.08,361.67,732.94,363.81,732.94,365.11Z"/><path class="cls-6" d="M608.08,454.15s.41,15.31.51,19.63c.16,7.53.4,14.39.06,27.15-.28,10.69-.57,23.62-.57,23.62,0,3.42,1.92,3.23,4.59,3.48a33.36,33.36,0,0,1,4.07-.2c3.43.28,13.22,1.71,38.54.07,10.91-.71,17.68.15,29.4.73,9.7.49,6.32-1.27,14.51-.64,7,.54,24.69,0,24.69,0a2.36,2.36,0,0,0,2.36-2.36s2.4-7.84,1.26-21.84a299.92,299.92,0,0,1-.18-39c.12-2.13-1.08-11.71-1.08-11.71a2.36,2.36,0,0,0-2.36-2.36,225,225,0,0,0-22.59-.89c-13.54.07-19.24-1.32-29-1.15-23.52.41-26.44.73-39.5,1-6.12.11-21.22,1.08-21.22,1.08C610.22,450.71,608.08,452.84,608.08,454.15Z"/><path class="cls-7" d="M505.54,276.89s.41,15.31.51,19.63c.16,7.53.4,14.39.06,27.15-.28,10.69-.57,23.62-.57,23.62,0,3.42,1.92,3.23,4.59,3.48a33.36,33.36,0,0,1,4.07-.2c3.43.28,13.22,1.71,38.54.07,10.91-.71,17.68.15,29.4.73,9.7.49,6.32-1.27,14.51-.64,7,.54,24.69,0,24.69,0a2.36,2.36,0,0,0,2.36-2.36s2.4-7.84,1.26-21.84a299.92,299.92,0,0,1-.18-39c.12-2.13-1.08-11.71-1.08-11.71a2.36,2.36,0,0,0-2.36-2.36,225,225,0,0,0-22.59-.89c-13.54.07-19.24-1.32-29-1.15-23.52.41-26.44.73-39.5,1-6.12.11-21.22,1.08-21.22,1.08C507.67,273.46,505.54,275.59,505.54,276.89Z"/><path class="cls-5" d="M-23.18,276.89s.41,15.31.51,19.63c.16,7.53.4,14.39.06,27.15-.28,10.69-.57,23.62-.57,23.62,0,3.42,1.92,3.23,4.59,3.48a33.36,33.36,0,0,1,4.07-.2c3.43.28,23.86.21,35.57.8,9.7.49,6.32-1.27,14.51-.64,7,.54,24.69,0,24.69,0a2.36,2.36,0,0,0,2.36-2.36s2.4-7.84,1.26-21.84a299.92,299.92,0,0,1-.18-39c.12-2.13-1.08-11.71-1.08-11.71a2.36,2.36,0,0,0-2.36-2.36,225,225,0,0,0-22.59-.89c-13.54.07-19.24-1.32-29-1.15-23.52.41-28.37,2-28.37,2C-21.05,273.46-23.18,275.59-23.18,276.89Z"/><path class="cls-5" d="M777,276.89s.41,15.31.51,19.63c.16,7.53.4,14.39.06,27.15-.28,10.69-.57,23.62-.57,23.62,0,3.42,1.92,3.23,4.59,3.48a33.36,33.36,0,0,1,4.07-.2c3.43.28,23.86.21,35.57.8,9.7.49,6.32-1.27,14.51-.64,7,.54,24.69,0,24.69,0a2.36,2.36,0,0,0,2.36-2.36s2.4-7.84,1.26-21.84a299.92,299.92,0,0,1-.18-39c.12-2.13-1.08-11.71-1.08-11.71a2.36,2.36,0,0,0-2.36-2.36,225,225,0,0,0-22.59-.89c-13.54.07-19.24-1.32-29-1.15-23.52.41-28.37,2-28.37,2C779.18,273.46,777,275.59,777,276.89Z"/><path class="cls-6" d="M237.64,276.89s.41,15.31.51,19.63c.16,7.53.4,14.39.06,27.15-.28,10.69-.57,23.62-.57,23.62,0,3.42,1.92,3.23,4.59,3.48a33.36,33.36,0,0,1,4.07-.2c3.43.28,23.86.21,35.57.8,9.7.49,6.32-1.27,14.51-.64,7,.54,24.69,0,24.69,0a2.36,2.36,0,0,0,2.36-2.36s2.4-7.84,1.26-21.84a299.92,299.92,0,0,1-.18-39c.12-2.13-1.08-11.71-1.08-11.71a2.36,2.36,0,0,0-2.36-2.36,225,225,0,0,0-22.59-.89c-13.54.07-19.24-1.32-29-1.15-23.52.41-28.37,2-28.37,2C239.78,273.46,237.64,275.59,237.64,276.89Z"/><path class="cls-4" d="M74.07,9.38s.41,15.31.51,19.63c.16,7.53-.68,19.78-1,32.55a182.34,182.34,0,0,0,.51,19.31,2.36,2.36,0,0,0,2.36,2.36,128.65,128.65,0,0,0,18.44,2.07c9.76.48,23.41,0,28.56,0,10.93,0,27.48-.49,43.42-.35,9.72.09,28.44-.29,36.63.35,7,.54,15.24-1.1,20.32-1.48a3.59,3.59,0,0,0,2.94-2.94S229.15,73,228,59a299.92,299.92,0,0,1-.18-39c.12-2.13-1.08-11.71-1.08-11.71a2.36,2.36,0,0,0-2.36-2.36S205.51,4.79,192,4.86,157.45,6,144.52,6C121,6.15,114,4.63,100.89,4.86,94.77,5,77.51,5.94,77.51,5.94,76.21,5.94,74.07,8.08,74.07,9.38Z"/><path class="cls-5" d="M333.9,9.48s.41,15.31.51,19.63c.16,7.53-.68,19.78-1,32.55A182.34,182.34,0,0,0,333.9,81a2.36,2.36,0,0,0,2.36,2.36s15.35,2.07,47,2.07c10.93,0,40.34-2,52.05-1.42,9.7.49,24.66-1.27,32.85-.64,7,.54,24.69,0,24.69,0A2.36,2.36,0,0,0,495.2,81s2.4-7.84,1.26-21.84a299.92,299.92,0,0,1-.18-39C496.4,18,495.2,8.4,495.2,8.4A2.36,2.36,0,0,0,492.85,6a225,225,0,0,0-22.59-.89c-5.79,0-14.85,1.93-24.72,1.8-13.2-.17-27.84-2.28-38-1C398.57,7,373.78,4.73,360.72,5,354.6,5.08,337.34,6,337.34,6,336,6,333.9,8.18,333.9,9.48Z"/><path class="cls-6" d="M635,10.15s.41,15.31.51,19.63c.16,7.53,1.48,14.39,1.14,27.15C636.39,67.62,635,80.55,635,80.55c0,3.42,1.92,3.23,4.59,3.48a33.36,33.36,0,0,1,4.07-.2c3.43.28,3.51,1.71,28.83.07,10.91-.71,23.08.15,34.79.73,9.7.49,11.72-1.27,19.91-.64,7,.54,32.24,0,32.24,0a2.36,2.36,0,0,0,2.36-2.36s2.4-7.84,1.26-21.84a299.92,299.92,0,0,1-.18-39c.12-2.13-1.08-11.71-1.08-11.71a2.36,2.36,0,0,0-2.36-2.36s-16.6-1-30.14-.89-22.06,2-32.28,2.08C684.79,8,674.91,5.4,661.84,5.63c-6.12.11-23.38,1.08-23.38,1.08C637.16,6.71,635,8.85,635,10.15Z"/><path class="cls-7" d="M505.54,10.63s.41,15.31.51,19.63c.16,7.53.4,14.39.06,27.15-.28,10.69-.57,23.62-.57,23.62,0,3.42,1.92,3.23,4.59,3.48a33.36,33.36,0,0,1,4.07-.2c3.43.28,13.22,1.71,38.54.07,10.91-.71,17.68.15,29.4.73,9.7.49,6.32-1.27,14.51-.64,7,.54,24.69,0,24.69,0a2.36,2.36,0,0,0,2.36-2.36s2.4-7.84,1.26-21.84a299.92,299.92,0,0,1-.18-39c.12-2.13-1.08-11.71-1.08-11.71a2.36,2.36,0,0,0-2.36-2.36,225,225,0,0,0-22.59-.89c-13.54.07-19.24-1.32-29-1.15-23.52.41-26.44.73-39.5,1C524.08,6.23,509,7.19,509,7.19,507.67,7.19,505.54,9.33,505.54,10.63Z"/><path class="cls-5" d="M-23.18,10.63s.41,15.31.51,19.63c.16,7.53.4,14.39.06,27.15C-22.9,68.1-23.18,81-23.18,81c0,3.42,1.92,3.23,4.59,3.48a33.36,33.36,0,0,1,4.07-.2c3.43.28,23.86.21,35.57.8,9.7.49,6.32-1.27,14.51-.64,7,.54,24.69,0,24.69,0a2.36,2.36,0,0,0,2.36-2.36s2.4-7.84,1.26-21.84a299.92,299.92,0,0,1-.18-39c.12-2.13-1.08-11.71-1.08-11.71a2.36,2.36,0,0,0-2.36-2.36,225,225,0,0,0-22.59-.89C24.12,6.38,18.42,5,8.62,5.15c-23.52.41-28.37,2-28.37,2C-21.05,7.19-23.18,9.33-23.18,10.63Z"/><path class="cls-5" d="M777,10.63s.41,15.31.51,19.63c.16,7.53.4,14.39.06,27.15C777.33,68.1,777,81,777,81c0,3.42,1.92,3.23,4.59,3.48a33.36,33.36,0,0,1,4.07-.2c3.43.28,23.86.21,35.57.8,9.7.49,6.32-1.27,14.51-.64,7,.54,24.69,0,24.69,0a2.36,2.36,0,0,0,2.36-2.36s2.4-7.84,1.26-21.84a299.92,299.92,0,0,1-.18-39c.12-2.13-1.08-11.71-1.08-11.71a2.36,2.36,0,0,0-2.36-2.36,225,225,0,0,0-22.59-.89c-13.54.07-19.24-1.32-29-1.15-23.52.41-28.37,2-28.37,2C779.18,7.19,777,9.33,777,10.63Z"/><path class="cls-6" d="M237.64,10.63s.41,15.31.51,19.63c.16,7.53.4,14.39.06,27.15-.28,10.69-.57,23.62-.57,23.62,0,3.42,1.92,3.23,4.59,3.48a33.36,33.36,0,0,1,4.07-.2c3.43.28,23.86.21,35.57.8,9.7.49,6.32-1.27,14.51-.64,7,.54,24.69,0,24.69,0a2.36,2.36,0,0,0,2.36-2.36s2.4-7.84,1.26-21.84a299.92,299.92,0,0,1-.18-39c.12-2.13-1.08-11.71-1.08-11.71a2.36,2.36,0,0,0-2.36-2.36,225,225,0,0,0-22.59-.89c-13.54.07-19.24-1.32-29-1.15-23.52.41-28.37,2-28.37,2C239.78,7.19,237.64,9.33,237.64,10.63Z"/><path class="cls-4" d="M478.55,365.78s.41,15.31.51,19.63c.16,7.53.4,14.39.06,27.15-.28,10.69-.57,23.62-.57,23.62,0,3.42,1.92,3.23,4.59,3.48a33.36,33.36,0,0,1,4.07-.2c3.43.28,23.86.21,35.57.8,9.7.49,6.32-1.27,14.51-.64,7,.54,24.69,0,24.69,0a2.36,2.36,0,0,0,2.36-2.36s2.4-7.84,1.26-21.84a299.92,299.92,0,0,1-.18-39c.12-2.13-1.08-11.71-1.08-11.71a2.36,2.36,0,0,0-2.36-2.36,225,225,0,0,0-22.59-.89c-13.54.07-19.24-1.32-29-1.15-23.52.41-28.37,2-28.37,2C480.68,362.34,478.55,364.48,478.55,365.78Z"/><path class="cls-7" d="M705,701.91s-.41-15.31-.51-19.63a311.17,311.17,0,0,1,1-32.55,182.34,182.34,0,0,0-.51-19.31,2.36,2.36,0,0,0-2.36-2.36s-15.35-2.07-47-2.07c-10.93,0-40.34,2-52.05,1.42-9.7-.49-24.66,1.27-32.85.64-7-.54-24.69,0-24.69,0a2.36,2.36,0,0,0-2.36,2.36s-2.4,7.84-1.26,21.84a313.23,313.23,0,0,1,.18,39c-.12,2.13,1.08,11.71,1.08,11.71a2.36,2.36,0,0,0,2.36,2.36,225,225,0,0,0,22.59.89c5.79,0,14.85-1.93,24.72-1.8,13.2.17,27.84,2.28,38,1,8.92-1.11,33.71,1.21,46.78,1,6.12-.11,23.38-1.08,23.38-1.08C702.9,705.34,705,703.21,705,701.91Z"/><path class="cls-7" d="M532.17,700.76s-.41-15.31-.51-19.63c-.4-18.52-.11-25.38-.06-27.15.28-10.69.57-23.62.57-23.62,0-3.42-1.92-3.23-4.59-3.48a33.36,33.36,0,0,1-4.07.2c-3.43-.28-13.22-1.71-38.54-.07-10.91.71-17.68-.15-29.4-.73-9.7-.49-6.32,1.27-14.51.64-7-.54-24.69,0-24.69,0a2.36,2.36,0,0,0-2.36,2.36s-2.4,7.84-1.26,21.84a313.23,313.23,0,0,1,.18,39c-.12,2.13,1.08,11.71,1.08,11.71a2.36,2.36,0,0,0,2.36,2.36,225,225,0,0,0,22.59.89c13.54-.07,19.24,1.32,29,1.15,23.52-.41,26.44-.73,39.5-1,6.12-.11,21.22-1.08,21.22-1.08C530,704.19,532.17,702.06,532.17,700.76Z"/><path class="cls-4" d="M403.42,700.76s-.41-15.31-.51-19.63c-.4-18.52-.11-25.38-.06-27.15.28-10.69.57-23.62.57-23.62,0-3.42-1.92-3.23-4.59-3.48a33.36,33.36,0,0,1-4.07.2c-3.43-.28-23.86-.21-35.57-.8-9.7-.49-6.32,1.27-14.51.64-7-.54-24.69,0-24.69,0a2.36,2.36,0,0,0-2.36,2.36s-2.4,7.84-1.26,21.84a313.23,313.23,0,0,1,.18,39c-.12,2.13,1.08,11.71,1.08,11.71a2.36,2.36,0,0,0,2.36,2.36,225,225,0,0,0,22.59.89c13.54-.07,19.24,1.32,29,1.15,23.52-.41,28.37-2,28.37-2C401.28,704.19,403.42,702.06,403.42,700.76Z"/><path class="cls-7" d="M336.57,453.66s.41,15.31.51,19.63c.16,7.53.4,14.39.06,27.15-.28,10.69-.57,23.62-.57,23.62,0,3.42,1.92,3.23,4.59,3.48a33.36,33.36,0,0,1,4.07-.2c3.43.28,23.86.21,35.57.8,9.7.49,6.32-1.27,14.51-.64,7,.54,24.69,0,24.69,0a2.36,2.36,0,0,0,2.36-2.36s2.4-7.84,1.26-21.84a299.92,299.92,0,0,1-.18-39c.12-2.13-1.08-11.71-1.08-11.71a2.36,2.36,0,0,0-2.36-2.36,225,225,0,0,0-22.59-.89c-13.54.07-19.24-1.32-29-1.15-23.52.41-28.37,2-28.37,2C338.7,450.23,336.57,452.36,336.57,453.66Z"/><path class="cls-4" d="M111,453.29s.41,15.31.51,19.63c.16,7.53.4,14.39.06,27.15-.28,10.69-.57,23.62-.57,23.62,0,3.42,1.92,3.23,4.59,3.48a33.36,33.36,0,0,1,4.07-.2c3.43.28,23.86.21,35.57.8,9.7.49,6.32-1.27,14.51-.64,7,.54,24.69,0,24.69,0a2.36,2.36,0,0,0,2.36-2.36s2.4-7.84,1.26-21.84a299.92,299.92,0,0,1-.18-39c.12-2.13-1.08-11.71-1.08-11.71a2.36,2.36,0,0,0-2.36-2.36,225,225,0,0,0-22.59-.89c-13.54.07-19.24-1.32-29-1.15-23.52.41-28.37,2-28.37,2C113.16,449.85,111,452,111,453.29Z"/><path class="cls-4" d="M187.26,630.38s.41,15.31.51,19.63c.16,7.53.4,14.39.06,27.15,0-.3,0-.3-.57,23.62,0,3.42,1.92,3.23,4.59,3.48a33.36,33.36,0,0,1,4.07-.2c3.43.28,13.22,1.71,38.54.07,10.91-.71,17.68.15,29.4.73,9.7.49,6.32-1.27,14.51-.64,7,.54,24.69,0,24.69,0a2.36,2.36,0,0,0,2.36-2.36s2.4-7.84,1.26-21.84c-2.12-25.94,0-41.45-.18-39,.12-2.13-1.08-11.71-1.08-11.71a2.36,2.36,0,0,0-2.36-2.36,225,225,0,0,0-22.59-.89c-13.54.07-19.24-1.32-29-1.15-23.52.41-26.44.73-39.5,1-6.12.11-21.22,1.08-21.22,1.08C189.4,626.95,187.26,629.08,187.26,630.38Z"/><path class="cls-5" d="M91.81,630s.41,15.31.51,19.63c.16,7.53.4,14.39.06,27.15,0-.3,0-.3-.57,23.62,0,3.42,1.92,3.23,4.59,3.48a33.36,33.36,0,0,1,4.07-.2c3.43.28,23.86.21,35.57.8,9.7.49,6.32-1.27,14.51-.64,7,.54,24.69,0,24.69,0a2.36,2.36,0,0,0,2.36-2.36s2.4-7.84,1.26-21.84c-2.12-25.94,0-41.45-.18-39,.12-2.13-1.08-11.71-1.08-11.71a2.36,2.36,0,0,0-2.36-2.36,225,225,0,0,0-22.59-.89c-13.54.07-19.24-1.32-29-1.15-23.52.41-28.37,2-28.37,2C93.94,626.57,91.81,628.7,91.81,630Z"/><path class="cls-6" d="M106.63,541.93s.41,15.31.51,19.63c.16,7.53-.68,19.78-1,32.55a182.34,182.34,0,0,0,.51,19.31,2.36,2.36,0,0,0,2.36,2.36s15.35,2.07,47,2.07c10.93,0,40.34-2,52.05-1.42,9.7.49,24.66-1.27,32.85-.64,7,.54,24.69,0,24.69,0a2.36,2.36,0,0,0,2.36-2.36s2.4-7.84,1.26-21.84a299.92,299.92,0,0,1-.18-39c.12-2.13-1.08-11.71-1.08-11.71a2.36,2.36,0,0,0-2.36-2.36,225,225,0,0,0-22.59-.89c-13.54.07-31.57,1.18-49.54,1-23.52-.23-46.93-1.43-60-1.19-6.12.11-23.38,1.08-23.38,1.08C108.76,538.5,106.63,540.63,106.63,541.93Z"/><path class="cls-4" d="M406.84,541.93s.41,15.31.51,19.63c.16,7.53-.68,19.78-1,32.55a182.34,182.34,0,0,0,.51,19.31,2.36,2.36,0,0,0,2.36,2.36s15.35,2.07,47,2.07c10.93,0,40.34-2,52.05-1.42,9.7.49,24.66-1.27,32.85-.64,7,.54,24.69,0,24.69,0a2.36,2.36,0,0,0,2.36-2.36s2.4-7.84,1.26-21.84a299.92,299.92,0,0,1-.18-39c.12-2.13-1.08-11.71-1.08-11.71a2.36,2.36,0,0,0-2.36-2.36,225,225,0,0,0-22.59-.89c-5.79,0-14.85,1.93-24.72,1.8-13.2-.17-27.84-2.28-38-1-8.92,1.11-33.71-1.21-46.78-1-6.12.11-23.38,1.08-23.38,1.08C409,538.5,406.84,540.63,406.84,541.93Z"/><path class="cls-7" d="M898.59,501.68a299.91,299.91,0,0,1-.18-39c.12-2.13-1.08-11.71-1.08-11.71A2.36,2.36,0,0,0,895,448.6s-18.88-1.15-32.42-1.08S828,448.63,815.1,448.7c-23.52.12-30.56-1.41-43.63-1.17a116,116,0,0,0-11.57,1.23c-7.39.32-16.81.85-16.81.85-1.3,0-3.43,2.13-3.43,3.43,0,0,.41,15.31.51,19.63.16,7.53-.68,19.78-1,32.55a182.35,182.35,0,0,0,.51,19.31,2.36,2.36,0,0,0,2.36,2.36,128.65,128.65,0,0,0,18.44,2.07c9.76.48,23.41,0,28.56,0,10.93,0,27.48-.49,43.42-.35,9.72.09,28.44-.29,36.63.35a46.08,46.08,0,0,0,11.53-1c5.15-.32,10.24-1.2,13.79-1.47a3.59,3.59,0,0,0,2.94-2.94S899.73,515.68,898.59,501.68Z"/><path class="cls-4" d="M879.37,667.4c-1.23-15-.65-19.49-.18-28,.12-2.13-1.08-11.71-1.08-11.71a2.36,2.36,0,0,0-2.36-2.36s-18.88-1.15-32.42-1.08-34.51,1.11-47.45,1.18c-23.52.12-30.56-1.41-43.63-1.17-3.2.06-9.45.62-14.68,1.15-7.55.3-18.7.93-18.7.93-1.3,0-3.43,2.13-3.43,3.43,0,0,.41,15.31.51,19.63-.07-3.47-.39,8.79-1,32.55a182.35,182.35,0,0,0,.51,19.31,2.36,2.36,0,0,0,2.36,2.36,128.66,128.66,0,0,0,18.44,2.07c9.76.48,23.41,0,28.56,0,10.93,0,27.48-.49,43.42-.35,9.72.09,28.44-.29,36.63.35,5.11.4,10.85-.36,15.55-1,5.47-.26,11-1.24,14.77-1.52a3.59,3.59,0,0,0,2.94-2.94S880.51,681.4,879.37,667.4Z"/><path class="cls-6" d="M896.19,591.58a299.92,299.92,0,0,1-.18-39c.12-2.13-1.08-11.71-1.08-11.71a2.36,2.36,0,0,0-2.36-2.36,225,225,0,0,0-22.59-.89c-13.54.07-19.24-1.32-29-1.15-23.52.41-26.44.73-39.5,1-4.68.08-14.62.67-19,.94l-3,.06c-6.12.11-21.22,1.08-21.22,1.08-1.3,0-3.43,2.13-3.43,3.43,0,0,.41,15.31.51,19.63.16,7.53.4,14.39.06,27.15-.28,10.69-.57,23.62-.57,23.62,0,3.42,1.92,3.23,4.59,3.48a33.35,33.35,0,0,1,4.07-.2c3.43.28,13.22,1.71,38.54.07l4.13-.25c3.29,0,7.06-.16,11.35-.38,4.18,0,8.53.09,13.92.36,8.64.43,6.91-.12,12.21.2,3,.31,6.14.62,9.79.8,9.7.49,13.32-1.27,21.51-.64,7,.54,17.68-1,17.68-1a2.36,2.36,0,0,0,2.36-2.36S897.33,605.58,896.19,591.58Z"/><path class="cls-7" d="M98.34,501.68a299.91,299.91,0,0,1-.18-39c.12-2.13-1.08-11.71-1.08-11.71a2.36,2.36,0,0,0-2.36-2.36s-18.88-1.15-32.42-1.08-34.51,1.11-47.45,1.18c-23.52.12-30.56-1.41-43.63-1.17a116,116,0,0,0-11.57,1.23c-7.39.32-16.81.85-16.81.85-1.3,0-3.43,2.13-3.43,3.43,0,0,.41,15.31.51,19.63.16,7.53-.68,19.78-1,32.55a182.35,182.35,0,0,0,.51,19.31,2.36,2.36,0,0,0,2.36,2.36,128.65,128.65,0,0,0,18.44,2.07c9.76.48,23.41,0,28.56,0,10.93,0,27.48-.49,43.42-.35,9.72.09,28.44-.29,36.63.35a46.08,46.08,0,0,0,11.53-1c5.15-.32,10.24-1.2,13.79-1.47a3.59,3.59,0,0,0,2.94-2.94S99.49,515.68,98.34,501.68Z"/><path class="cls-4" d="M434.86,99.07s.41,15.31.51,19.63c.16,7.53-.68,19.78-1,32.55a182.34,182.34,0,0,0,.51,19.31,2.36,2.36,0,0,0,2.36,2.36s15.35,2.07,47,2.07c10.93,0,40.34-2,52.05-1.42,9.7.49,24.66-1.27,32.85-.64,7,.54,24.69,0,24.69,0a2.36,2.36,0,0,0,2.36-2.36s2.4-7.84,1.26-21.84a299.92,299.92,0,0,1-.18-39c.12-2.13-1.08-11.71-1.08-11.71a2.36,2.36,0,0,0-2.36-2.36,225,225,0,0,0-22.59-.89c-5.79,0-14.85,1.93-24.72,1.8-13.2-.17-27.84-2.28-38-1-8.92,1.11-33.71-1.21-46.78-1-6.12.11-23.38,1.08-23.38,1.08C437,95.63,434.86,97.77,434.86,99.07Z"/><path class="cls-4" d="M206.49,100s.41,15.31.51,19.63c.16,7.53.4,14.39.06,27.15-.28,10.69-.57,23.62-.57,23.62,0,3.42,1.92,3.23,4.59,3.48a33.36,33.36,0,0,1,4.07-.2c3.43.28,13.22,1.71,38.54.07,10.91-.71,17.68.15,29.4.73,9.7.49,6.32-1.27,14.51-.64,7,.54,24.69,0,24.69,0a2.36,2.36,0,0,0,2.36-2.36s2.4-7.84,1.26-21.84a299.92,299.92,0,0,1-.18-39c.12-2.13-1.08-11.71-1.08-11.71a2.36,2.36,0,0,0-2.36-2.36,225,225,0,0,0-22.59-.89c-13.54.07-19.24-1.32-29-1.15-23.52.41-26.44.73-39.5,1-6.12.11-21.22,1.08-21.22,1.08C208.62,96.59,206.49,98.73,206.49,100Z"/><path class="cls-6" d="M608.08,100.51s.41,15.31.51,19.63c.16,7.53.4,14.39.06,27.15-.28,10.69-.57,23.62-.57,23.62,0,3.42,1.92,3.23,4.59,3.48a33.36,33.36,0,0,1,4.07-.2c3.43.28,13.22,1.71,38.54.07,10.91-.71,17.68.15,29.4.73,9.7.49,6.32-1.27,14.51-.64,7,.54,24.69,0,24.69,0a2.36,2.36,0,0,0,2.36-2.36s2.4-7.84,1.26-21.84a299.92,299.92,0,0,1-.18-39c.12-2.13-1.08-11.71-1.08-11.71a2.36,2.36,0,0,0-2.36-2.36,225,225,0,0,0-22.59-.89c-13.54.07-19.24-1.32-29-1.15-23.52.41-26.44.73-39.5,1-6.12.11-21.22,1.08-21.22,1.08C610.22,97.08,608.08,99.21,608.08,100.51Z"/><path class="cls-7" d="M336.57,100s.41,15.31.51,19.63c.16,7.53.4,14.39.06,27.15-.28,10.69-.57,23.62-.57,23.62,0,3.42,1.92,3.23,4.59,3.48a33.36,33.36,0,0,1,4.07-.2c3.43.28,23.86.21,35.57.8,9.7.49,6.32-1.27,14.51-.64,7,.54,24.69,0,24.69,0a2.36,2.36,0,0,0,2.36-2.36s2.4-7.84,1.26-21.84a299.92,299.92,0,0,1-.18-39c.12-2.13-1.08-11.71-1.08-11.71A2.36,2.36,0,0,0,420,96.59a225,225,0,0,0-22.59-.89c-13.54.07-19.24-1.32-29-1.15-23.52.41-28.37,2-28.37,2C338.7,96.59,336.57,98.73,336.57,100Z"/><path class="cls-4" d="M111,99.65s.41,15.31.51,19.63c.16,7.53.4,14.39.06,27.15-.28,10.69-.57,23.62-.57,23.62,0,3.42,1.92,3.23,4.59,3.48a33.36,33.36,0,0,1,4.07-.2c3.43.28,23.86.21,35.57.8,9.7.49,6.32-1.27,14.51-.64,7,.54,24.69,0,24.69,0a2.36,2.36,0,0,0,2.36-2.36s2.4-7.84,1.26-21.84a299.92,299.92,0,0,1-.18-39c.12-2.13-1.08-11.71-1.08-11.71a2.36,2.36,0,0,0-2.36-2.36,225,225,0,0,0-22.59-.89c-13.54.07-19.24-1.32-29-1.15-23.52.41-28.37,2-28.37,2C113.16,96.22,111,98.35,111,99.65Z"/><path class="cls-7" d="M898.59,148a299.91,299.91,0,0,1-.18-39c.12-2.13-1.08-11.71-1.08-11.71A2.36,2.36,0,0,0,895,95s-18.88-1.15-32.42-1.08S828,95,815.1,95.06c-23.52.12-30.56-1.41-43.63-1.17a116,116,0,0,0-11.57,1.23c-7.39.32-16.81.85-16.81.85-1.3,0-3.43,2.13-3.43,3.43,0,0,.41,15.31.51,19.63.16,7.53-.68,19.78-1,32.55a182.35,182.35,0,0,0,.51,19.31,2.36,2.36,0,0,0,2.36,2.36,128.65,128.65,0,0,0,18.44,2.07c9.76.48,23.41,0,28.56,0,10.93,0,27.48-.49,43.42-.35,9.72.09,28.44-.29,36.63.35a46.08,46.08,0,0,0,11.53-1c5.15-.32,10.24-1.2,13.79-1.47a3.59,3.59,0,0,0,2.94-2.94S899.73,162,898.59,148Z"/><path class="cls-7" d="M98.34,148a299.91,299.91,0,0,1-.18-39c.12-2.13-1.08-11.71-1.08-11.71A2.36,2.36,0,0,0,94.73,95S75.85,93.81,62.3,93.88,27.79,95,14.85,95.06c-23.52.12-30.56-1.41-43.63-1.17a116,116,0,0,0-11.57,1.23c-7.39.32-16.81.85-16.81.85-1.3,0-3.43,2.13-3.43,3.43,0,0,.41,15.31.51,19.63.16,7.53-.68,19.78-1,32.55a182.35,182.35,0,0,0,.51,19.31,2.36,2.36,0,0,0,2.36,2.36,128.65,128.65,0,0,0,18.44,2.07c9.76.48,23.41,0,28.56,0,10.93,0,27.48-.49,43.42-.35,9.72.09,28.44-.29,36.63.35a46.08,46.08,0,0,0,11.53-1c5.15-.32,10.24-1.2,13.79-1.47a3.59,3.59,0,0,0,2.94-2.94S99.49,162,98.34,148Z"/><path class="cls-4" d="M79.12,667.4c-1.23-15-.65-19.49-.18-28,.12-2.13-1.08-11.71-1.08-11.71a2.36,2.36,0,0,0-2.36-2.36s-18.88-1.15-32.42-1.08-34.51,1.11-47.45,1.18c-23.52.12-30.56-1.41-43.63-1.17-3.2.06-9.45.62-14.68,1.15-7.55.3-18.7.93-18.7.93-1.3,0-3.43,2.13-3.43,3.43,0,0,.41,15.31.51,19.63-.07-3.47-.39,8.79-1,32.55a182.35,182.35,0,0,0,.51,19.31,2.36,2.36,0,0,0,2.36,2.36A128.66,128.66,0,0,0-64,705.65c9.76.48,23.41,0,28.56,0,10.93,0,27.48-.49,43.42-.35,9.72.09,28.44-.29,36.63.35,5.11.4,10.85-.36,15.55-1,5.47-.26,11-1.24,14.77-1.52a3.59,3.59,0,0,0,2.94-2.94S80.26,681.4,79.12,667.4Z"/><path class="cls-6" d="M95.94,591.58a299.92,299.92,0,0,1-.18-39c.12-2.13-1.08-11.71-1.08-11.71a2.36,2.36,0,0,0-2.36-2.36,225,225,0,0,0-22.59-.89c-13.54.07-19.24-1.32-29-1.15-23.52.41-26.44.73-39.5,1-4.68.08-14.62.67-19,.94l-3,.06c-6.12.11-21.22,1.08-21.22,1.08-1.3,0-3.43,2.13-3.43,3.43,0,0,.41,15.31.51,19.63.16,7.53.4,14.39.06,27.15-.28,10.69-.57,23.62-.57,23.62,0,3.42,1.92,3.23,4.59,3.48a33.35,33.35,0,0,1,4.07-.2c3.43.28,13.22,1.71,38.54.07l4.13-.25c3.29,0,7.06-.16,11.35-.38,4.18,0,8.53.09,13.92.36,8.64.43,6.91-.12,12.21.2,3,.31,6.14.62,9.79.8,9.7.49,13.32-1.27,21.51-.64,7,.54,17.68-1,17.68-1a2.36,2.36,0,0,0,2.36-2.36S97.09,605.58,95.94,591.58Z"/><path class="cls-5" d="M278.06,541.93s.41,15.31.51,19.63c.16,7.53.4,14.39.06,27.15-.28,10.69-.57,23.62-.57,23.62,0,3.42,1.92,3.23,4.59,3.48a33.36,33.36,0,0,1,4.07-.2c3.43.28,13.22,1.71,38.54.07,10.91-.71,17.68.15,29.4.73,9.7.49,6.32-1.27,14.51-.64,7,.54,24.69,0,24.69,0a2.36,2.36,0,0,0,2.36-2.36s2.4-7.84,1.26-21.84a299.92,299.92,0,0,1-.18-39c.12-2.13-1.08-11.71-1.08-11.71a2.36,2.36,0,0,0-2.36-2.36,225,225,0,0,0-22.59-.89c-13.54.07-19.24,1.91-29,2.08-23.52.41-26.44-2.51-39.5-2.27-6.12.11-21.22,1.08-21.22,1.08C280.19,538.5,278.06,540.63,278.06,541.93Z"/><path class="cls-7" d="M566,188.19s.41,15.31.51,19.63c.16,7.53-.68,19.78-1,32.55a182.34,182.34,0,0,0,.51,19.31,2.36,2.36,0,0,0,2.36,2.36s15.35,2.07,47,2.07c10.93,0,40.34-2,52.05-1.42,9.7.49,24.66-1.27,32.85-.64,7,.54,24.69,0,24.69,0a2.36,2.36,0,0,0,2.36-2.36s2.4-7.84,1.26-21.84a299.92,299.92,0,0,1-.18-39c.12-2.13-1.08-11.71-1.08-11.71a2.36,2.36,0,0,0-2.36-2.36,225,225,0,0,0-22.59-.89c-13.54.07-31.57,1.18-49.54,1-23.52-.23-46.93-1.43-60-1.19-6.12.11-23.38,1.08-23.38,1.08C568.1,184.76,566,186.89,566,188.19Z"/><path class="cls-6" d="M274.32,188.19s.41,15.31.51,19.63c.16,7.53-.68,19.78-1,32.55a182.34,182.34,0,0,0,.51,19.31,2.36,2.36,0,0,0,2.36,2.36,128.65,128.65,0,0,0,18.44,2.07c9.76.48,23.41,0,28.56,0,10.93,0,27.48-.49,43.42-.35,9.72.09,28.44-.29,36.63.35,7,.54,15.24-1.1,20.32-1.48a3.59,3.59,0,0,0,2.94-2.94s2.4-7.84,1.26-21.84a299.92,299.92,0,0,1-.18-39c.12-2.13-1.08-11.71-1.08-11.71a2.36,2.36,0,0,0-2.36-2.36s-18.88-1.15-32.42-1.08-34.52,1.11-47.45,1.18c-23.52.12-30.56-1.41-43.63-1.17-6.12.11-23.38,1.08-23.38,1.08C276.45,184.76,274.32,186.89,274.32,188.19Z"/><path class="cls-7" d="M116.42,189.19s.41,14.31.51,18.63c.16,7.53,1.48,14.39,1.14,27.15-.28,10.69-1.65,23.62-1.65,23.62,0,3.42,1.92,3.23,4.59,3.48a33.36,33.36,0,0,1,4.07-.2c3.43.28,15.37,1.71,40.69.07,10.91-.71,40.34.15,52.05.73,9.7.49,11.72-1.27,19.91-.64,7,.54,24.69,0,24.69,0a2.36,2.36,0,0,0,2.36-2.36s2.4-7.84,1.26-21.84a299.92,299.92,0,0,1-.18-39c.12-2.13-1.08-11.71-1.08-11.71a2.36,2.36,0,0,0-2.36-2.36,225,225,0,0,0-22.59-.89c-13.54.07-29.42,2.26-47.38,2.08-23.52-.23-36.14-2.51-49.21-2.27-6.12.11-20.38,1.08-20.38,1.08C121.56,184.76,116.42,184.66,116.42,189.19Z"/><path class="cls-4" d="M437.12,188.19s.41,15.31.51,19.63c.16,7.53.4,14.39.06,27.15-.28,10.69-.57,23.62-.57,23.62,0,3.42,1.92,3.23,4.59,3.48a33.36,33.36,0,0,1,4.07-.2c3.43.28,13.22,1.71,38.54.07,10.91-.71,17.68.15,29.4.73,9.7.49,6.32-1.27,14.51-.64,7,.54,24.69,0,24.69,0a2.36,2.36,0,0,0,2.36-2.36s2.4-7.84,1.26-21.84a299.92,299.92,0,0,1-.18-39c.12-2.13-1.08-11.71-1.08-11.71a2.36,2.36,0,0,0-2.36-2.36,225,225,0,0,0-22.59-.89c-13.54.07-19.24-1.32-29-1.15-23.52.41-26.44.73-39.5,1-6.12.11-12.08,1.59-17.21.83C442.47,184.2,437.94,183,437.12,188.19Z"/><path class="cls-4" d="M737.4,188.19s.41,15.31.51,19.63c.16,7.53.4,14.39.06,27.15-.28,10.69-.57,23.62-.57,23.62,0,3.42,1.92,3.23,4.59,3.48a33.36,33.36,0,0,1,4.07-.2c3.43.28,13.22,1.71,38.54.07,10.91-.71,17.68.15,29.4.73,9.7.49,6.32-1.27,14.51-.64,7,.54,24.69,0,24.69,0a2.36,2.36,0,0,0,2.36-2.36s2.4-7.84,1.26-21.84a299.92,299.92,0,0,1-.18-39c.12-2.13-1.08-11.71-1.08-11.71a2.36,2.36,0,0,0-2.36-2.36,225,225,0,0,0-22.59-.89c-13.54.07-19.24,1.91-29,2.08-23.52.41-26.44-2.51-39.5-2.27-6.12.11-21.22,1.08-21.22,1.08C739.53,184.76,737.4,186.89,737.4,188.19Z"/><path class="cls-4" d="M109.54,239.09a299.91,299.91,0,0,1-.18-39c.12-2.13-1.08-11.71-1.08-11.71a2.36,2.36,0,0,0-2.36-2.36,225,225,0,0,0-22.59-.89c-13.54.07-19.24-1.32-29-1.15-3.47.06-6.53.15-9.24.25-3.87-.21-9.07-.39-15.21-.35-13.54.07-19.24,1.91-29,2.08-23.52.41-26.44-2.51-39.5-2.27-6.12.11-21.22,1.08-21.22,1.08-1.3,0-3.43,2.13-3.43,3.43,0,0,.41,15.31.51,19.63.16,7.53.4,14.39.06,27.15-.28,10.69-.57,23.62-.57,23.62,0,3.42,1.92,3.23,4.59,3.48a33.35,33.35,0,0,1,4.07-.2c3.43.28,13.22,1.71,38.54.07,10.91-.71,17.68.15,29.4.73,9.7.49,14.32.73,22.51,1.36a45,45,0,0,0,9.93-.62c7,.09,15.15.22,21,.52,9.7.49,6.32-1.27,14.51-.64,7,.54,24.68,0,24.68,0a2.36,2.36,0,0,0,2.36-2.36S110.69,253.09,109.54,239.09Z"/><path class="cls-7" d="M566,720s.41,15.31.51,19.63c.16,7.53-.68,19.78-1,32.55a182.34,182.34,0,0,0,.51,19.31,2.36,2.36,0,0,0,2.36,2.36s15.35,2.07,47,2.07c10.93,0,40.34-2,52.05-1.42,9.7.49,24.66-1.27,32.85-.64,7,.54,24.69,0,24.69,0a2.36,2.36,0,0,0,2.36-2.36s2.4-7.84,1.26-21.84a299.92,299.92,0,0,1-.18-39c.12-2.13-1.08-11.71-1.08-11.71a2.36,2.36,0,0,0-2.36-2.36,225,225,0,0,0-22.59-.89c-13.54.07-31.57,1.18-49.54,1-23.52-.23-46.93-1.43-60-1.19-6.12.11-23.38,1.08-23.38,1.08C568.1,716.61,566,718.75,566,720Z"/><path class="cls-6" d="M274.32,720s.41,15.31.51,19.63c.16,7.53-.68,19.78-1,32.55a182.34,182.34,0,0,0,.51,19.31,2.36,2.36,0,0,0,2.36,2.36A128.65,128.65,0,0,0,295.12,796c9.76.48,23.41,0,28.56,0,10.93,0,27.48-.49,43.42-.35,9.72.09,28.44-.29,36.63.35,7,.54,15.24-1.1,20.32-1.48a3.59,3.59,0,0,0,2.94-2.94s2.4-7.84,1.26-21.84a299.92,299.92,0,0,1-.18-39C428.18,728.55,427,719,427,719a2.36,2.36,0,0,0-2.36-2.36s-18.88-1.15-32.42-1.08-34.52,1.11-47.45,1.18c-23.52.12-30.56-1.41-43.63-1.17-6.12.11-23.38,1.08-23.38,1.08C276.45,716.61,274.32,718.75,274.32,720Z"/><path class="cls-4" d="M116.42,721s.41,14.31.51,18.63c.16,7.53,1.48,14.39,1.14,27.15-.28,10.69-1.65,23.62-1.65,23.62,0,3.42,1.92,3.23,4.59,3.48a33.36,33.36,0,0,1,4.07-.2c3.43.28,15.37,1.71,40.69.07,10.91-.71,40.34.15,52.05.73,9.7.49,11.72-1.27,19.91-.64,7,.54,24.69,0,24.69,0a2.36,2.36,0,0,0,2.36-2.36s2.4-7.84,1.26-21.84a299.92,299.92,0,0,1-.18-39c.12-2.13-1.08-11.71-1.08-11.71a2.36,2.36,0,0,0-2.36-2.36,225,225,0,0,0-22.59-.89c-13.54.07-29.42,2.26-47.38,2.08-23.52-.23-36.14-2.51-49.21-2.27-6.12.11-20.38,1.08-20.38,1.08C121.56,716.61,116.42,716.52,116.42,721Z"/><path class="cls-4" d="M437.12,720s.41,15.31.51,19.63c.16,7.53.4,14.39.06,27.15-.28,10.69-.57,23.62-.57,23.62,0,3.42,1.92,3.23,4.59,3.48a33.36,33.36,0,0,1,4.07-.2c3.43.28,13.22,1.71,38.54.07,10.91-.71,17.68.15,29.4.73,9.7.49,6.32-1.27,14.51-.64,7,.54,24.69,0,24.69,0a2.36,2.36,0,0,0,2.36-2.36s2.4-7.84,1.26-21.84a299.92,299.92,0,0,1-.18-39c.12-2.13-1.08-11.71-1.08-11.71a2.36,2.36,0,0,0-2.36-2.36,225,225,0,0,0-22.59-.89c-13.54.07-19.24-1.32-29-1.15-23.52.41-26.44.73-39.5,1-6.12.11-12.08,1.59-17.21.83C442.47,716.06,437.94,714.88,437.12,720Z"/><path class="cls-4" d="M737.4,720s.41,15.31.51,19.63c.16,7.53.4,14.39.06,27.15-.28,10.69-.57,23.62-.57,23.62,0,3.42,1.92,3.23,4.59,3.48a33.36,33.36,0,0,1,4.07-.2c3.43.28,13.22,1.71,38.54.07,10.91-.71,17.68.15,29.4.73,9.7.49,6.32-1.27,14.51-.64,7,.54,24.69,0,24.69,0a2.36,2.36,0,0,0,2.36-2.36s2.4-7.84,1.26-21.84a299.92,299.92,0,0,1-.18-39c.12-2.13-1.08-11.71-1.08-11.71a2.36,2.36,0,0,0-2.36-2.36,225,225,0,0,0-22.59-.89c-13.54.07-19.24,1.91-29,2.08-23.52.41-26.44-2.51-39.5-2.27-6.12.11-21.22,1.08-21.22,1.08C739.53,716.61,737.4,718.75,737.4,720Z"/><path class="cls-4" d="M109.54,770.95a299.91,299.91,0,0,1-.18-39c.12-2.13-1.08-11.71-1.08-11.71a2.36,2.36,0,0,0-2.36-2.36A225,225,0,0,0,83.34,717c-13.54.07-19.24-1.32-29-1.15-3.47.06-6.53.15-9.24.25-3.87-.21-9.07-.39-15.21-.35-13.54.07-19.24,1.91-29,2.08-23.52.41-26.44-2.51-39.5-2.27-6.12.11-21.22,1.08-21.22,1.08-1.3,0-3.43,2.13-3.43,3.43,0,0,.41,15.31.51,19.63.16,7.53.4,14.39.06,27.15-.28,10.69-.57,23.62-.57,23.62,0,3.42,1.92,3.23,4.59,3.48a33.35,33.35,0,0,1,4.07-.2c3.43.28,13.22,1.71,38.54.07,10.91-.71,17.68.15,29.4.73,9.7.49,14.32.73,22.51,1.36a45,45,0,0,0,9.93-.62c7,.09,15.15.22,21,.52,9.7.49,6.32-1.27,14.51-.64,7,.54,24.68,0,24.68,0a2.36,2.36,0,0,0,2.36-2.36S110.69,784.95,109.54,770.95Z"/></g></g></svg>