<svg id="Robot" xmlns="http://www.w3.org/2000/svg" viewBox="0 0 800 800"><defs><style>.cls-1{fill:none;stroke:#4bb8e9;stroke-width:15px;}.cls-1,.cls-2,.cls-3,.cls-4{stroke-miterlimit:10;}.cls-2{fill:#c2d0eb;}.cls-2,.cls-3,.cls-4{stroke:#231f20;stroke-width:1.66px;}.cls-3{fill:#231f20;}.cls-4{fill:#050406;}.cls-5{font-size:49.86px;fill:#4bb8e9;font-family:OCRAStd, OCR A Std;}.cls-6,.cls-7{fill:#a5b9ce;}.cls-7{letter-spacing:-0.1em;}</style></defs><title>banner</title><g id="Layer_5_copy" data-name="Layer 5 copy"><path class="cls-1" d="M252.19,428.1V345.74s-18-3.75-46.49-5.08h0c-1.87-4.93-7.56-8.8-14.78-10V319.55h-3V283.32a5.15,5.15,0,1,0-4.32.26v36h-3v11.1c-7.11,1.29-12.69,5.14-14.53,10-28.54,1.33-46.51,5.08-46.51,5.08V428.1h-9.3v63s26.65-2.22,75.61-2.22,75.61,2.22,75.61,2.22v-63Z"/><path class="cls-2" d="M252.14,476.69H119.51V345.74s26.52-5.54,66.32-5.54,66.32,5.54,66.32,5.54Z"/><path class="cls-2" d="M110.21,428.1v63s26.65-2.22,75.61-2.22,75.61,2.22,75.61,2.22v-63h-13.5v26.34s-24.45-2.4-62.11-2.4-62.12,2-62.12,2v-26Z"/><circle class="cls-3" cx="209.67" cy="406.13" r="14.3"/><circle class="cls-4" cx="160.95" cy="405.65" r="14.3"/><path class="cls-2" d="M185.82,344.87c-11.31,0-20.34-2.6-20.06-3.51,1.91-6.38,10.17-11.18,20.06-11.18,9.53,0,17.55,4.45,19.83,10.48C206.08,341.79,197.14,344.87,185.82,344.87Z"/><path class="cls-2" d="M190.87,332.83a12.58,12.58,0,0,1-10.33,0V319.55h10.33Z"/><rect class="cls-2" x="183.55" y="282.09" width="4.32" height="37.46"/><circle class="cls-2" cx="185.44" cy="278.79" r="5.16"/><path class="cls-2" d="M252.14,476.69H119.51V345.74s26.52-5.54,66.32-5.54,66.32,5.54,66.32,5.54Z"/><path class="cls-2" d="M110.21,428.1v63s26.65-2.22,75.61-2.22,75.61,2.22,75.61,2.22v-63h-13.5v26.34s-24.45-2.4-62.11-2.4-62.12,2-62.12,2v-26Z"/><circle class="cls-3" cx="209.67" cy="406.13" r="14.3"/><circle class="cls-4" cx="160.95" cy="405.65" r="14.3"/><path class="cls-2" d="M185.82,344.87c-11.31,0-20.34-2.6-20.06-3.51,1.91-6.38,10.17-11.18,20.06-11.18,9.53,0,17.55,4.45,19.83,10.48C206.08,341.79,197.14,344.87,185.82,344.87Z"/><path class="cls-2" d="M190.87,332.83a12.58,12.58,0,0,1-10.33,0V319.55h10.33Z"/><rect class="cls-2" x="183.55" y="282.09" width="4.32" height="37.46"/><circle class="cls-2" cx="185.44" cy="278.79" r="5.16"/><text class="cls-5" transform="translate(294.17 439.81)">CODEBOT<tspan class="cls-6" x="251.29" y="0">G</tspan><tspan class="cls-7" x="287.19" y="0">A.</tspan><tspan class="cls-6" x="348.61" y="0">ME</tspan></text></g></svg>