<svg id="Layer_1" data-name="Layer 1" xmlns="http://www.w3.org/2000/svg" viewBox="0 0 1366 236"><defs><style>.cls-1{font-size:138.21px;fill:#c3c5c7;font-family:OCRAStd, OCR A Std;}.cls-2,.cls-3,.cls-4{fill:#af4825;}.cls-3{letter-spacing:-0.1em;}.cls-4{letter-spacing:0em;}.cls-5{fill:none;stroke:#af4825;stroke-width:15.86px;}.cls-5,.cls-6,.cls-7,.cls-8{stroke-miterlimit:10;}.cls-6{fill:#c1cfea;}.cls-6,.cls-7,.cls-8{stroke:#221f1f;stroke-width:1.42px;}.cls-7{fill:#221f1f;}.cls-8{fill:#070608;}</style></defs><title>banner_2</title><text class="cls-1" transform="translate(198.35 193.75)">CODEBOT<tspan class="cls-2" x="696.54" y="0">G</tspan><tspan class="cls-3" x="796.05" y="0">A.</tspan><tspan class="cls-4" x="966.32" y="0">ME</tspan></text><path class="cls-5" d="M138.51,151.32V80.78s-15.38-3.21-39.82-4.35h0c-1.6-4.22-6.47-7.53-12.66-8.61V58.34H83.46v-31a4.41,4.41,0,1,0-3.7.23V58.34H77.19v9.51c-6.09,1.11-10.87,4.4-12.45,8.57C40.29,77.56,24.9,80.78,24.9,80.78v70.55h-8v54s22.83-1.9,64.77-1.9,64.77,1.9,64.77,1.9v-54Z"/><path class="cls-6" d="M138.47,192.95H24.86V80.78S47.57,76,81.67,76s56.81,4.75,56.81,4.75Z"/><path class="cls-6" d="M16.89,151.32v54s22.83-1.9,64.77-1.9,64.77,1.9,64.77,1.9v-54H134.87v22.56s-20.94-2.06-53.21-2.06-53.21,1.74-53.21,1.74V151.32Z"/><circle class="cls-7" cx="102.09" cy="132.5" r="12.25"/><circle class="cls-8" cx="60.36" cy="132.09" r="12.25"/><path class="cls-6" d="M81.67,80C72,80,64.24,77.8,64.48,77c1.64-5.46,8.71-9.57,17.19-9.57,8.17,0,15,3.81,17,9C99,77.38,91.35,80,81.67,80Z"/><path class="cls-6" d="M86,69.71a10.77,10.77,0,0,1-8.85,0V58.34H86Z"/><rect class="cls-6" x="79.72" y="26.25" width="3.7" height="32.09"/><circle class="cls-6" cx="81.34" cy="23.42" r="4.42"/><path class="cls-6" d="M138.47,192.95H24.86V80.78S47.57,76,81.67,76s56.81,4.75,56.81,4.75Z"/><path class="cls-6" d="M16.89,151.32v54s22.83-1.9,64.77-1.9,64.77,1.9,64.77,1.9v-54H134.87v22.56s-20.94-2.06-53.21-2.06-53.21,1.74-53.21,1.74V151.32Z"/><circle class="cls-7" cx="102.09" cy="132.5" r="12.25"/><circle class="cls-8" cx="60.36" cy="132.09" r="12.25"/><path class="cls-6" d="M81.67,80C72,80,64.24,77.8,64.48,77c1.64-5.46,8.71-9.57,17.19-9.57,8.17,0,15,3.81,17,9C99,77.38,91.35,80,81.67,80Z"/><path class="cls-6" d="M86,69.71a10.77,10.77,0,0,1-8.85,0V58.34H86Z"/><rect class="cls-6" x="79.72" y="26.25" width="3.7" height="32.09"/><circle class="cls-6" cx="81.34" cy="23.42" r="4.42"/></svg>