<svg id="Robot" xmlns="http://www.w3.org/2000/svg" viewBox="0 0 254.18 702.07"><defs><style>.cls-1{fill:#a2adc4;}.cls-1,.cls-2,.cls-3,.cls-4,.cls-5,.cls-6{stroke:#231f20;stroke-miterlimit:10;stroke-width:1.99px;}.cls-2{fill:#c2d0eb;}.cls-3{fill:#231f20;}.cls-4{fill:#050406;}.cls-5{fill:#f15a5a;}.cls-6{fill:#8dcb88;}</style></defs><title>codebot</title><g id="Layer_5" data-name="Layer 5"><rect class="cls-1" x="79.51" y="242.39" width="95.16" height="35.02"/><rect class="cls-1" x="53.53" y="459.07" width="147.13" height="23.95"/><path class="cls-2" d="M479.56,293.59H320.44V136.48s31.81-6.65,79.56-6.65,79.56,6.65,79.56,6.65Z" transform="translate(-272.91 -48.97)"/><path class="cls-2" d="M309.28,235.29v75.62s32-2.66,90.72-2.66,90.72,2.66,90.72,2.66V235.29H474.52v31.6S445.19,264,400,264s-74.52,2.44-74.52,2.44V235.29Z" transform="translate(-272.91 -48.97)"/><rect class="cls-2" x="36.37" y="270.94" width="181.43" height="196.56"/><circle class="cls-3" cx="155.69" cy="159.97" r="17.16"/><circle class="cls-4" cx="97.25" cy="159.39" r="17.16"/><path class="cls-2" d="M313.88,522.65" transform="translate(-272.91 -48.97)"/><path class="cls-2" d="M485.56,522.65" transform="translate(-272.91 -48.97)"/><polygon class="cls-2" points="40.97 473.69 51.12 522.83 88.18 542.06 165.44 542.06 202.5 522.83 212.65 473.69 40.97 473.69"/><path class="cls-2" d="M320.44,524.31" transform="translate(-272.91 -48.97)"/><rect class="cls-1" x="146.98" y="315.29" width="39.5" height="76.67"/><circle class="cls-5" cx="166.86" cy="337.14" r="11.16"/><circle class="cls-6" cx="166.86" cy="369.22" r="11.16"/><polygon class="cls-2" points="167.25 541.12 167.25 612.85 199.91 612.85 199.88 524.22 167.25 541.12"/><rect class="cls-2" x="169.93" y="613.15" width="28.14" height="54.21"/><path class="cls-2" d="M173,667.36h25.76A21.64,21.64,0,0,1,220.37,689v12.07a0,0,0,0,1,0,0H150a0,0,0,0,1,0,0V690.31A22.94,22.94,0,0,1,173,667.36Z"/><path class="cls-1" d="M491.9,326.49s11.46-1.93,23.44,10A37.66,37.66,0,0,1,526.05,364L491.9,377.39s-8.93-9.73-6-39.71C486.8,328.78,491.9,326.49,491.9,326.49Z" transform="translate(-272.91 -48.97)"/><polygon class="cls-2" points="225.29 325.95 225.29 465.04 245.31 465.04 245.31 318.1 225.29 325.95"/><rect class="cls-2" x="224.41" y="459.07" width="25.68" height="59.34"/><polygon class="cls-2" points="246.16 505.83 233.93 505.83 230.67 468.51 246.16 468.51 246.16 505.83"/><rect class="cls-2" x="233.3" y="518.42" width="14.7" height="19.21"/><polygon class="cls-2" points="234.22 571.04 223.4 566.4 234.22 541.17 247.03 541.17 234.22 571.04"/><rect class="cls-2" x="236.6" y="537.63" width="8.11" height="3.54"/><path class="cls-1" d="M308.1,326.49s-11.46-1.93-23.44,10A37.66,37.66,0,0,0,273.95,364l34.16,13.39s8.93-9.73,6-39.71C313.2,328.78,308.1,326.49,308.1,326.49Z" transform="translate(-272.91 -48.97)"/><polygon class="cls-2" points="28.89 325.95 28.89 465.04 8.87 465.04 8.87 318.1 28.89 325.95"/><rect class="cls-2" x="277" y="508.04" width="25.68" height="59.34" transform="translate(306.77 1026.46) rotate(180)"/><polygon class="cls-2" points="8.02 505.83 20.25 505.83 23.51 468.51 8.02 468.51 8.02 505.83"/><rect class="cls-2" x="279.08" y="567.38" width="14.7" height="19.21" transform="translate(299.96 1105.01) rotate(180)"/><polygon class="cls-2" points="19.96 571.04 30.78 566.4 19.96 541.17 7.15 541.17 19.96 571.04"/><rect class="cls-2" x="282.38" y="586.59" width="8.11" height="3.54" transform="translate(299.96 1127.76) rotate(180)"/><polygon class="cls-2" points="86.93 541.12 86.93 612.85 54.27 612.85 54.3 524.22 86.93 541.12"/><rect class="cls-2" x="56.11" y="613.15" width="28.14" height="54.21"/><path class="cls-2" d="M306.72,716.33h70.34a0,0,0,0,1,0,0V728.4A21.64,21.64,0,0,1,355.42,750H329.66a22.94,22.94,0,0,1-22.94-22.94V716.33a0,0,0,0,1,0,0Z" transform="translate(410.87 1417.4) rotate(180)"/><path class="cls-2" d="M400,135.44c-13.57,0-24.4-3.12-24.07-4.22,2.29-7.65,12.2-13.41,24.07-13.41,11.44,0,21.05,5.34,23.79,12.57C424.3,131.74,413.57,135.44,400,135.44Z" transform="translate(-272.91 -48.97)"/><path class="cls-2" d="M406.06,121a15.09,15.09,0,0,1-12.39,0V105.06h12.39Z" transform="translate(-272.91 -48.97)"/><rect class="cls-2" x="124.36" y="11.15" width="5.19" height="44.94"/><circle class="cls-2" cx="126.63" cy="7.19" r="6.19"/></g></svg>