<svg id="Robot" xmlns="http://www.w3.org/2000/svg" viewBox="0 0 800 800"><defs><style>.cls-1{fill:#c2d0eb;}.cls-1,.cls-2,.cls-3{stroke:#231f20;stroke-miterlimit:10;stroke-width:4.8px;}.cls-2{fill:#231f20;}.cls-3{fill:#050406;}</style></defs><title>favicon</title><g id="Layer_5_copy_2" data-name="Layer 5 copy 2"><path class="cls-1" d="M580.4,659.21H197.64V281.32s76.53-16,191.38-16,191.38,16,191.38,16Z"/><path class="cls-1" d="M170.82,519V700.9s76.91-6.4,218.21-6.4,218.21,6.4,218.21,6.4V519h-39v76s-70.56-6.92-179.24-6.92S209.77,594,209.77,594V519Z"/><circle class="cls-2" cx="457.83" cy="455.59" r="41.27"/><circle class="cls-3" cx="317.24" cy="454.19" r="41.27"/><path class="cls-1" d="M389,278.81c-32.64,0-58.69-7.51-57.9-10.14,5.51-18.41,29.34-32.25,57.9-32.25,27.51,0,50.64,12.85,57.22,30.24C447.47,269.9,421.67,278.81,389,278.81Z"/><path class="cls-1" d="M403.6,244.05s-5.67,3.2-14.9,3.2-14.9-3.2-14.9-3.2V205.73h29.8Z"/><rect class="cls-1" x="382.46" y="97.64" width="12.47" height="108.09"/><circle class="cls-1" cx="387.92" cy="88.11" r="14.9"/><path class="cls-1" d="M580.4,659.21H197.64V281.32s76.53-16,191.38-16,191.38,16,191.38,16Z"/><path class="cls-1" d="M170.82,519V700.9s76.91-6.4,218.21-6.4,218.21,6.4,218.21,6.4V519h-39v76s-70.56-6.92-179.24-6.92S209.77,594,209.77,594V519Z"/><circle class="cls-2" cx="457.83" cy="455.59" r="41.27"/><circle class="cls-3" cx="317.24" cy="454.19" r="41.27"/><path class="cls-1" d="M389,278.81c-32.64,0-58.69-7.51-57.9-10.14,5.51-18.41,29.34-32.25,57.9-32.25,27.51,0,50.64,12.85,57.22,30.24C447.47,269.9,421.67,278.81,389,278.81Z"/><path class="cls-1" d="M403.6,244.05s-5.67,3.2-14.9,3.2-14.9-3.2-14.9-3.2V205.73h29.8Z"/><rect class="cls-1" x="382.46" y="97.64" width="12.47" height="108.09"/><circle class="cls-1" cx="387.92" cy="88.11" r="14.9"/></g></svg>