<svg id="Layer_29" data-name="Layer 29" xmlns="http://www.w3.org/2000/svg" viewBox="0 0 800 800"><defs><style>.cls-1{fill:#b9a832;}.cls-2{fill:#c0a02f;}.cls-3{fill:#ddbb2d;}.cls-4{fill:#e8cb1e;stroke:#4f461f;}.cls-4,.cls-5{stroke-miterlimit:10;}.cls-5{fill:none;stroke:#000;}</style></defs><title>goal</title><g id="Layer_30_copy" data-name="Layer 30 copy"><path class="cls-1" d="M625.88,422c2.63-30.28-2-44.43-2-44.43S655.58,352.92,677.5,334c-5.57-16-8.92-30.09-14.12-45.32s-25.81-48.39-25.81-48.39-50.73,16.61-66.14,20.23c0,0-7.85-9.36-24.76-23.56a178.26,178.26,0,0,0-33.22-22l-3.93-75.8a202.58,202.58,0,0,0-42-8.76c-23.86-2.42-52.85-.91-52.85-.91s-14.5,61.91-17.52,74.7c-9.06,2.83-20.82,7.73-32.94,13s-31,21.2-31,21.2l-59.82-34.83s-15.14,13.63-31.8,37.86a202.73,202.73,0,0,0-24.23,48.46l44.81,49.1s-5,11-7.24,40.93,1.75,42.92,1.75,42.92l-53,41.26s.88,11.9,14.17,46.72S245,558.37,245,558.37l64.35-21.86s15.43,18.33,26.88,27.59S368,583,368,583l3.48,76.22s23.25,6.11,40.63,9.16,54.26.47,54.26.47l18.09-75.16s13.62-3.52,34.06-13.15S546.94,562,546.94,562l62,34.06s12.66-11.17,31.74-39.8,23.69-46.73,23.69-46.73l-47.06-52.32S623.25,452.29,625.88,422ZM439.67,491.74c-45,0-81.53-40.92-81.53-91.39S394.64,309,439.67,309s81.53,40.92,81.53,91.39S484.7,491.74,439.67,491.74Z"/><path class="cls-2" d="M182.07,339.58l80.08-.64,29.31,60.49-34.8,23.36h-81s-4-26.54-2.21-45.67S182.07,339.58,182.07,339.58Z"/><path class="cls-2" d="M122.5,463.77H251.43L245,558.37H161.3s-13.11-16.62-22.53-43.25S130.92,495.77,122.5,463.77Z"/><polyline class="cls-2" points="368.01 583.05 284.99 583.05 290.74 660.62 403.42 660.62 368.01 583.05"/><path class="cls-2" d="M217.35,289.85l74.12-16.64-18.09-69.68H190.32a156.27,156.27,0,0,0-30.67,39C146.2,266.75,136,289.85,136,289.85Z"/><path class="cls-2" d="M397.19,204.13l-59.75,49.43-54.29-33.2,3.12-5.08s11.65-6.33,31.8-11.76S397.19,204.13,397.19,204.13Z"/><polyline class="cls-3" points="135.98 289.85 182.07 339.58 262.16 338.94 217.35 289.85 135.98 289.85"/><polygon class="cls-3" points="175.66 422.8 256.67 422.8 228.49 468.33 203.62 464.05 122.5 463.77 175.66 422.8"/><path class="cls-3" d="M309.4,536.51l61.1,32.64L368,583H285s-14.18-7.2-22.07-13.5S244,552.21,244,552.21l65.38-15.7"/><path class="cls-3" d="M466.38,668.9l-68.49-25.48-26.4,15.85-80.75,1.35A345.87,345.87,0,0,0,346.6,671s33.9.71,56.24.5,58.76-.74,63.54-2.63"/><polyline class="cls-3" points="608.95 596.09 527.65 596.09 490.75 575.69 577.16 523.45 608.95 596.09"/><polygon class="cls-3" points="637.57 240.26 542.71 240.26 571.51 269.26 637.57 240.26"/><path class="cls-3" d="M378,488.4s68-23,59.07-95.43-54.19-77.32-54.19-77.32S420.5,250.16,472,291.26s61.3,75.93,57.12,128.87S458.12,517.65,378,488.4Z"/><path class="cls-3" d="M414.7,129.43s-60.57-2.23-80.35,0c-10.86,45.65-16.28,74.1-16.28,74.1l79.11.6Z"/><path class="cls-4" d="M625.88,422c2.63-30.28-2-44.43-2-44.43S655.58,352.92,677.5,334c-5.57-16-8.92-30.09-14.12-45.32s-25.81-48.39-25.81-48.39-50.73,16.61-66.14,20.23c0,0-7.85-9.36-24.76-23.56a178.26,178.26,0,0,0-33.22-22l-3.93-75.8a202.58,202.58,0,0,0-42-8.76c-23.86-2.42-52.85-.91-52.85-.91s-14.5,61.91-17.52,74.7c-9.06,2.83-20.82,7.73-32.94,13s-31,21.2-31,21.2l-59.82-34.83s-15.14,13.63-31.8,37.86a202.73,202.73,0,0,0-24.23,48.46l44.81,49.1s-5,11-7.24,40.93,1.75,42.92,1.75,42.92l-53,41.26s.88,11.9,14.17,46.72S245,558.37,245,558.37l64.35-21.86s15.43,18.33,26.88,27.59S368,583,368,583l3.48,76.22s23.25,6.11,40.63,9.16,54.26.47,54.26.47l18.09-75.16s13.62-3.52,34.06-13.15S546.94,562,546.94,562l62,34.06s12.66-11.17,31.74-39.8,23.69-46.73,23.69-46.73l-47.06-52.32S623.25,452.29,625.88,422ZM439.67,491.74c-45,0-81.53-40.92-81.53-91.39S394.64,309,439.67,309s81.53,40.92,81.53,91.39S484.7,491.74,439.67,491.74Z"/><path class="cls-5" d="M625.88,422c2.63-30.28-2-44.43-2-44.43S655.58,352.92,677.5,334c-5.57-16-8.92-30.09-14.12-45.32s-25.81-48.39-25.81-48.39h-87c-1.25-1.08-2.53-2.18-3.89-3.32a178.26,178.26,0,0,0-33.22-22l-3.93-75.8a202.58,202.58,0,0,0-42-8.76c-23.86-2.42-52.85-.91-52.85-.91h0s-60.57-2.23-80.35,0c-10.86,45.65-16.28,74.1-16.28,74.1a180.42,180.42,0,0,0-27.82,9.82l-16.86-9.82H190.32a156.27,156.27,0,0,0-30.67,39C146.2,266.75,136,289.85,136,289.85l46.09,49.73s-6.78,18.42-8.62,37.55,2.21,45.67,2.21,45.67l-53.17,41c8.43,32,6.85,24.72,16.27,51.35s22.53,43.25,22.53,43.25H245L249,557c3.92,3.75,9.45,8.9,14,12.51C270.81,575.85,285,583,285,583l5.75,77.57A345.87,345.87,0,0,0,346.6,671s33.91.71,56.24.5,58.76-.74,63.54-2.63l18.09-75.16a189.8,189.8,0,0,0,23.6-8.48l19.59,10.83h81.3s12.66-11.17,31.74-39.8,23.69-46.73,23.69-46.73l-47.06-52.32S623.25,452.29,625.88,422ZM397.32,478.46c-23.49-16-39.18-45-39.18-78.11,0-33.63,16.21-63,40.35-78.89,14,8.07,33.13,27.08,38.59,71.5C442.82,439.62,416.67,465.76,397.32,478.46Z"/></g></svg>