<svg id="Layer_33" data-name="Layer 33" xmlns="http://www.w3.org/2000/svg" viewBox="0 0 800 800"><defs><style>.cls-1{fill:#0fa24a;}.cls-2{fill:#231f20;}</style></defs><title>green_tick</title><polygon class="cls-1" points="43.28 412.6 149.46 306.42 309.68 466.64 675.84 100.48 782.02 206.66 309.79 678.89 309.71 678.81 309.6 678.92 43.28 412.6"/><path class="cls-2" d="M675.84,118.16l88.5,88.5L309.8,661.2l-.11-.11-.11.11L61,412.6l88.5-88.5L309.68,484.32,675.84,118.16m0-35.36-17.68,17.68L309.68,449,167.14,306.42l-17.68-17.68-17.68,17.68-88.5,88.5L25.61,412.6l17.68,17.68L291.89,678.88l17.68,17.68.11-.11.11.11,17.68-17.68L782,224.34l17.68-17.68L782,189l-88.5-88.5L675.84,82.8Z"/></svg>