<svg id="Spikes" xmlns="http://www.w3.org/2000/svg" viewBox="0 0 800 800"><defs><style>.cls-1{fill:#a4a4a4;}.cls-2{fill:#7d7d7d;}.cls-3{fill:none;stroke:#000;stroke-miterlimit:10;}</style></defs><title>up</title><g id="Up"><path class="cls-1" d="M726.94,720.17,671.22,414.62,615.51,720.17a7.49,7.49,0,0,0-.46,2.5c0,11,25.15,19.93,56.17,19.93s56.17-8.92,56.17-19.93A7.49,7.49,0,0,0,726.94,720.17Z"/><path class="cls-2" d="M651.32,740l19.9-323.19L615,721.4S615,735.14,651.32,740Z"/><path class="cls-3" d="M726.94,720.17,671.22,414.62,615.51,720.17a7.49,7.49,0,0,0-.46,2.5c0,11,25.15,19.93,56.17,19.93s56.17-8.92,56.17-19.93A7.49,7.49,0,0,0,726.94,720.17Z"/><path class="cls-1" d="M455.72,720.17,400,414.62,344.28,720.17a7.49,7.49,0,0,0-.46,2.5c0,11,25.15,19.93,56.17,19.93s56.17-8.92,56.17-19.93A7.49,7.49,0,0,0,455.72,720.17Z"/><path class="cls-2" d="M380.1,740,400,416.85,343.83,721.4S343.83,735.14,380.1,740Z"/><path class="cls-3" d="M455.72,720.17,400,414.62,344.28,720.17a7.49,7.49,0,0,0-.46,2.5c0,11,25.15,19.93,56.17,19.93s56.17-8.92,56.17-19.93A7.49,7.49,0,0,0,455.72,720.17Z"/><path class="cls-1" d="M184.49,720.17,128.78,414.62,73.06,720.17a7.49,7.49,0,0,0-.46,2.5c0,11,25.15,19.93,56.17,19.93S185,733.68,185,722.67A7.49,7.49,0,0,0,184.49,720.17Z"/><path class="cls-2" d="M108.88,740l19.9-323.19L72.6,721.4S72.6,735.14,108.88,740Z"/><path class="cls-3" d="M184.49,720.17,128.78,414.62,73.06,720.17a7.49,7.49,0,0,0-.46,2.5c0,11,25.15,19.93,56.17,19.93S185,733.68,185,722.67A7.49,7.49,0,0,0,184.49,720.17Z"/><path class="cls-1" d="M726.94,328.93,671.22,23.38,615.51,328.93a7.49,7.49,0,0,0-.46,2.5c0,11,25.15,19.93,56.17,19.93s56.17-8.92,56.17-19.93A7.49,7.49,0,0,0,726.94,328.93Z"/><path class="cls-2" d="M651.32,348.8l19.9-323.19L615,330.16S615,343.89,651.32,348.8Z"/><path class="cls-3" d="M726.94,328.93,671.22,23.38,615.51,328.93a7.49,7.49,0,0,0-.46,2.5c0,11,25.15,19.93,56.17,19.93s56.17-8.92,56.17-19.93A7.49,7.49,0,0,0,726.94,328.93Z"/><path class="cls-1" d="M455.72,328.93,400,23.38,344.28,328.93a7.49,7.49,0,0,0-.46,2.5c0,11,25.15,19.93,56.17,19.93s56.17-8.92,56.17-19.93A7.49,7.49,0,0,0,455.72,328.93Z"/><path class="cls-2" d="M380.1,348.8,400,25.61,343.83,330.16S343.83,343.89,380.1,348.8Z"/><path class="cls-3" d="M455.72,328.93,400,23.38,344.28,328.93a7.49,7.49,0,0,0-.46,2.5c0,11,25.15,19.93,56.17,19.93s56.17-8.92,56.17-19.93A7.49,7.49,0,0,0,455.72,328.93Z"/><path class="cls-1" d="M591.33,506,535.61,200.47,479.89,506a7.49,7.49,0,0,0-.46,2.5c0,11,25.15,19.93,56.17,19.93s56.17-8.92,56.17-19.93A7.49,7.49,0,0,0,591.33,506Z"/><path class="cls-2" d="M515.71,525.89l19.9-323.19L479.44,507.25S479.44,521,515.71,525.89Z"/><path class="cls-3" d="M591.33,506,535.61,200.47,479.89,506a7.49,7.49,0,0,0-.46,2.5c0,11,25.15,19.93,56.17,19.93s56.17-8.92,56.17-19.93A7.49,7.49,0,0,0,591.33,506Z"/><path class="cls-1" d="M320.11,506,264.39,200.47,208.67,506a7.49,7.49,0,0,0-.46,2.5c0,11,25.15,19.93,56.17,19.93s56.17-8.92,56.17-19.93A7.49,7.49,0,0,0,320.11,506Z"/><path class="cls-2" d="M244.49,525.89l19.9-323.19L208.21,507.25S208.21,521,244.49,525.89Z"/><path class="cls-3" d="M320.11,506,264.39,200.47,208.67,506a7.49,7.49,0,0,0-.46,2.5c0,11,25.15,19.93,56.17,19.93s56.17-8.92,56.17-19.93A7.49,7.49,0,0,0,320.11,506Z"/><path class="cls-1" d="M184.49,328.93,128.78,23.38,73.06,328.93a7.49,7.49,0,0,0-.46,2.5c0,11,25.15,19.93,56.17,19.93S185,342.44,185,331.43A7.49,7.49,0,0,0,184.49,328.93Z"/><path class="cls-2" d="M108.88,348.8l19.9-323.19L72.6,330.16S72.6,343.89,108.88,348.8Z"/><path class="cls-3" d="M184.49,328.93,128.78,23.38,73.06,328.93a7.49,7.49,0,0,0-.46,2.5c0,11,25.15,19.93,56.17,19.93S185,342.44,185,331.43A7.49,7.49,0,0,0,184.49,328.93Z"/></g></svg>