<svg id="Robot" xmlns="http://www.w3.org/2000/svg" viewBox="0 0 800 800"><defs><style>.cls-1,.cls-2{fill:#a2adc4;}.cls-1,.cls-2,.cls-3,.cls-4,.cls-5{stroke:#231f20;stroke-miterlimit:10;}.cls-1,.cls-3,.cls-5{stroke-width:1.99px;}.cls-2{stroke-width:1.7px;}.cls-3,.cls-4{fill:#c2d0eb;}.cls-4{stroke-width:1.78px;}.cls-5{fill:#050406;}</style></defs><title>left</title><g id="Layer_7" data-name="Layer 7"><rect class="cls-1" x="359.74" y="291.35" width="95.16" height="35.02" transform="translate(814.64 617.73) rotate(180)"/><rect class="cls-2" x="354.1" y="508.04" width="106.44" height="23.95" transform="translate(814.64 1040.03) rotate(180)"/><path class="cls-3" d="M327.43,293.59H486.56V136.48s-31.81-6.65-79.56-6.65-79.56,6.65-79.56,6.65Z"/><rect class="cls-4" x="335.81" y="319.9" width="145.16" height="196.56" transform="translate(816.77 836.37) rotate(180)"/><circle class="cls-5" cx="356.44" cy="208.35" r="17.16"/><polygon class="cls-4" points="466.24 522.65 445.63 591.03 368.37 591.03 347.76 522.65 466.24 522.65"/><polygon class="cls-4" points="381.73 554.8 369.5 554.8 366.24 517.48 381.73 517.48 381.73 554.8"/><polygon class="cls-4" points="390.44 567.48 390.44 661.81 423.1 661.81 423.06 566.54 390.44 567.48"/><rect class="cls-4" x="393.12" y="662.12" width="28.14" height="54.21"/><path class="cls-4" d="M443.55,750H345.29V739.27c0-12.67,14.45-22.94,50.87-22.94h25.76A21.64,21.64,0,0,1,443.55,738Z"/><path class="cls-3" d="M406.86,135.44c13.57,0,24.4-3.12,24.07-4.22-2.29-7.65-12.2-13.41-24.07-13.41-11.44,0-21.05,5.34-23.79,12.57C382.56,131.74,393.29,135.44,406.86,135.44Z"/><path class="cls-3" d="M400.8,121a15.09,15.09,0,0,0,12.39,0V105.06H400.8Z"/><rect class="cls-3" x="404.41" y="60.12" width="5.19" height="44.94" transform="translate(814 165.18) rotate(180)"/><circle class="cls-3" cx="407.32" cy="56.16" r="6.19"/><polygon class="cls-3" points="380.86 269.11 380.86 235.29 436.23 235.29 436.23 309.18 313.44 309.18 313.44 269.11 380.86 269.11"/><path class="cls-1" d="M380.4,370c0,6.84,12.39,15.59,24.79,15.59S430,376.86,430,370a24.79,24.79,0,0,0-49.57,0Z"/><polygon class="cls-3" points="395.17 369.6 395.17 516.67 415.2 516.67 415.2 369.72 395.17 369.6"/><rect class="cls-4" x="380.4" y="508.04" width="49.57" height="59.34"/><rect class="cls-4" x="415.2" y="567.38" width="13.41" height="19.21"/><rect class="cls-4" x="398.48" y="567.38" width="13.41" height="19.21"/><rect class="cls-4" x="381.76" y="567.38" width="13.41" height="19.21"/><rect class="cls-4" x="417.85" y="586.59" width="8.11" height="3.54"/><rect class="cls-4" x="401.13" y="586.59" width="8.11" height="3.54"/><rect class="cls-4" x="384.41" y="586.59" width="8.11" height="3.54"/><rect class="cls-4" x="381.76" y="590.14" width="13.41" height="24.89"/><rect class="cls-4" x="415.2" y="590.14" width="13.41" height="24.89"/><rect class="cls-4" x="398.48" y="590.14" width="13.41" height="24.89"/></g></svg>