<svg id="Robot" xmlns="http://www.w3.org/2000/svg" viewBox="0 0 800 800"><defs><style>.cls-1,.cls-2{fill:#a2adc4;}.cls-1,.cls-2,.cls-3,.cls-4,.cls-5{stroke:#231f20;stroke-miterlimit:10;}.cls-1,.cls-3,.cls-5{stroke-width:1.99px;}.cls-2{stroke-width:1.7px;}.cls-3,.cls-4{fill:#c2d0eb;}.cls-4{stroke-width:1.78px;}.cls-5{fill:#050406;}</style></defs><title>right</title><g id="Layer_6" data-name="Layer 6"><rect class="cls-1" x="345.1" y="291.35" width="95.16" height="35.02"/><rect class="cls-2" x="339.46" y="508.04" width="106.44" height="23.95"/><path class="cls-3" d="M472.57,293.59H313.44V136.48s31.81-6.65,79.56-6.65,79.56,6.65,79.56,6.65Z"/><rect class="cls-4" x="319.03" y="319.9" width="145.16" height="196.56"/><circle class="cls-5" cx="443.56" cy="208.35" r="17.16"/><polygon class="cls-4" points="333.76 522.65 354.37 591.03 431.63 591.03 452.24 522.65 333.76 522.65"/><polygon class="cls-4" points="418.27 554.8 430.5 554.8 433.76 517.48 418.27 517.48 418.27 554.8"/><polygon class="cls-4" points="409.56 567.48 409.56 661.81 376.9 661.81 376.94 566.54 409.56 567.48"/><rect class="cls-4" x="378.74" y="662.12" width="28.14" height="54.21"/><path class="cls-4" d="M356.45,750h98.26V739.27c0-12.67-14.45-22.94-50.87-22.94H378.08A21.64,21.64,0,0,0,356.45,738Z"/><path class="cls-3" d="M393.14,135.44c-13.57,0-24.4-3.12-24.07-4.22,2.29-7.65,12.2-13.41,24.07-13.41,11.44,0,21.05,5.34,23.79,12.57C417.44,131.74,406.71,135.44,393.14,135.44Z"/><path class="cls-3" d="M399.2,121a15.09,15.09,0,0,1-12.39,0V105.06H399.2Z"/><rect class="cls-3" x="390.41" y="60.12" width="5.19" height="44.94"/><circle class="cls-3" cx="392.68" cy="56.16" r="6.19"/><polygon class="cls-3" points="419.14 269.11 419.14 235.29 363.77 235.29 363.77 309.18 486.56 309.18 486.56 269.11 419.14 269.11"/><path class="cls-1" d="M419.6,370c0,6.84-12.39,15.59-24.79,15.59S370,376.86,370,370a24.79,24.79,0,0,1,49.57,0Z"/><polygon class="cls-3" points="404.83 369.6 404.83 516.67 384.8 516.67 384.8 369.72 404.83 369.6"/><rect class="cls-4" x="370.03" y="508.04" width="49.57" height="59.34" transform="translate(789.63 1075.42) rotate(180)"/><rect class="cls-4" x="371.39" y="567.38" width="13.41" height="19.21" transform="translate(756.19 1153.98) rotate(180)"/><rect class="cls-4" x="388.11" y="567.38" width="13.41" height="19.21" transform="translate(789.63 1153.98) rotate(180)"/><rect class="cls-4" x="404.83" y="567.38" width="13.41" height="19.21" transform="translate(823.07 1153.98) rotate(180)"/><rect class="cls-4" x="374.04" y="586.59" width="8.11" height="3.54" transform="translate(756.19 1176.73) rotate(180)"/><rect class="cls-4" x="390.76" y="586.59" width="8.11" height="3.54" transform="translate(789.63 1176.73) rotate(180)"/><rect class="cls-4" x="407.48" y="586.59" width="8.11" height="3.54" transform="translate(823.07 1176.73) rotate(180)"/><rect class="cls-4" x="404.83" y="590.14" width="13.41" height="24.89" transform="translate(823.07 1205.16) rotate(180)"/><rect class="cls-4" x="371.39" y="590.14" width="13.41" height="24.89" transform="translate(756.19 1205.16) rotate(180)"/><rect class="cls-4" x="388.11" y="590.14" width="13.41" height="24.89" transform="translate(789.63 1205.16) rotate(180)"/></g></svg>