<svg id="Robot" xmlns="http://www.w3.org/2000/svg" viewBox="0 0 800 800"><defs><style>.cls-1{fill:#a2adc4;}.cls-1,.cls-2{stroke:#231f20;stroke-miterlimit:10;stroke-width:1.99px;}.cls-2{fill:#c2d0eb;}</style></defs><title>up</title><g id="Layer_4" data-name="Layer 4"><rect class="cls-1" x="352.42" y="291.35" width="95.16" height="35.02"/><path class="cls-2" d="M309.28,235.29v75.62s32-2.66,90.72-2.66,90.72,2.66,90.72,2.66V235.29H474.52v31.6S445.19,264,400,264s-74.52,2.44-74.52,2.44V235.29Z"/><rect class="cls-1" x="326.44" y="508.04" width="147.13" height="23.95"/><rect class="cls-2" x="309.28" y="319.9" width="181.43" height="196.56"/><polygon class="cls-2" points="313.88 522.65 324.03 571.79 361.08 591.03 438.35 591.03 475.41 571.79 485.56 522.65 313.88 522.65"/><polygon class="cls-2" points="440.16 590.09 440.16 661.81 472.82 661.81 472.79 573.19 440.16 590.09"/><rect class="cls-2" x="442.84" y="662.12" width="28.14" height="54.21"/><path class="cls-2" d="M445.89,716.33h25.76A21.64,21.64,0,0,1,493.28,738V750a0,0,0,0,1,0,0H422.94a0,0,0,0,1,0,0V739.27a22.94,22.94,0,0,1,22.94-22.94Z"/><path class="cls-1" d="M491.9,326.49s11.46-1.93,23.44,10A37.66,37.66,0,0,1,526.05,364L491.9,377.39s-8.93-9.73-6-39.71C486.8,328.78,491.9,326.49,491.9,326.49Z"/><polygon class="cls-2" points="498.19 374.92 498.19 514.01 518.22 514.01 518.22 367.06 498.19 374.92"/><rect class="cls-2" x="497.32" y="508.04" width="25.68" height="59.34"/><rect class="cls-2" x="506.21" y="567.38" width="14.7" height="19.21"/><polygon class="cls-2" points="507.13 620.01 496.31 615.37 507.13 590.14 519.94 590.13 507.13 620.01"/><rect class="cls-2" x="509.51" y="586.59" width="8.11" height="3.54"/><path class="cls-1" d="M308.1,326.49s-11.46-1.93-23.44,10A37.66,37.66,0,0,0,273.95,364l34.16,13.39s8.93-9.73,6-39.71C313.2,328.78,308.1,326.49,308.1,326.49Z"/><polygon class="cls-2" points="301.81 374.92 301.81 514.01 281.78 514.01 281.78 367.06 301.81 374.92"/><rect class="cls-2" x="277" y="508.04" width="25.68" height="59.34" transform="translate(579.68 1075.42) rotate(180)"/><rect class="cls-2" x="279.08" y="567.38" width="14.7" height="19.21" transform="translate(572.87 1153.98) rotate(180)"/><polygon class="cls-2" points="292.87 620.01 303.69 615.37 292.87 590.14 280.06 590.13 292.87 620.01"/><rect class="cls-2" x="282.38" y="586.59" width="8.11" height="3.54" transform="translate(572.87 1176.73) rotate(180)"/><polygon class="cls-2" points="359.84 590.09 359.84 661.81 327.18 661.81 327.21 573.19 359.84 590.09"/><rect class="cls-2" x="329.02" y="662.12" width="28.14" height="54.21"/><path class="cls-2" d="M306.72,716.33h70.34a0,0,0,0,1,0,0V728.4A21.64,21.64,0,0,1,355.42,750H329.66a22.94,22.94,0,0,1-22.94-22.94V716.33A0,0,0,0,1,306.72,716.33Z" transform="translate(683.78 1466.37) rotate(180)"/><path class="cls-2" d="M479.56,293.59H320.44V136.48s31.81-6.65,79.56-6.65,79.56,6.65,79.56,6.65Z"/><path class="cls-2" d="M400,135.44c-13.57,0-24.4-3.12-24.07-4.22,2.29-7.65,12.2-13.41,24.07-13.41,11.44,0,21.05,5.34,23.79,12.57C424.3,131.74,413.57,135.44,400,135.44Z"/><path class="cls-2" d="M406.06,121a15.09,15.09,0,0,1-12.39,0V105.06h12.39Z"/><rect class="cls-2" x="397.27" y="60.12" width="5.19" height="44.94"/><circle class="cls-2" cx="399.54" cy="56.16" r="6.19"/></g></svg>